<?xml version="1.0" encoding="UTF-8" standalone="no"?>
<!DOCTYPE svg PUBLIC "-//W3C//DTD SVG 1.1//EN" "http://www.w3.org/Graphics/SVG/1.1/DTD/svg11.dtd">
<svg width="100%" height="100%" viewBox="0 0 640 640" version="1.1" xmlns="http://www.w3.org/2000/svg" xmlns:xlink="http://www.w3.org/1999/xlink" xml:space="preserve" xmlns:serif="http://www.serif.com/" style="fill-rule:evenodd;clip-rule:evenodd;stroke-linejoin:round;stroke-miterlimit:2;">
    <rect x="0" y="0" width="640" height="640" fill="white"></rect>
    <g transform="matrix(1,0,0,1,-760,-92)">
        <g id="owl-mark-black" serif:id="owl mark black" transform="matrix(1,0,0,1,0,92)">
            <rect x="760" y="0" width="640" height="640" style="fill:none;"/>
            <g id="soft-owl" serif:id="soft owl" transform="matrix(1.07692,0,0,1.07692,-75.0174,-24.6129)">
                <path d="M1063.19,192C1052.33,180.843 1041.22,177.835 1041.22,177.835C1041.22,177.835 1038.44,168.563 1038.99,156.854C1039.53,145.397 1041.63,133.612 1044.16,133.406C1047.4,133.141 1063.61,162.074 1095.53,162.198C1127.44,162.323 1153.92,124.911 1156.47,125C1159.15,125.094 1162.64,139.307 1162.88,153.62C1163.11,167.946 1161.41,176.835 1161.41,176.835C1161.41,176.835 1171.7,192.766 1171.52,211.392C1171.33,230.019 1161.64,242.481 1161.64,242.481C1161.64,242.481 1178.99,261.476 1177.45,300.253C1176.1,334.462 1157.59,367.273 1128.12,392L1148.04,392L1165.75,372.336C1166.86,371.105 1168.76,371.006 1169.99,372.113L1174.44,376.128C1175.67,377.236 1175.78,379.135 1174.67,380.365L1164.19,392L1175.51,392C1176.61,392 1177.5,392.894 1177.5,393.995L1177.5,410.005C1177.5,411.106 1176.61,412 1175.51,412L1099.75,412C1067.4,432.377 1037.5,446.774 1020.37,475C1008.07,495.281 1008.53,514.623 1004.39,515C1000.89,515.319 1002.09,487.716 1003.11,475C1006.37,434.604 1021.66,398.438 1056.31,359C1062.12,352.384 1076.78,340.659 1075.42,338.747C1074.39,337.297 1058.03,346.71 1050.62,352C1026.47,369.251 1011.78,394.396 997.633,425C994.326,432.151 988.409,448.041 986.983,447.696C985.614,447.365 987.531,431.416 988.577,424C989.16,419.864 989.811,415.868 990.533,412L969.495,412C968.394,412 967.5,411.106 967.5,410.005L967.5,393.995C967.5,392.894 968.394,392 969.495,392L995.222,392C1003.66,362.701 1017.76,340.433 1040,316C1042.88,312.831 1050.45,306.407 1049.1,305.19C1047.65,303.891 1038.6,309.294 1035,312C1017.2,325.39 1004.88,339.346 992,363C988.808,368.862 982.941,382.225 981.452,381.709C979.879,381.164 982.766,366.18 984,359C998.285,275.874 1039.98,244.394 1081.12,244.481C1107.79,244.537 1126.19,255.633 1130.02,284.443C1132.87,305.873 1123.94,327.312 1112.12,345.762C1106.27,354.895 1092.17,369.228 1093.53,370.601C1095.05,372.143 1110.23,359.708 1117.86,352C1135.07,334.61 1148.36,309.925 1147.83,280.506C1147.39,255.994 1137.96,245.949 1137.96,245.949C1137.96,245.949 1149.57,233.76 1149.3,213.861C1149.03,193.962 1138.43,176.835 1138.43,176.835C1138.43,176.835 1124.81,180.835 1111.75,192.229C1118.19,193.416 1123.08,199.065 1123.08,205.847C1123.08,213.49 1116.87,219.695 1109.23,219.695C1103.32,219.695 1098.26,215.978 1096.28,210.753C1089.45,221.702 1086.26,231.109 1083.65,231.139C1081.42,231.165 1080.61,222.239 1075.94,211.339C1073.82,216.253 1068.92,219.695 1063.23,219.695C1055.59,219.695 1049.38,213.49 1049.38,205.847C1049.38,198.217 1055.57,192.02 1063.19,192Z"/>
            </g>
        </g>
    </g>
</svg>
