<?xml version="1.0" encoding="UTF-8" standalone="no"?>
<!DOCTYPE svg PUBLIC "-//W3C//DTD SVG 1.1//EN" "http://www.w3.org/Graphics/SVG/1.1/DTD/svg11.dtd">
<svg width="100%" height="100%" viewBox="0 0 676 432" version="1.1" xmlns="http://www.w3.org/2000/svg" xmlns:xlink="http://www.w3.org/1999/xlink" xml:space="preserve" xmlns:serif="http://www.serif.com/" style="fill-rule:evenodd;clip-rule:evenodd;stroke-linejoin:round;stroke-miterlimit:2;">
    <rect x="0" y="0" width="676" height="432" fill="white"></rect>
    <g transform="matrix(1,0,0,1,-1000,0)">
        <g id="logo-vertical-black" serif:id="logo vertical black" transform="matrix(0.704167,0,0,0.8,288.792,0)">
            <rect x="1010" y="0" width="960" height="540" style="fill:none;"/>
            <g transform="matrix(1.24369,0,0,1.09471,40.6956,-62.9896)">
                <path d="M1112.41,231.43C1123.71,231.43 1130.15,223.244 1130.15,216.12C1130.15,206.95 1123.93,201.19 1109.61,201.19C1108.62,201.19 1073.91,201.72 1073.91,201.72L1073.91,212.482C1077.4,212.482 1077.85,212.331 1079.29,212.331L1079.29,241.358C1078.38,241.434 1077.4,241.434 1073.91,241.434L1073.91,252.044L1097.03,252.044L1097.03,241.358L1090.21,241.358L1090.21,231.657L1112.41,231.43ZM1110.29,211.8C1114.91,211.8 1117.27,213.695 1117.27,216.651C1117.27,219.682 1114.91,221.804 1110.22,221.804L1090.21,221.804L1090.21,212.103C1090.21,212.103 1109.15,211.8 1110.29,211.8Z" style="fill-rule:nonzero;"/>
            </g>
            <g transform="matrix(1.24369,0,0,1.09471,40.6956,-62.9896)">
                <path d="M1164.44,253.939C1179.75,253.939 1188.92,245.678 1188.92,233.476L1188.92,212.482L1194.99,212.482L1194.99,201.72L1171.95,201.72L1171.95,212.482L1178.01,212.482L1178.01,230.823C1178.01,238.857 1173.99,242.874 1164.44,242.874C1154.89,242.874 1150.88,238.857 1150.88,230.823L1150.88,212.482L1156.94,212.482L1156.94,201.72L1133.9,201.72L1133.9,212.482L1139.96,212.482L1139.96,233.476C1139.96,245.678 1149.13,253.939 1164.44,253.939Z" style="fill-rule:nonzero;"/>
            </g>
            <g transform="matrix(1.24369,0,0,1.09471,40.6956,-62.9896)">
                <path d="M1239.06,244.769C1240.57,250.301 1243.99,253.636 1250.05,253.636C1252.32,253.636 1254.97,253.105 1258.01,252.12L1258.01,241.434C1257.17,241.964 1255.88,242.419 1254.52,242.419C1252.78,242.419 1250.96,241.586 1250.28,239.16L1247.55,229.762C1254.22,228.474 1258.31,223.244 1258.31,216.12C1258.31,207.404 1251.03,201.114 1239.59,201.114C1238.98,201.114 1238.38,201.19 1201.32,201.19L1201.32,212.482C1203.51,212.482 1205.11,212.331 1206.7,212.331L1206.7,241.358C1205.79,241.434 1204.8,241.434 1201.32,241.434L1201.32,252.12L1224.43,252.12L1224.43,241.434L1217.61,241.434L1217.61,231.354L1235.57,231.354L1239.06,244.769ZM1217.61,212.103C1237.85,211.8 1238,211.8 1238.15,211.8C1242.47,211.8 1244.67,213.771 1244.67,216.651C1244.67,219.607 1242.39,221.804 1237.85,221.804L1217.61,221.804L1217.61,212.103Z" style="fill-rule:nonzero;"/>
            </g>
            <g transform="matrix(1.24369,0,0,1.09471,40.6956,-62.9896)">
                <path d="M1305.03,231.43C1316.33,231.43 1322.77,223.244 1322.77,216.12C1322.77,206.95 1316.55,201.19 1302.23,201.19C1301.24,201.19 1266.53,201.72 1266.53,201.72L1266.53,212.482C1270.02,212.482 1270.47,212.331 1271.91,212.331L1271.91,241.358C1271,241.434 1270.02,241.434 1266.53,241.434L1266.53,252.044L1289.65,252.044L1289.65,241.358L1282.83,241.358L1282.83,231.657L1305.03,231.43ZM1302.91,211.8C1307.53,211.8 1309.88,213.695 1309.88,216.651C1309.88,219.682 1307.53,221.804 1302.84,221.804L1282.83,221.804L1282.83,212.103C1282.83,212.103 1301.77,211.8 1302.91,211.8Z" style="fill-rule:nonzero;"/>
            </g>
            <g transform="matrix(1.24369,0,0,1.09471,40.6956,-62.9896)">
                <path d="M1345.16,241.434L1345.16,212.482L1351.99,212.482L1351.99,201.72L1328.87,201.72L1328.87,212.482L1334.25,212.482L1334.25,241.434L1328.87,241.434L1328.87,252.12L1382.91,252.12L1382.91,234.082L1372.07,234.082L1372.07,241.434L1345.16,241.434Z" style="fill-rule:nonzero;"/>
            </g>
            <g transform="matrix(1.24369,0,0,1.09471,40.6956,-62.9896)">
                <path d="M1405.68,241.434L1405.68,231.657L1423.11,231.657L1423.11,220.592L1405.68,220.592L1405.68,212.482L1432.66,212.482L1432.66,217.788L1443.58,217.788L1443.58,201.72L1389.39,201.72L1389.39,212.482L1394.77,212.482L1394.77,241.434L1389.39,241.434L1389.39,252.12L1444.94,252.12C1444.94,252.044 1445.02,234.082 1445.02,234.082L1434.25,234.082L1434.25,241.434L1405.68,241.434Z" style="fill-rule:nonzero;"/>
            </g>
            <g transform="matrix(2.41738,0,0,2.1278,-1069.64,-380.37)">
                <path d="M1037.27,342.04C1053.17,342.04 1063.75,331.54 1063.75,315.039C1063.75,299.214 1053.02,288.564 1037.05,288.564C1021.15,288.564 1010.65,299.064 1010.65,315.564C1010.65,331.39 1021.3,342.04 1037.27,342.04ZM1054.9,315.864C1054.9,327.114 1047.92,333.94 1037.2,333.94C1026.32,333.94 1019.5,326.364 1019.5,314.814C1019.5,303.564 1026.32,296.739 1037.05,296.739C1047.92,296.739 1054.9,304.314 1054.9,315.864Z" style="fill-rule:nonzero;"/>
            </g>
            <g transform="matrix(2.41738,0,0,2.1278,-1069.64,-380.37)">
                <path d="M1109.95,299.139L1116.1,298.014C1115.95,295.239 1115.87,293.214 1115.87,290.439L1095.7,290.439L1095.7,298.014L1101.55,299.139C1098.4,308.214 1095.17,317.364 1091.95,326.439C1088.65,317.214 1085.5,307.914 1082.2,298.614L1088.95,298.014C1088.87,295.464 1088.8,292.989 1088.65,290.439L1066.6,290.439L1066.6,298.764C1069.52,298.764 1070.87,298.764 1072.22,298.839L1087.3,340.315L1094.27,340.315L1105.75,309.564C1109.57,319.839 1113.4,330.115 1117.3,340.315L1124.27,340.315C1129.22,326.514 1134.32,312.639 1139.27,298.839C1140.62,298.764 1141.97,298.764 1144.97,298.764L1144.97,290.439L1122.77,290.439C1122.77,293.139 1122.7,295.314 1122.62,298.014L1129.3,298.614C1126.07,307.914 1122.85,317.139 1119.55,326.439C1116.32,317.364 1113.1,308.214 1109.95,299.139Z" style="fill-rule:nonzero;"/>
            </g>
            <g transform="matrix(2.41738,0,0,2.1278,-1069.64,-380.37)">
                <path d="M1164.25,332.065L1164.25,298.839L1171.37,298.839L1171.37,290.439L1150.45,290.439L1150.45,298.839L1155.77,298.839L1155.77,332.065L1150.45,332.065L1150.45,340.315L1203.92,340.315L1203.92,322.839L1195.45,322.839L1195.45,332.065L1164.25,332.065Z" style="fill-rule:nonzero;"/>
            </g>
            <g transform="matrix(0.777497,0,0,0.684359,522.609,108.958)">
                <path d="M1128.41,382.197C1126.97,382.197 1098.02,382.728 1098.02,382.728L1098.02,393.49C1098.02,393.49 1102.19,393.339 1103.4,393.339L1103.4,422.593C1102.19,422.593 1098.02,422.442 1098.02,422.442L1098.02,433.204C1098.02,433.204 1125,433.658 1128.33,433.658C1143.72,433.658 1153.65,421.76 1153.65,406.45C1153.65,392.353 1143.42,382.197 1128.41,382.197ZM1114.31,393.111C1114.31,393.111 1123.1,392.884 1124.85,392.884C1135.53,392.884 1141.75,398.037 1141.75,406.829C1141.75,416.454 1135.53,423.124 1124.77,423.124C1123.03,423.124 1114.31,422.821 1114.31,422.821L1114.31,393.111Z" style="fill-rule:nonzero;"/>
            </g>
            <g transform="matrix(0.777497,0,0,0.684359,522.609,108.958)">
                <path d="M1176.8,393.49L1182.86,393.49L1182.86,382.728L1159.82,382.728L1159.82,393.49L1165.89,393.49L1165.89,422.442L1159.82,422.442L1159.82,433.128L1182.86,433.128L1182.86,422.442L1176.8,422.442L1176.8,393.49Z" style="fill-rule:nonzero;"/>
            </g>
            <g transform="matrix(0.777497,0,0,0.684359,522.609,108.958)">
                <path d="M1230.5,383.941C1227.16,382.197 1222.09,381.44 1217.08,381.44C1207.53,381.44 1192.15,384.623 1192.15,397.507C1192.15,420.32 1231.18,407.056 1231.18,417.894C1231.18,423.275 1221.33,423.578 1216.86,423.578C1212.16,423.578 1206.85,422.593 1202.84,420.016L1201.55,415.09C1198.44,415.09 1195.41,415.09 1191.77,415.166L1191.77,433.128L1202.76,433.128L1202.76,431.385C1206.7,433.583 1211.85,435.023 1218.07,435.023C1229.29,435.023 1243.23,431.082 1243.23,416.985C1243.23,395.309 1204.96,407.056 1204.96,396.446C1204.96,392.808 1210.49,391.595 1216.48,391.595C1222.24,391.595 1228.38,392.732 1230.19,393.869L1230.95,397.886L1241.03,397.886C1241.03,391.974 1240.96,387.957 1240.96,381.97L1231.56,381.97L1230.5,383.941Z" style="fill-rule:nonzero;"/>
            </g>
            <g transform="matrix(0.777497,0,0,0.684359,522.609,108.958)">
                <path d="M1289.12,412.437C1300.41,412.437 1306.86,404.252 1306.86,397.128C1306.86,387.957 1300.64,382.197 1286.32,382.197C1285.33,382.197 1250.62,382.728 1250.62,382.728L1250.62,393.49C1254.11,393.49 1254.56,393.339 1256,393.339L1256,422.366C1255.09,422.442 1254.11,422.442 1250.62,422.442L1250.62,433.052L1273.74,433.052L1273.74,422.366L1266.91,422.366L1266.91,412.665L1289.12,412.437ZM1287,392.808C1291.62,392.808 1293.97,394.703 1293.97,397.659C1293.97,400.69 1291.62,402.812 1286.92,402.812L1266.91,402.812L1266.91,393.111C1266.91,393.111 1285.86,392.808 1287,392.808Z" style="fill-rule:nonzero;"/>
            </g>
            <g transform="matrix(0.777497,0,0,0.684359,522.609,108.958)">
                <path d="M1329.25,422.442L1329.25,412.665L1346.68,412.665L1346.68,401.6L1329.25,401.6L1329.25,393.49L1356.23,393.49L1356.23,398.795L1367.15,398.795L1367.15,382.728L1312.96,382.728L1312.96,393.49L1318.34,393.49L1318.34,422.442L1312.96,422.442L1312.96,433.128L1368.51,433.128C1368.51,433.052 1368.59,415.09 1368.59,415.09L1357.82,415.09L1357.82,422.442L1329.25,422.442Z" style="fill-rule:nonzero;"/>
            </g>
            <g transform="matrix(0.777497,0,0,0.684359,522.609,108.958)">
                <path d="M1438.5,382.728L1415.46,382.728L1415.46,393.414L1422.21,393.414L1422.21,416.454L1393.86,382.728L1377.49,382.728L1377.49,393.49L1382.87,393.49L1382.87,422.442L1377.49,422.442L1377.49,433.128L1400.53,433.128L1400.53,422.442L1393.79,422.442L1393.79,399.629L1422.21,433.128L1433.12,433.128L1433.12,393.49L1438.5,393.49L1438.5,382.728Z" style="fill-rule:nonzero;"/>
            </g>
            <g transform="matrix(0.777497,0,0,0.684359,522.609,108.958)">
                <path d="M1485.08,383.941C1481.74,382.197 1476.66,381.44 1471.66,381.44C1462.11,381.44 1446.73,384.623 1446.73,397.507C1446.73,420.32 1485.76,407.056 1485.76,417.894C1485.76,423.275 1475.9,423.578 1471.43,423.578C1466.73,423.578 1461.43,422.593 1457.41,420.016L1456.12,415.09C1453.02,415.09 1449.98,415.09 1446.35,415.166L1446.35,433.128L1457.34,433.128L1457.34,431.385C1461.28,433.583 1466.43,435.023 1472.64,435.023C1483.86,435.023 1497.81,431.082 1497.81,416.985C1497.81,395.309 1459.53,407.056 1459.53,396.446C1459.53,392.808 1465.07,391.595 1471.05,391.595C1476.81,391.595 1482.95,392.732 1484.77,393.869L1485.53,397.886L1495.61,397.886C1495.61,391.974 1495.53,387.957 1495.53,381.97L1486.14,381.97L1485.08,383.941Z" style="fill-rule:nonzero;"/>
            </g>
            <g transform="matrix(0.777497,0,0,0.684359,522.609,108.958)">
                <path d="M1527.78,381.97L1508.08,422.366C1507.39,422.442 1506.64,422.442 1502.7,422.442L1502.7,433.128L1524.52,433.128C1524.6,429.566 1524.67,426.913 1524.83,423.351L1520.2,422.669L1523.08,416.909L1544.53,416.909L1547.41,422.669L1542.79,423.427C1542.94,426.989 1543.02,429.566 1543.09,433.128L1564.92,433.128L1564.92,422.442C1560.98,422.442 1560.22,422.442 1559.54,422.366L1539.83,381.97L1527.78,381.97ZM1528.01,406.299C1529.83,402.661 1531.5,398.795 1533.24,395.157L1534.38,395.157C1536.12,398.795 1537.79,402.661 1539.61,406.299L1528.01,406.299Z" style="fill-rule:nonzero;"/>
            </g>
            <g transform="matrix(0.777497,0,0,0.684359,522.609,108.958)">
                <path d="M1608.08,425.776C1609.6,431.309 1613.01,434.644 1619.07,434.644C1621.34,434.644 1624,434.113 1627.03,433.128L1627.03,422.442C1626.19,422.972 1624.91,423.427 1623.54,423.427C1621.8,423.427 1619.98,422.593 1619.3,420.168L1616.57,410.77C1623.24,409.482 1627.33,404.252 1627.33,397.128C1627.33,388.412 1620.06,382.122 1608.61,382.122C1608.01,382.122 1607.4,382.197 1570.34,382.197L1570.34,393.49C1572.54,393.49 1574.13,393.339 1575.72,393.339L1575.72,422.366C1574.81,422.442 1573.82,422.442 1570.34,422.442L1570.34,433.128L1593.45,433.128L1593.45,422.442L1586.63,422.442L1586.63,412.362L1604.6,412.362L1608.08,425.776ZM1586.63,393.111C1606.87,392.808 1607.02,392.808 1607.17,392.808C1611.49,392.808 1613.69,394.779 1613.69,397.659C1613.69,400.614 1611.42,402.812 1606.87,402.812L1586.63,402.812L1586.63,393.111Z" style="fill-rule:nonzero;"/>
            </g>
            <g transform="matrix(0.777497,0,0,0.684359,522.609,108.958)">
                <path d="M1649.65,422.442L1649.65,433.128L1672.69,433.128L1672.69,422.442L1666.63,422.442L1666.63,415.469L1685.58,393.49L1691.64,393.49L1691.64,382.728L1665.57,382.728L1665.57,392.732L1671.63,393.49L1661.17,405.616L1650.71,393.49L1656.78,392.732L1656.78,382.728L1630.7,382.728L1630.7,393.49L1636.77,393.49L1655.72,415.469L1655.72,422.442L1649.65,422.442Z" style="fill-rule:nonzero;"/>
            </g>
            <g id="soft-owl" serif:id="soft owl" transform="matrix(1.42012,0,0,1.25,-555.046,-67.5)">
                <path d="M1254.45,187.949C1247.49,180.797 1240.37,178.869 1240.37,178.869C1240.37,178.869 1238.58,172.925 1238.93,165.419C1239.28,158.075 1240.63,150.521 1242.25,150.388C1244.33,150.219 1254.72,168.765 1275.17,168.845C1295.63,168.925 1312.61,144.943 1314.24,145C1315.96,145.06 1318.2,154.171 1318.35,163.346C1318.5,172.529 1317.41,178.228 1317.41,178.228C1317.41,178.228 1324.01,188.44 1323.88,200.379C1323.76,212.319 1317.56,220.308 1317.56,220.308C1317.56,220.308 1328.68,232.484 1327.69,257.341C1326.82,279.27 1314.96,300.302 1296.07,316.153L1308.84,316.153L1320.19,303.547C1320.9,302.759 1322.12,302.695 1322.9,303.405L1325.76,305.979C1326.55,306.689 1326.62,307.906 1325.9,308.694L1319.19,316.153L1326.44,316.153C1327.15,316.153 1327.72,316.726 1327.72,317.432L1327.72,327.694C1327.72,328.4 1327.15,328.973 1326.44,328.973L1277.88,328.973C1257.14,342.035 1237.98,351.264 1227,369.357C1219.11,382.358 1219.41,394.757 1216.75,394.998C1214.51,395.202 1215.28,377.509 1215.93,369.357C1218.02,343.463 1227.82,320.28 1250.04,294.999C1253.76,290.758 1263.16,283.242 1262.29,282.016C1261.62,281.087 1251.13,287.121 1246.39,290.512C1230.91,301.57 1221.5,317.688 1212.42,337.306C1210.3,341.891 1206.51,352.076 1205.6,351.855C1204.72,351.643 1205.95,341.419 1206.62,336.665C1206.99,334.014 1207.41,331.453 1207.87,328.973L1194.39,328.973C1193.68,328.973 1193.11,328.4 1193.11,327.694L1193.11,317.432C1193.11,316.726 1193.68,316.153 1194.39,316.153L1210.88,316.153C1216.29,297.371 1225.33,283.097 1239.58,267.435C1241.43,265.404 1246.28,261.286 1245.41,260.506C1244.49,259.673 1238.68,263.136 1236.38,264.871C1224.97,273.454 1217.07,282.4 1208.81,297.563C1206.77,301.321 1203.01,309.886 1202.05,309.556C1201.04,309.207 1202.89,299.602 1203.68,294.999C1212.84,241.713 1239.57,221.534 1265.94,221.59C1283.04,221.626 1294.83,228.739 1297.29,247.206C1299.11,260.944 1293.39,274.686 1285.81,286.513C1282.06,292.368 1273.02,301.555 1273.89,302.436C1274.87,303.424 1284.6,295.453 1289.49,290.512C1300.52,279.365 1309.04,263.541 1308.7,244.683C1308.42,228.97 1302.37,222.531 1302.37,222.531C1302.37,222.531 1309.82,214.717 1309.64,201.962C1309.47,189.206 1302.67,178.228 1302.67,178.228C1302.67,178.228 1293.94,180.791 1285.57,188.095C1289.7,188.856 1292.84,192.478 1292.84,196.825C1292.84,201.724 1288.86,205.701 1283.96,205.701C1280.17,205.701 1276.93,203.319 1275.66,199.97C1271.28,206.988 1269.24,213.018 1267.56,213.038C1266.13,213.054 1265.62,207.333 1262.62,200.345C1261.26,203.495 1258.12,205.701 1254.47,205.701C1249.57,205.701 1245.6,201.724 1245.6,196.825C1245.6,191.934 1249.56,187.961 1254.45,187.949Z"/>
            </g>
        </g>
    </g>
</svg>
