<?xml version="1.0" encoding="UTF-8" standalone="no"?>
<!DOCTYPE svg PUBLIC "-//W3C//DTD SVG 1.1//EN" "http://www.w3.org/Graphics/SVG/1.1/DTD/svg11.dtd">
<svg width="100%" height="100%" viewBox="0 0 810 522" version="1.1" xmlns="http://www.w3.org/2000/svg" xmlns:xlink="http://www.w3.org/1999/xlink" xml:space="preserve" xmlns:serif="http://www.serif.com/" style="fill-rule:evenodd;clip-rule:evenodd;stroke-linejoin:round;stroke-miterlimit:2;">
    <rect x="0" y="0" width="810" height="522" fill="white"></rect>
    <g transform="matrix(1,0,0,1,0,-600)">
        <g id="logo-horizontal-primary-purple" serif:id="logo horizontal primary purple" transform="matrix(0.84375,0,0,0.966667,0,600)">
            <rect x="0" y="0" width="960" height="540" style="fill:none;"/>
            <g transform="matrix(1.18519,0,0,1.03448,-37.4092,-92.6118)">
                <path d="M303.355,477.14C302.635,477.14 288.159,477.405 288.159,477.405L288.159,482.786C288.159,482.786 290.243,482.71 290.849,482.71L290.849,497.337C290.243,497.337 288.159,497.262 288.159,497.262L288.159,502.643C288.159,502.643 301.649,502.87 303.317,502.87C311.009,502.87 315.973,496.921 315.973,489.266C315.973,482.218 310.858,477.14 303.355,477.14ZM296.306,482.596C296.306,482.596 300.702,482.483 301.573,482.483C306.917,482.483 310.024,485.06 310.024,489.455C310.024,494.268 306.917,497.603 301.536,497.603C300.664,497.603 296.306,497.451 296.306,497.451L296.306,482.596Z" style="fill:rgb(84,38,133);fill-rule:nonzero;"/>
            </g>
            <g transform="matrix(1.18519,0,0,1.03448,-37.4092,-92.6118)">
                <path d="M327.55,482.786L330.582,482.786L330.582,477.405L319.062,477.405L319.062,482.786L322.093,482.786L322.093,497.262L319.062,497.262L319.062,502.605L330.582,502.605L330.582,497.262L327.55,497.262L327.55,482.786Z" style="fill:rgb(84,38,133);fill-rule:nonzero;"/>
            </g>
            <g transform="matrix(1.18519,0,0,1.03448,-37.4092,-92.6118)">
                <path d="M354.399,478.011C352.731,477.14 350.192,476.761 347.691,476.761C342.917,476.761 335.224,478.352 335.224,484.794C335.224,496.201 354.74,489.569 354.74,494.988C354.74,497.679 349.813,497.83 347.578,497.83C345.228,497.83 342.576,497.337 340.567,496.049L339.923,493.586C338.369,493.586 336.853,493.586 335.035,493.624L335.035,502.605L340.529,502.605L340.529,501.733C342.5,502.832 345.077,503.552 348.184,503.552C353.792,503.552 360.765,501.582 360.765,494.533C360.765,483.695 341.628,489.569 341.628,484.264C341.628,482.445 344.395,481.839 347.388,481.839C350.268,481.839 353.338,482.407 354.247,482.975L354.626,484.984L359.666,484.984C359.666,482.028 359.628,480.02 359.628,477.026L354.929,477.026L354.399,478.011Z" style="fill:rgb(84,38,133);fill-rule:nonzero;"/>
            </g>
            <g transform="matrix(1.18519,0,0,1.03448,-37.4092,-92.6118)">
                <path d="M383.71,492.26C389.357,492.26 392.578,488.167 392.578,484.605C392.578,480.02 389.47,477.14 382.308,477.14C381.816,477.14 364.46,477.405 364.46,477.405L364.46,482.786C366.203,482.786 366.43,482.71 367.15,482.71L367.15,497.224C366.696,497.262 366.203,497.262 364.46,497.262L364.46,502.567L376.018,502.567L376.018,497.224L372.607,497.224L372.607,492.373L383.71,492.26ZM382.649,482.445C384.961,482.445 386.136,483.392 386.136,484.87C386.136,486.386 384.961,487.447 382.611,487.447L372.607,487.447L372.607,482.596C372.607,482.596 382.081,482.445 382.649,482.445Z" style="fill:rgb(84,38,133);fill-rule:nonzero;"/>
            </g>
            <g transform="matrix(1.18519,0,0,1.03448,-37.4092,-92.6118)">
                <path d="M403.776,497.262L403.776,492.373L412.491,492.373L412.491,486.841L403.776,486.841L403.776,482.786L417.266,482.786L417.266,485.439L422.723,485.439L422.723,477.405L395.628,477.405L395.628,482.786L398.319,482.786L398.319,497.262L395.628,497.262L395.628,502.605L423.405,502.605C423.405,502.567 423.443,493.586 423.443,493.586L418.062,493.586L418.062,497.262L403.776,497.262Z" style="fill:rgb(84,38,133);fill-rule:nonzero;"/>
            </g>
            <g transform="matrix(1.18519,0,0,1.03448,-37.4092,-92.6118)">
                <path d="M458.401,477.405L446.881,477.405L446.881,482.748L450.253,482.748L450.253,494.268L436.081,477.405L427.896,477.405L427.896,482.786L430.586,482.786L430.586,497.262L427.896,497.262L427.896,502.605L439.416,502.605L439.416,497.262L436.043,497.262L436.043,485.855L450.253,502.605L455.71,502.605L455.71,482.786L458.401,482.786L458.401,477.405Z" style="fill:rgb(84,38,133);fill-rule:nonzero;"/>
            </g>
            <g transform="matrix(1.18519,0,0,1.03448,-37.4092,-92.6118)">
                <path d="M481.687,478.011C480.02,477.14 477.481,476.761 474.98,476.761C470.205,476.761 462.512,478.352 462.512,484.794C462.512,496.201 482.028,489.569 482.028,494.988C482.028,497.679 477.102,497.83 474.866,497.83C472.517,497.83 469.864,497.337 467.856,496.049L467.211,493.586C465.658,493.586 464.142,493.586 462.323,493.624L462.323,502.605L467.818,502.605L467.818,501.733C469.788,502.832 472.365,503.552 475.472,503.552C481.081,503.552 488.053,501.582 488.053,494.533C488.053,483.695 468.917,489.569 468.917,484.264C468.917,482.445 471.683,481.839 474.677,481.839C477.557,481.839 480.626,482.407 481.536,482.975L481.915,484.984L486.955,484.984C486.955,482.028 486.917,480.02 486.917,477.026L482.218,477.026L481.687,478.011Z" style="fill:rgb(84,38,133);fill-rule:nonzero;"/>
            </g>
            <g transform="matrix(1.18519,0,0,1.03448,-37.4092,-92.6118)">
                <path d="M503.041,477.026L493.188,497.224C492.847,497.262 492.468,497.262 490.498,497.262L490.498,502.605L501.411,502.605C501.449,500.824 501.487,499.497 501.563,497.716L499.251,497.375L500.691,494.495L511.416,494.495L512.856,497.375L510.544,497.754C510.62,499.535 510.658,500.824 510.696,502.605L521.609,502.605L521.609,497.262C519.639,497.262 519.26,497.262 518.919,497.224L509.066,477.026L503.041,477.026ZM503.155,489.19C504.064,487.371 504.898,485.439 505.769,483.62L506.338,483.62C507.209,485.439 508.043,487.371 508.952,489.19L503.155,489.19Z" style="fill:rgb(84,38,133);fill-rule:nonzero;"/>
            </g>
            <g transform="matrix(1.18519,0,0,1.03448,-37.4092,-92.6118)">
                <path d="M543.19,498.929C543.948,501.695 545.653,503.363 548.685,503.363C549.822,503.363 551.148,503.097 552.664,502.605L552.664,497.262C552.247,497.527 551.603,497.754 550.921,497.754C550.049,497.754 549.14,497.337 548.799,496.125L547.435,491.426C550.769,490.782 552.816,488.167 552.816,484.605C552.816,480.247 549.178,477.102 543.456,477.102C543.152,477.102 542.849,477.14 524.319,477.14L524.319,482.786C525.418,482.786 526.213,482.71 527.009,482.71L527.009,497.224C526.555,497.262 526.062,497.262 524.319,497.262L524.319,502.605L535.877,502.605L535.877,497.262L532.466,497.262L532.466,492.222L541.447,492.222L543.19,498.929ZM532.466,482.596C542.584,482.445 542.66,482.445 542.736,482.445C544.896,482.445 545.995,483.43 545.995,484.87C545.995,486.348 544.858,487.447 542.584,487.447L532.466,487.447L532.466,482.596Z" style="fill:rgb(84,38,133);fill-rule:nonzero;"/>
            </g>
            <g transform="matrix(1.18519,0,0,1.03448,-37.4092,-92.6118)">
                <path d="M563.976,497.262L563.976,502.605L575.496,502.605L575.496,497.262L572.464,497.262L572.464,493.775L581.938,482.786L584.969,482.786L584.969,477.405L571.933,477.405L571.933,482.407L574.965,482.786L569.736,488.849L564.506,482.786L567.538,482.407L567.538,477.405L554.502,477.405L554.502,482.786L557.533,482.786L567.007,493.775L567.007,497.262L563.976,497.262Z" style="fill:rgb(84,38,133);fill-rule:nonzero;"/>
            </g>
            <g transform="matrix(1.18519,0,0,1.03448,-118.599,-28.2518)">
                <path d="M246.758,376.887C258.051,376.887 264.493,368.702 264.493,361.577C264.493,352.407 258.278,346.647 243.954,346.647C242.969,346.647 208.257,347.177 208.257,347.177L208.257,357.939C211.744,357.939 212.198,357.788 213.638,357.788L213.638,386.815C212.729,386.891 211.744,386.891 208.257,386.891L208.257,397.502L231.373,397.502L231.373,386.815L224.552,386.815L224.552,377.114L246.758,376.887ZM244.636,357.257C249.259,357.257 251.609,359.152 251.609,362.108C251.609,365.139 249.259,367.262 244.56,367.262L224.552,367.262L224.552,357.561C224.552,357.561 243.499,357.257 244.636,357.257Z" style="fill:rgb(84,38,133);fill-rule:nonzero;"/>
            </g>
            <g transform="matrix(1.18519,0,0,1.03448,-118.599,-28.2518)">
                <path d="M298.788,399.396C314.097,399.396 323.268,391.135 323.268,378.933L323.268,357.939L329.331,357.939L329.331,347.177L306.291,347.177L306.291,357.939L312.354,357.939L312.354,376.28C312.354,384.314 308.337,388.331 298.788,388.331C289.238,388.331 285.221,384.314 285.221,376.28L285.221,357.939L291.285,357.939L291.285,347.177L268.245,347.177L268.245,357.939L274.308,357.939L274.308,378.933C274.308,391.135 283.478,399.396 298.788,399.396Z" style="fill:rgb(84,38,133);fill-rule:nonzero;"/>
            </g>
            <g transform="matrix(1.18519,0,0,1.03448,-118.599,-28.2518)">
                <path d="M373.403,390.226C374.918,395.758 378.329,399.093 384.392,399.093C386.666,399.093 389.318,398.563 392.35,397.577L392.35,386.891C391.516,387.422 390.228,387.876 388.864,387.876C387.12,387.876 385.301,387.043 384.619,384.617L381.891,375.219C388.56,373.931 392.653,368.702 392.653,361.577C392.653,352.862 385.377,346.571 373.933,346.571C373.327,346.571 372.72,346.647 335.659,346.647L335.659,357.939C337.857,357.939 339.449,357.788 341.04,357.788L341.04,386.815C340.131,386.891 339.146,386.891 335.659,386.891L335.659,397.577L358.775,397.577L358.775,386.891L351.954,386.891L351.954,376.811L369.916,376.811L373.403,390.226ZM351.954,357.561C372.19,357.257 372.341,357.257 372.493,357.257C376.813,357.257 379.011,359.228 379.011,362.108C379.011,365.064 376.737,367.262 372.19,367.262L351.954,367.262L351.954,357.561Z" style="fill:rgb(84,38,133);fill-rule:nonzero;"/>
            </g>
            <g transform="matrix(1.18519,0,0,1.03448,-118.599,-28.2518)">
                <path d="M439.377,376.887C450.67,376.887 457.112,368.702 457.112,361.577C457.112,352.407 450.897,346.647 436.573,346.647C435.588,346.647 400.876,347.177 400.876,347.177L400.876,357.939C404.363,357.939 404.817,357.788 406.257,357.788L406.257,386.815C405.348,386.891 404.363,386.891 400.876,386.891L400.876,397.502L423.992,397.502L423.992,386.815L417.171,386.815L417.171,377.114L439.377,376.887ZM437.255,357.257C441.878,357.257 444.228,359.152 444.228,362.108C444.228,365.139 441.878,367.262 437.179,367.262L417.171,367.262L417.171,357.561C417.171,357.561 436.118,357.257 437.255,357.257Z" style="fill:rgb(84,38,133);fill-rule:nonzero;"/>
            </g>
            <g transform="matrix(1.18519,0,0,1.03448,-118.599,-28.2518)">
                <path d="M479.508,386.891L479.508,357.939L486.329,357.939L486.329,347.177L463.213,347.177L463.213,357.939L468.594,357.939L468.594,386.891L463.213,386.891L463.213,397.577L517.251,397.577L517.251,379.539L506.413,379.539L506.413,386.891L479.508,386.891Z" style="fill:rgb(84,38,133);fill-rule:nonzero;"/>
            </g>
            <g transform="matrix(1.18519,0,0,1.03448,-118.599,-28.2518)">
                <path d="M540.026,386.891L540.026,377.114L557.457,377.114L557.457,366.049L540.026,366.049L540.026,357.939L567.007,357.939L567.007,363.245L577.92,363.245L577.92,347.177L523.731,347.177L523.731,357.939L529.112,357.939L529.112,386.891L523.731,386.891L523.731,397.577L579.285,397.577C579.285,397.502 579.36,379.539 579.36,379.539L568.598,379.539L568.598,386.891L540.026,386.891Z" style="fill:rgb(84,38,133);fill-rule:nonzero;"/>
            </g>
            <g transform="matrix(1.18519,0,0,1.03448,-118.599,-28.2518)">
                <path d="M634.763,399.32C650.83,399.32 661.516,388.71 661.516,372.036C661.516,356.045 650.678,345.283 634.535,345.283C618.468,345.283 607.857,355.893 607.857,372.567C607.857,388.558 618.619,399.32 634.763,399.32ZM650.072,373.097C650.072,383.026 644.085,388.862 634.687,388.862C625.061,388.862 619.301,382.04 619.301,371.506C619.301,361.577 625.137,355.742 634.535,355.742C644.16,355.742 650.072,362.563 650.072,373.097Z" style="fill:rgb(84,38,133);fill-rule:nonzero;"/>
            </g>
            <g transform="matrix(1.18519,0,0,1.03448,-118.599,-28.2518)">
                <path d="M708.544,358.318L714.455,356.878C714.304,353.316 714.228,350.739 714.152,347.177L692.249,347.177C692.173,350.739 692.097,353.316 691.946,356.878L697.857,358.318L689.899,379.918L682.245,357.636L687.626,356.878L687.247,347.177L663.979,347.177L663.979,357.864C667.92,357.864 668.678,357.864 669.36,357.939L683.76,397.577L692.779,397.577L703.163,371.657L713.621,397.577L722.64,397.577L737.04,357.939C737.722,357.864 738.48,357.864 742.421,357.864L742.421,347.177L719.078,347.177C719.002,350.739 718.927,353.241 718.775,356.803L724.156,357.636L716.501,379.918L708.544,358.318Z" style="fill:rgb(84,38,133);fill-rule:nonzero;"/>
            </g>
            <g transform="matrix(1.18519,0,0,1.03448,-118.599,-28.2518)">
                <path d="M764.135,386.891L764.135,357.939L770.956,357.939L770.956,347.177L747.84,347.177L747.84,357.939L753.222,357.939L753.222,386.891L747.84,386.891L747.84,397.577L801.878,397.577L801.878,379.539L791.04,379.539L791.04,386.891L764.135,386.891Z" style="fill:rgb(84,38,133);fill-rule:nonzero;"/>
            </g>
            <g id="soft-owl" serif:id="soft owl" transform="matrix(1.18519,0,0,1.03448,-89.2755,-3.82283)">
                <path d="M475.542,146.027C469.971,140.305 464.275,138.763 464.275,138.763C464.275,138.763 462.846,134.008 463.129,128.004C463.407,122.128 464.483,116.085 465.781,115.979C467.444,115.843 475.756,130.68 492.123,130.744C508.49,130.808 522.068,111.622 523.375,111.668C524.751,111.716 526.541,119.005 526.66,126.345C526.779,133.691 525.907,138.25 525.907,138.25C525.907,138.25 531.187,146.42 531.09,155.971C530.994,165.523 526.027,171.914 526.027,171.914C526.027,171.914 534.924,181.655 534.135,201.541C533.439,219.084 523.948,235.909 508.836,248.59L519.054,248.59L528.133,238.506C528.702,237.875 529.675,237.824 530.306,238.392L532.593,240.451C533.224,241.019 533.275,241.992 532.707,242.623L527.334,248.59L533.136,248.59C533.701,248.59 534.16,249.049 534.16,249.613L534.16,257.823C534.16,258.388 533.701,258.846 533.136,258.846L494.287,258.846C477.697,269.296 462.364,276.679 453.582,291.154C447.271,301.554 447.508,311.473 445.385,311.667C443.59,311.83 444.205,297.675 444.731,291.154C446.4,270.438 454.242,251.892 472.012,231.667C474.993,228.274 482.509,222.261 481.811,221.281C481.282,220.538 472.891,225.364 469.093,228.077C456.711,236.924 449.178,249.819 441.921,265.513C440.225,269.18 437.191,277.329 436.459,277.152C435.757,276.982 436.74,268.804 437.276,265C437.576,262.879 437.909,260.83 438.28,258.846L427.491,258.846C426.927,258.846 426.468,258.388 426.468,257.823L426.468,249.613C426.468,249.049 426.927,248.59 427.491,248.59L440.684,248.59C445.012,233.565 452.244,222.146 463.647,209.616C465.126,207.991 469.006,204.697 468.313,204.072C467.572,203.406 462.928,206.177 461.083,207.565C451.956,214.431 445.637,221.588 439.032,233.718C437.395,236.724 434.386,243.577 433.623,243.313C432.816,243.033 434.297,235.349 434.93,231.667C442.255,189.039 463.638,172.895 484.736,172.94C498.413,172.969 507.849,178.659 509.812,193.433C511.272,204.423 506.694,215.417 500.634,224.879C497.634,229.562 490.402,236.912 491.097,237.616C491.877,238.407 499.664,232.03 503.576,228.077C512.401,219.16 519.216,206.5 518.945,191.414C518.72,178.844 513.882,173.693 513.882,173.693C513.882,173.693 519.838,167.442 519.698,157.237C519.558,147.033 514.122,138.25 514.122,138.25C514.122,138.25 507.139,140.301 500.442,146.144C503.745,146.753 506.251,149.65 506.251,153.128C506.251,157.047 503.069,160.229 499.15,160.229C496.116,160.229 493.524,158.323 492.508,155.644C489.007,161.258 487.371,166.082 486.034,166.098C484.891,166.111 484.474,161.534 482.08,155.944C480.989,158.464 478.479,160.229 475.56,160.229C471.641,160.229 468.459,157.047 468.459,153.128C468.459,149.215 471.631,146.037 475.542,146.027Z" style="fill:rgb(84,38,133);"/>
            </g>
        </g>
    </g>
</svg>
