<?xml version="1.0" encoding="UTF-8" standalone="no"?>
<!DOCTYPE svg PUBLIC "-//W3C//DTD SVG 1.1//EN" "http://www.w3.org/Graphics/SVG/1.1/DTD/svg11.dtd">
<svg width="100%" height="100%" viewBox="0 0 251 242" version="1.1" xmlns="http://www.w3.org/2000/svg" xmlns:xlink="http://www.w3.org/1999/xlink" xml:space="preserve" xmlns:serif="http://www.serif.com/" style="fill-rule:evenodd;clip-rule:evenodd;stroke-linejoin:round;stroke-miterlimit:2;">
    <g transform="matrix(1,0,0,1,-2608.63,-1069.58)">
        <g id="logomark" transform="matrix(0.209167,0,0,1.01211,2608.63,799.338)">
            <rect x="0" y="267.006" width="1200" height="239.104" style="fill:white;"/>
            <g id="scales" transform="matrix(2.64736,0,0,1.17237,65.0155,-43.2576)">
                <g transform="matrix(2.02247,0,0,0.786525,-648.202,264.647)">
                    <path d="M423,80L420.5,83L418,80L418.833,162L420.5,167L422.167,162L423,80Z"/>
                </g>
                <g transform="matrix(1.68539,0,0,0.786525,-505.618,267.793)">
                    <path d="M388,96C395.093,96 399.969,93.802 404.835,91.568C409.223,89.552 413.602,87.5 420,87.5L420,83.5C412.907,83.5 408.031,85.698 403.165,87.932C398.777,89.948 394.398,92 388,92L388,96Z"/>
                </g>
                <g transform="matrix(-1.68539,0,0,0.786525,910.112,267.793)">
                    <path d="M388,92C394.398,92 398.777,89.948 403.165,87.932C408.031,85.698 412.907,83.5 420,83.5L420,87.5C413.602,87.5 409.223,89.552 404.835,91.568C399.969,93.802 395.093,96 388,96L388,92Z"/>
                </g>
                <g transform="matrix(1.68539,0,0,0.786525,-505.618,270.152)">
                    <path d="M407,130C407,134.415 398.486,140 388,140C377.514,140 369,134.415 369,130L407,130Z"/>
                </g>
                <g transform="matrix(1.68539,0,0,0.786525,-1523.56,267.006)">
                    <path d="M991.98,81C996.395,81 999.98,84.585 999.98,89C999.98,93.415 996.395,97 991.98,97C987.564,97 983.98,93.415 983.98,89C983.98,84.585 987.564,81 991.98,81ZM991.98,85C994.187,85 995.98,86.792 995.98,89C995.98,91.208 994.187,93 991.98,93C989.772,93 987.98,91.208 987.98,89C987.98,86.792 989.772,85 991.98,85Z"/>
                </g>
                <g transform="matrix(1.68539,0,0,0.786525,-505.618,264.647)">
                    <path d="M373.343,137L369,137L388,102L407,137L402.657,137L388,108L373.343,137Z"/>
                </g>
                <g transform="matrix(1.68539,0,0,0.786525,-505.618,267.006)">
                    <g transform="matrix(1,0,0,1,-603.98,0)">
                        <path d="M952.43,119.55L952.43,116.047C952.43,116.047 958.852,113.128 958.852,113.128C958.852,113.128 955.933,119.55 955.933,119.55L952.43,119.55Z"/>
                    </g>
                    <g transform="matrix(1,0,0,1,-603.98,0)">
                        <path d="M947.53,119.55L944.027,119.55C944.027,119.55 941.108,113.128 941.108,113.128C941.108,113.128 947.53,116.047 947.53,116.047L947.53,119.55Z"/>
                    </g>
                    <g transform="matrix(1,0,0,1,-603.98,0)">
                        <path d="M953.017,129.656L952.518,126.106C952.518,126.106 958.611,122.233 958.611,122.233C958.611,122.233 956.567,129.157 956.567,129.157L953.017,129.656Z"/>
                    </g>
                    <g transform="matrix(1,0,0,1,-603.98,0)">
                        <path d="M948.264,130.324L944.714,130.823C944.714,130.823 940.84,124.73 940.84,124.73C940.84,124.73 947.765,126.774 947.765,126.774L948.264,130.324Z"/>
                    </g>
                    <g transform="matrix(1,0,0,1,-603.98,0)">
                        <path d="M953.245,109.554L953.721,106.167C953.721,106.167 960.328,104.217 960.328,104.217C960.328,104.217 956.633,110.03 956.633,110.03L953.245,109.554Z"/>
                    </g>
                    <g transform="matrix(1,0,0,1,-603.98,0)">
                        <path d="M948.294,108.858L944.906,108.382C944.906,108.382 942.956,101.775 942.956,101.775C942.956,101.775 948.77,105.471 948.77,105.471L948.294,108.858Z"/>
                    </g>
                    <g transform="matrix(1,0,0,1,-603.98,0)">
                        <path d="M955.451,99.601L956.371,96.392C956.371,96.392 963.021,95.404 963.021,95.404C963.021,95.404 958.66,100.521 958.66,100.521L955.451,99.601Z"/>
                    </g>
                    <g transform="matrix(1,0,0,1,-603.98,0)">
                        <path d="M950.548,98.195L947.339,97.275C947.339,97.275 946.352,90.625 946.352,90.625C946.352,90.625 951.468,94.986 951.468,94.986L950.548,98.195Z"/>
                    </g>
                    <g transform="matrix(1,0,0,1,-603.98,0)">
                        <path d="M955.028,139.471L954.017,135.946C954.017,135.946 959.638,131.155 959.638,131.155C959.638,131.155 958.553,138.46 958.553,138.46L955.028,139.471Z"/>
                    </g>
                    <g transform="matrix(1,0,0,1,-603.98,0)">
                        <path d="M950.51,140.767L946.985,141.778C946.985,141.778 942.194,136.157 942.194,136.157C942.194,136.157 949.499,137.242 949.499,137.242L950.51,140.767Z"/>
                    </g>
                    <g transform="matrix(1,0,0,1,-603.98,0)">
                        <path d="M958.356,148.889L956.831,145.464C956.831,145.464 961.84,139.813 961.84,139.813C961.84,139.813 961.782,147.364 961.782,147.364L958.356,148.889Z"/>
                    </g>
                    <g transform="matrix(1,0,0,1,-603.98,0)">
                        <path d="M954.154,150.76L950.729,152.285C950.729,152.285 945.079,147.276 945.079,147.276C945.079,147.276 952.629,147.335 952.629,147.335L954.154,150.76Z"/>
                    </g>
                    <g transform="matrix(1,0,0,1,-603.98,0)">
                        <path d="M959.02,89.973L960.344,86.998C960.344,86.998 966.902,86.948 966.902,86.948C966.902,86.948 961.994,91.298 961.994,91.298L959.02,89.973Z"/>
                    </g>
                    <g transform="matrix(1,0,0,1,-603.98,0)">
                        <path d="M954.269,87.858L951.295,86.534C951.295,86.534 951.244,79.976 951.244,79.976C951.244,79.976 955.594,84.883 955.594,84.883L954.269,87.858Z"/>
                    </g>
                    <g transform="matrix(1,0,0,1,-603.98,0)">
                        <path d="M963.816,81.639L965.498,78.947C965.498,78.947 971.835,79.788 971.835,79.788C971.835,79.788 966.508,83.321 966.508,83.321C966.508,83.321 963.816,81.639 963.816,81.639Z"/>
                    </g>
                    <g transform="matrix(1,0,0,1,-603.98,0)">
                        <path d="M959.321,78.83L956.629,77.148C956.63,77.148 957.47,70.812 957.47,70.812C957.47,70.812 961.003,76.139 961.003,76.139C961.003,76.139 959.321,78.83 959.321,78.83Z"/>
                    </g>
                    <g transform="matrix(1,0,0,1,-603.98,0)">
                        <path d="M963.098,157.076L961.067,153.827C961.067,153.827 965.332,147.396 965.332,147.396C965.332,147.396 966.347,155.046 966.347,155.046L963.098,157.076Z"/>
                    </g>
                    <g transform="matrix(1,0,0,1,-603.98,0)">
                        <path d="M959.281,159.461L956.032,161.491C956.032,161.491 949.601,157.226 949.601,157.226C949.601,157.226 957.251,156.211 957.251,156.211L959.281,159.461Z"/>
                    </g>
                    <g transform="matrix(1,0,0,1,-603.98,0)">
                        <path d="M968.807,165.948L966.294,162.948C966.294,162.948 969.701,155.84 969.701,155.84C969.701,155.84 971.808,163.435 971.808,163.435L968.807,165.948Z"/>
                    </g>
                    <g transform="matrix(1,0,0,1,-603.98,0)">
                        <path d="M965.434,168.774L962.433,171.287C962.433,171.287 955.326,167.88 955.326,167.88C955.326,167.88 962.921,165.773 962.921,165.773L965.434,168.774Z"/>
                    </g>
                    <g transform="matrix(1,0,0,1,-603.98,0)">
                        <path d="M969.811,73.633L971.798,71.264C971.798,71.264 977.797,72.934 977.797,72.934C977.797,72.934 972.179,75.62 972.179,75.62L969.811,73.633Z"/>
                    </g>
                    <g transform="matrix(1,0,0,1,-603.98,0)">
                        <path d="M965.674,70.162L963.306,68.175C963.306,68.175 964.975,62.176 964.975,62.176C964.975,62.176 967.661,67.793 967.661,67.793L965.674,70.162Z"/>
                    </g>
                    <g transform="matrix(1,0,0,1,-603.98,0)">
                        <path d="M975.791,173.295L972.822,170.621C972.822,170.621 975.249,162.948 975.249,162.948C975.249,162.948 978.465,170.325 978.465,170.325L975.791,173.295Z"/>
                    </g>
                    <g transform="matrix(1,0,0,1,-603.98,0)">
                        <path d="M972.914,176.49L970.24,179.46C970.24,179.46 962.567,177.032 962.567,177.032C962.567,177.032 969.944,173.816 969.944,173.816L972.914,176.49Z"/>
                    </g>
                    <g transform="matrix(1,0,0,1,-603.98,0)">
                        <path d="M976.862,66.549L979.098,64.535C979.098,64.535 984.654,66.957 984.654,66.957C984.654,66.957 978.875,68.786 978.875,68.786L976.862,66.549Z"/>
                    </g>
                    <g transform="matrix(1,0,0,1,-603.98,0)">
                        <path d="M973.181,62.462L971.167,60.225C971.167,60.225 973.59,54.669 973.59,54.669C973.59,54.669 975.418,60.448 975.418,60.448L973.181,62.462Z"/>
                    </g>
                    <g transform="matrix(1,0,0,1,-603.98,0)">
                        <path d="M983.691,179.552L980.31,177.271C980.31,177.271 981.673,169.172 981.673,169.172C981.673,169.172 985.971,176.171 985.971,176.171C985.971,176.171 983.691,179.552 983.691,179.552Z"/>
                    </g>
                    <g transform="matrix(1,0,0,1,-603.98,0)">
                        <path d="M981.342,183.034L979.062,186.415C979.062,186.415 970.963,185.051 970.963,185.051C970.963,185.051 977.961,180.753 977.961,180.753C977.961,180.753 981.342,183.034 981.342,183.034Z"/>
                    </g>
                    <g transform="matrix(1,0,0,1,-603.98,0)">
                        <path d="M984.828,60.525L987.255,58.888C987.255,58.888 992.279,61.973 992.279,61.973C992.279,61.973 986.465,62.952 986.465,62.952L984.828,60.525Z"/>
                    </g>
                    <g transform="matrix(1,0,0,1,-603.98,0)">
                        <path d="M981.697,55.883L980.06,53.456C980.06,53.456 983.145,48.432 983.145,48.432C983.145,48.432 984.124,54.246 984.124,54.246L981.697,55.883Z"/>
                    </g>
                    <g transform="matrix(1,0,0,1,-603.98,0)">
                        <path d="M992.394,184.646L988.655,182.822C988.655,182.822 988.882,174.447 988.882,174.447C988.882,174.447 994.218,180.907 994.218,180.907L992.394,184.646Z"/>
                    </g>
                    <g transform="matrix(1,0,0,1,-603.98,0)">
                        <path d="M990.597,188.331L988.773,192.071C988.773,192.071 980.397,191.843 980.397,191.843C980.397,191.843 986.857,186.508 986.857,186.508L990.597,188.331Z"/>
                    </g>
                    <g transform="matrix(-0.45399,-0.891007,0.891007,-0.45399,448.365,552.134)">
                        <path d="M347,120L350,117L358,120L350,123L347,120Z"/>
                    </g>
                    <g transform="matrix(-0.891007,0.45399,0.45399,0.891007,651.215,-72.1752)">
                        <path d="M347,120L350,117L358,120L350,123L347,120Z"/>
                    </g>
                    <g transform="matrix(1,0,0,1,-603.98,0)">
                        <path d="M990.037,54.278L991.524,50.227C991.524,50.227 1000.25,49.41 1000.25,49.41C1000.25,49.41 994.12,55.674 994.12,55.674L990.037,54.278Z"/>
                    </g>
                </g>
                <g transform="matrix(-1.68539,0,0,0.786525,909.982,267.006)">
                    <g transform="matrix(1,0,0,1,-603.98,0)">
                        <path d="M952.43,119.55L952.43,116.047C952.43,116.047 958.852,113.128 958.852,113.128C958.852,113.128 955.933,119.55 955.933,119.55L952.43,119.55Z"/>
                    </g>
                    <g transform="matrix(1,0,0,1,-603.98,0)">
                        <path d="M947.53,119.55L944.027,119.55C944.027,119.55 941.108,113.128 941.108,113.128C941.108,113.128 947.53,116.047 947.53,116.047L947.53,119.55Z"/>
                    </g>
                    <g transform="matrix(1,0,0,1,-603.98,0)">
                        <path d="M953.017,129.656L952.518,126.106C952.518,126.106 958.611,122.233 958.611,122.233C958.611,122.233 956.567,129.157 956.567,129.157L953.017,129.656Z"/>
                    </g>
                    <g transform="matrix(1,0,0,1,-603.98,0)">
                        <path d="M948.264,130.324L944.714,130.823C944.714,130.823 940.84,124.73 940.84,124.73C940.84,124.73 947.765,126.774 947.765,126.774L948.264,130.324Z"/>
                    </g>
                    <g transform="matrix(1,0,0,1,-603.98,0)">
                        <path d="M953.245,109.554L953.721,106.167C953.721,106.167 960.328,104.217 960.328,104.217C960.328,104.217 956.633,110.03 956.633,110.03L953.245,109.554Z"/>
                    </g>
                    <g transform="matrix(1,0,0,1,-603.98,0)">
                        <path d="M948.294,108.858L944.906,108.382C944.906,108.382 942.956,101.775 942.956,101.775C942.956,101.775 948.77,105.471 948.77,105.471L948.294,108.858Z"/>
                    </g>
                    <g transform="matrix(1,0,0,1,-603.98,0)">
                        <path d="M955.451,99.601L956.371,96.392C956.371,96.392 963.021,95.404 963.021,95.404C963.021,95.404 958.66,100.521 958.66,100.521L955.451,99.601Z"/>
                    </g>
                    <g transform="matrix(1,0,0,1,-603.98,0)">
                        <path d="M950.548,98.195L947.339,97.275C947.339,97.275 946.352,90.625 946.352,90.625C946.352,90.625 951.468,94.986 951.468,94.986L950.548,98.195Z"/>
                    </g>
                    <g transform="matrix(1,0,0,1,-603.98,0)">
                        <path d="M955.028,139.471L954.017,135.946C954.017,135.946 959.638,131.155 959.638,131.155C959.638,131.155 958.553,138.46 958.553,138.46L955.028,139.471Z"/>
                    </g>
                    <g transform="matrix(1,0,0,1,-603.98,0)">
                        <path d="M950.51,140.767L946.985,141.778C946.985,141.778 942.194,136.157 942.194,136.157C942.194,136.157 949.499,137.242 949.499,137.242L950.51,140.767Z"/>
                    </g>
                    <g transform="matrix(1,0,0,1,-603.98,0)">
                        <path d="M958.356,148.889L956.831,145.464C956.831,145.464 961.84,139.813 961.84,139.813C961.84,139.813 961.782,147.364 961.782,147.364L958.356,148.889Z"/>
                    </g>
                    <g transform="matrix(1,0,0,1,-603.98,0)">
                        <path d="M954.154,150.76L950.729,152.285C950.729,152.285 945.079,147.276 945.079,147.276C945.079,147.276 952.629,147.335 952.629,147.335L954.154,150.76Z"/>
                    </g>
                    <g transform="matrix(1,0,0,1,-603.98,0)">
                        <path d="M959.02,89.973L960.344,86.998C960.344,86.998 966.902,86.948 966.902,86.948C966.902,86.948 961.994,91.298 961.994,91.298L959.02,89.973Z"/>
                    </g>
                    <g transform="matrix(1,0,0,1,-603.98,0)">
                        <path d="M954.269,87.858L951.295,86.534C951.295,86.534 951.244,79.976 951.244,79.976C951.244,79.976 955.594,84.883 955.594,84.883L954.269,87.858Z"/>
                    </g>
                    <g transform="matrix(1,0,0,1,-603.98,0)">
                        <path d="M963.816,81.639L965.498,78.947C965.498,78.947 971.835,79.788 971.835,79.788C971.835,79.788 966.508,83.321 966.508,83.321C966.508,83.321 963.816,81.639 963.816,81.639Z"/>
                    </g>
                    <g transform="matrix(1,0,0,1,-603.98,0)">
                        <path d="M959.321,78.83L956.629,77.148C956.63,77.148 957.47,70.812 957.47,70.812C957.47,70.812 961.003,76.139 961.003,76.139C961.003,76.139 959.321,78.83 959.321,78.83Z"/>
                    </g>
                    <g transform="matrix(1,0,0,1,-603.98,0)">
                        <path d="M963.098,157.076L961.067,153.827C961.067,153.827 965.332,147.396 965.332,147.396C965.332,147.396 966.347,155.046 966.347,155.046L963.098,157.076Z"/>
                    </g>
                    <g transform="matrix(1,0,0,1,-603.98,0)">
                        <path d="M959.281,159.461L956.032,161.491C956.032,161.491 949.601,157.226 949.601,157.226C949.601,157.226 957.251,156.211 957.251,156.211L959.281,159.461Z"/>
                    </g>
                    <g transform="matrix(1,0,0,1,-603.98,0)">
                        <path d="M968.807,165.948L966.294,162.948C966.294,162.948 969.701,155.84 969.701,155.84C969.701,155.84 971.808,163.435 971.808,163.435L968.807,165.948Z"/>
                    </g>
                    <g transform="matrix(1,0,0,1,-603.98,0)">
                        <path d="M965.434,168.774L962.433,171.287C962.433,171.287 955.326,167.88 955.326,167.88C955.326,167.88 962.921,165.773 962.921,165.773L965.434,168.774Z"/>
                    </g>
                    <g transform="matrix(1,0,0,1,-603.98,0)">
                        <path d="M969.811,73.633L971.798,71.264C971.798,71.264 977.797,72.934 977.797,72.934C977.797,72.934 972.179,75.62 972.179,75.62L969.811,73.633Z"/>
                    </g>
                    <g transform="matrix(1,0,0,1,-603.98,0)">
                        <path d="M965.674,70.162L963.306,68.175C963.306,68.175 964.975,62.176 964.975,62.176C964.975,62.176 967.661,67.793 967.661,67.793L965.674,70.162Z"/>
                    </g>
                    <g transform="matrix(1,0,0,1,-603.98,0)">
                        <path d="M975.791,173.295L972.822,170.621C972.822,170.621 975.249,162.948 975.249,162.948C975.249,162.948 978.465,170.325 978.465,170.325L975.791,173.295Z"/>
                    </g>
                    <g transform="matrix(1,0,0,1,-603.98,0)">
                        <path d="M972.914,176.49L970.24,179.46C970.24,179.46 962.567,177.032 962.567,177.032C962.567,177.032 969.944,173.816 969.944,173.816L972.914,176.49Z"/>
                    </g>
                    <g transform="matrix(1,0,0,1,-603.98,0)">
                        <path d="M976.862,66.549L979.098,64.535C979.098,64.535 984.654,66.957 984.654,66.957C984.654,66.957 978.875,68.786 978.875,68.786L976.862,66.549Z"/>
                    </g>
                    <g transform="matrix(1,0,0,1,-603.98,0)">
                        <path d="M973.181,62.462L971.167,60.225C971.167,60.225 973.59,54.669 973.59,54.669C973.59,54.669 975.418,60.448 975.418,60.448L973.181,62.462Z"/>
                    </g>
                    <g transform="matrix(1,0,0,1,-603.98,0)">
                        <path d="M983.691,179.552L980.31,177.271C980.31,177.271 981.673,169.172 981.673,169.172C981.673,169.172 985.971,176.171 985.971,176.171C985.971,176.171 983.691,179.552 983.691,179.552Z"/>
                    </g>
                    <g transform="matrix(1,0,0,1,-603.98,0)">
                        <path d="M981.342,183.034L979.062,186.415C979.062,186.415 970.963,185.051 970.963,185.051C970.963,185.051 977.961,180.753 977.961,180.753C977.961,180.753 981.342,183.034 981.342,183.034Z"/>
                    </g>
                    <g transform="matrix(1,0,0,1,-603.98,0)">
                        <path d="M984.828,60.525L987.255,58.888C987.255,58.888 992.279,61.973 992.279,61.973C992.279,61.973 986.465,62.952 986.465,62.952L984.828,60.525Z"/>
                    </g>
                    <g transform="matrix(1,0,0,1,-603.98,0)">
                        <path d="M981.697,55.883L980.06,53.456C980.06,53.456 983.145,48.432 983.145,48.432C983.145,48.432 984.124,54.246 984.124,54.246L981.697,55.883Z"/>
                    </g>
                    <g transform="matrix(1,0,0,1,-603.98,0)">
                        <path d="M992.394,184.646L988.655,182.822C988.655,182.822 988.882,174.447 988.882,174.447C988.882,174.447 994.218,180.907 994.218,180.907L992.394,184.646Z"/>
                    </g>
                    <g transform="matrix(1,0,0,1,-603.98,0)">
                        <path d="M990.597,188.331L988.773,192.071C988.773,192.071 980.397,191.843 980.397,191.843C980.397,191.843 986.857,186.508 986.857,186.508L990.597,188.331Z"/>
                    </g>
                    <g transform="matrix(-0.45399,-0.891007,0.891007,-0.45399,448.365,552.134)">
                        <path d="M347,120L350,117L358,120L350,123L347,120Z"/>
                    </g>
                    <g transform="matrix(-0.891007,0.45399,0.45399,0.891007,651.215,-72.1752)">
                        <path d="M347,120L350,117L358,120L350,123L347,120Z"/>
                    </g>
                    <g transform="matrix(1,0,0,1,-603.98,0)">
                        <path d="M990.037,54.278L991.524,50.227C991.524,50.227 1000.25,49.41 1000.25,49.41C1000.25,49.41 994.12,55.674 994.12,55.674L990.037,54.278Z"/>
                    </g>
                </g>
                <g transform="matrix(1.68539,0,0,0.786525,-1523.56,267.006)">
                    <path d="M1055.98,81C1060.39,81 1063.98,84.585 1063.98,89C1063.98,93.415 1060.39,97 1055.98,97C1051.56,97 1047.98,93.415 1047.98,89C1047.98,84.585 1051.56,81 1055.98,81ZM1055.98,85C1058.19,85 1059.98,86.792 1059.98,89C1059.98,91.208 1058.19,93 1055.98,93C1053.77,93 1051.98,91.208 1051.98,89C1051.98,86.792 1053.77,85 1055.98,85Z"/>
                </g>
                <g transform="matrix(1.68539,0,0,0.786525,-397.753,270.152)">
                    <path d="M407,130C407,134.415 398.486,140 388,140C377.514,140 369,134.415 369,130L407,130Z"/>
                </g>
                <g transform="matrix(1.68539,0,0,0.786525,-397.753,264.647)">
                    <path d="M373.343,137L369,137L388,102L407,137L402.657,137L388,108L373.343,137Z"/>
                </g>
                <g transform="matrix(2.10674,0,0,0.983156,-682.584,273.102)">
                    <path d="M420,53L416,49L420,45L424,49L420,53Z"/>
                </g>
                <g transform="matrix(1.38244,0,0,0.645146,-406.032,277.923)">
                    <g transform="matrix(1.12275,-1.12276,-0.950022,-0.950022,170.553,720.867)">
                        <path d="M344.323,121.195L350,117L355.773,119.474L350,123L344.323,121.195Z"/>
                    </g>
                    <g transform="matrix(-1.12275,-1.12276,0.950022,-0.950022,709.343,720.867)">
                        <path d="M344.273,121.254L350,117L355.773,119.474L350,123L344.273,121.254Z"/>
                    </g>
                    <g transform="matrix(1.6412e-16,-2.07637,1.34353,6.65233e-16,278.78,934.953)">
                        <path d="M344.744,120L349.518,117L357.518,120L349.518,123L344.744,120Z"/>
                    </g>
                    <g transform="matrix(-1.29775,-0.347733,0.347731,-1.29775,838.576,501.92)">
                        <path d="M342.606,123.789L348.934,119.379L354.626,119.76L350,123L342.606,123.789Z"/>
                    </g>
                    <g transform="matrix(1.29775,-0.347733,-0.347731,-1.29775,42.5951,501.92)">
                        <path d="M341.769,124.013L348.097,119.604L353.789,119.985L349.163,123.224L341.769,124.013Z"/>
                    </g>
                    <g transform="matrix(-0.935643,0.785097,-0.863607,-1.02921,865.581,80.9108)">
                        <path d="M342.921,122.424L346.748,120.253L351.167,121.538L347.369,123.366L342.921,122.424Z"/>
                    </g>
                    <g transform="matrix(0.935643,0.785097,0.863607,-1.02921,14.4257,80.9108)">
                        <path d="M342.921,122.424L346.748,120.253L351.167,121.538L347.369,123.366L342.921,122.424Z"/>
                    </g>
                </g>
            </g>
        </g>
    </g>
</svg>
