<?xml version="1.0" encoding="UTF-8" standalone="no"?>
<!DOCTYPE svg PUBLIC "-//W3C//DTD SVG 1.1//EN" "http://www.w3.org/Graphics/SVG/1.1/DTD/svg11.dtd">
<svg width="100%" height="100%" viewBox="0 0 1165 266" version="1.1" xmlns="http://www.w3.org/2000/svg" xmlns:xlink="http://www.w3.org/1999/xlink" xml:space="preserve" xmlns:serif="http://www.serif.com/" style="fill-rule:evenodd;clip-rule:evenodd;stroke-linejoin:round;stroke-miterlimit:2;">
    <rect id="horizontal-full-black" serif:id="horizontal full black" x="0" y="0" width="1165" height="266" style="fill:white;"/>
    <g transform="matrix(1,0,0,1,-27.8017,16.453)">
        <g transform="matrix(64,0,0,64,284.818,99.3081)">
            <path d="M0.034,0.199C0.166,0.166 0.2,0.096 0.2,-0.018L0.2,-0.602C0.2,-0.698 0.212,-0.71 0.254,-0.718L0.254,-0.728C0.233,-0.727 0.183,-0.726 0.147,-0.726C0.111,-0.726 0.061,-0.727 0.039,-0.728L0.039,-0.718C0.081,-0.711 0.096,-0.698 0.096,-0.602L0.096,0.029C0.096,0.144 0.09,0.167 0.031,0.19L0.034,0.199Z" style="fill-rule:nonzero;"/>
        </g>
        <g transform="matrix(64,0,0,64,301.714,99.3081)">
            <path d="M0.44,-0.094C0.397,-0.053 0.357,-0.039 0.314,-0.039C0.207,-0.039 0.131,-0.126 0.131,-0.267C0.131,-0.283 0.132,-0.292 0.132,-0.292L0.445,-0.292C0.445,-0.42 0.351,-0.48 0.256,-0.48C0.133,-0.48 0.029,-0.38 0.029,-0.236C0.029,-0.096 0.126,0.01 0.266,0.01C0.346,0.01 0.403,-0.024 0.447,-0.085L0.44,-0.094ZM0.135,-0.318C0.147,-0.397 0.189,-0.46 0.252,-0.46C0.306,-0.46 0.341,-0.413 0.343,-0.318L0.135,-0.318Z" style="fill-rule:nonzero;"/>
        </g>
        <g transform="matrix(64,0,0,64,331.986,99.3081)">
            <path d="M0.211,-0.008C0.181,-0.014 0.168,-0.019 0.168,-0.099L0.168,-0.429C0.198,-0.429 0.228,-0.429 0.258,-0.427L0.258,-0.477C0.258,-0.477 0.239,-0.475 0.214,-0.475L0.168,-0.475L0.168,-0.506C0.168,-0.581 0.139,-0.617 0.139,-0.662C0.139,-0.69 0.15,-0.718 0.181,-0.718C0.212,-0.718 0.235,-0.689 0.251,-0.667L0.311,-0.724C0.296,-0.751 0.273,-0.766 0.235,-0.766C0.189,-0.766 0.147,-0.744 0.118,-0.706C0.078,-0.653 0.074,-0.583 0.074,-0.475L0.036,-0.437L0.036,-0.429L0.074,-0.429L0.074,-0.099C0.074,-0.019 0.061,-0.014 0.031,-0.008L0.031,0.002C0.049,0.001 0.07,-0 0.101,-0L0.136,-0C0.163,-0 0.192,0.001 0.211,0.002L0.211,-0.008ZM0.478,-0.008C0.448,-0.014 0.435,-0.019 0.435,-0.099L0.435,-0.429C0.465,-0.429 0.495,-0.429 0.525,-0.427L0.525,-0.477C0.525,-0.477 0.506,-0.475 0.481,-0.475L0.435,-0.475L0.435,-0.506C0.435,-0.581 0.406,-0.617 0.406,-0.662C0.406,-0.69 0.417,-0.718 0.448,-0.718C0.479,-0.718 0.502,-0.689 0.518,-0.667L0.578,-0.724C0.563,-0.751 0.54,-0.766 0.502,-0.766C0.456,-0.766 0.414,-0.744 0.385,-0.706C0.345,-0.653 0.341,-0.583 0.341,-0.475L0.303,-0.437L0.303,-0.429L0.341,-0.429L0.341,-0.099C0.341,-0.019 0.328,-0.014 0.298,-0.008L0.298,0.002C0.316,0.001 0.337,-0 0.368,-0L0.403,-0C0.43,-0 0.459,0.001 0.478,0.002L0.478,-0.008Z" style="fill-rule:nonzero;"/>
        </g>
        <g transform="matrix(64,0,0,64,366.162,99.3081)">
            <path d="M0.209,-0.008C0.179,-0.014 0.166,-0.019 0.166,-0.099L0.166,-0.388C0.19,-0.415 0.209,-0.423 0.227,-0.423C0.251,-0.423 0.267,-0.409 0.267,-0.368L0.359,-0.368C0.359,-0.446 0.331,-0.48 0.281,-0.48C0.235,-0.48 0.202,-0.45 0.166,-0.416L0.166,-0.48C0.132,-0.464 0.085,-0.454 0.041,-0.453L0.041,-0.443C0.071,-0.435 0.072,-0.42 0.072,-0.371L0.072,-0.099C0.072,-0.019 0.059,-0.014 0.029,-0.008L0.029,0.002C0.051,0.001 0.082,-0 0.119,-0C0.156,-0 0.187,0.001 0.209,0.002L0.209,-0.008Z" style="fill-rule:nonzero;"/>
        </g>
        <g transform="matrix(64,0,0,64,389.01,99.3081)">
            <path d="M0.44,-0.094C0.397,-0.053 0.357,-0.039 0.314,-0.039C0.207,-0.039 0.131,-0.126 0.131,-0.267C0.131,-0.283 0.132,-0.292 0.132,-0.292L0.445,-0.292C0.445,-0.42 0.351,-0.48 0.256,-0.48C0.133,-0.48 0.029,-0.38 0.029,-0.236C0.029,-0.096 0.126,0.01 0.266,0.01C0.346,0.01 0.403,-0.024 0.447,-0.085L0.44,-0.094ZM0.135,-0.318C0.147,-0.397 0.189,-0.46 0.252,-0.46C0.306,-0.46 0.341,-0.413 0.343,-0.318L0.135,-0.318Z" style="fill-rule:nonzero;"/>
        </g>
        <g transform="matrix(64,0,0,64,418.578,99.3081)">
            <path d="M0.261,0.216C0.234,0.211 0.219,0.2 0.219,0.17C0.219,0.145 0.23,0.118 0.269,0.023L0.412,-0.326C0.454,-0.428 0.471,-0.454 0.509,-0.466L0.509,-0.476C0.497,-0.476 0.477,-0.475 0.439,-0.475C0.4,-0.475 0.366,-0.476 0.35,-0.476L0.35,-0.466C0.38,-0.459 0.394,-0.45 0.394,-0.414C0.394,-0.387 0.386,-0.36 0.328,-0.218L0.285,-0.112L0.192,-0.326C0.179,-0.356 0.153,-0.408 0.153,-0.434C0.153,-0.452 0.165,-0.461 0.192,-0.466L0.192,-0.476C0.178,-0.476 0.115,-0.475 0.078,-0.475C0.041,-0.475 0.005,-0.476 -0.009,-0.476L-0.009,-0.466C0.016,-0.459 0.033,-0.446 0.049,-0.409L0.233,0.019C0.16,0.185 0.137,0.208 0.085,0.216L0.085,0.226C0.106,0.225 0.128,0.225 0.13,0.225C0.251,0.225 0.223,0.226 0.261,0.226L0.261,0.216Z" style="fill-rule:nonzero;"/>
        </g>
        <g transform="matrix(64,0,0,64,466.578,99.3081)">
            <path d="M0.696,-0.008C0.65,-0.015 0.646,-0.028 0.646,-0.146L0.646,-0.579C0.646,-0.697 0.65,-0.71 0.696,-0.718L0.696,-0.728C0.675,-0.726 0.629,-0.726 0.594,-0.726C0.557,-0.726 0.514,-0.727 0.492,-0.728L0.492,-0.718C0.538,-0.71 0.542,-0.698 0.542,-0.579L0.542,-0.408C0.481,-0.407 0.419,-0.407 0.358,-0.407C0.305,-0.407 0.253,-0.407 0.201,-0.408L0.201,-0.579C0.201,-0.697 0.205,-0.71 0.251,-0.718L0.251,-0.728C0.23,-0.727 0.185,-0.726 0.149,-0.726C0.112,-0.726 0.069,-0.727 0.047,-0.728L0.047,-0.718C0.093,-0.71 0.097,-0.698 0.097,-0.579L0.097,-0.146C0.097,-0.028 0.093,-0.015 0.047,-0.008L0.047,0.002C0.069,0.001 0.113,-0 0.149,-0C0.185,-0 0.23,0.001 0.251,0.002L0.251,-0.008C0.205,-0.015 0.201,-0.028 0.201,-0.144L0.201,-0.371C0.255,-0.372 0.31,-0.372 0.365,-0.372C0.424,-0.372 0.483,-0.372 0.542,-0.371L0.542,-0.164C0.542,-0.029 0.54,-0.016 0.492,-0.008L0.492,0.002C0.514,0.001 0.557,-0 0.594,-0C0.63,-0 0.675,0.001 0.696,0.002L0.696,-0.008Z" style="fill-rule:nonzero;"/>
        </g>
        <g transform="matrix(64,0,0,64,514.194,99.3081)">
            <path d="M0.521,-0.236C0.521,-0.379 0.409,-0.48 0.275,-0.48C0.142,-0.48 0.028,-0.381 0.028,-0.233C0.028,-0.087 0.138,0.006 0.273,0.006C0.415,0.006 0.521,-0.096 0.521,-0.236ZM0.273,-0.014C0.163,-0.014 0.139,-0.105 0.139,-0.234C0.139,-0.355 0.16,-0.46 0.275,-0.46C0.382,-0.46 0.41,-0.369 0.41,-0.233C0.41,-0.113 0.388,-0.014 0.273,-0.014Z" style="fill-rule:nonzero;"/>
        </g>
        <g transform="matrix(64,0,0,64,549.074,99.3081)">
            <path d="M0.211,-0.008C0.181,-0.014 0.168,-0.019 0.168,-0.099L0.168,-0.429C0.198,-0.429 0.228,-0.429 0.258,-0.427L0.258,-0.477C0.258,-0.477 0.239,-0.475 0.214,-0.475L0.168,-0.475L0.168,-0.506C0.168,-0.581 0.139,-0.617 0.139,-0.662C0.139,-0.69 0.15,-0.718 0.181,-0.718C0.212,-0.718 0.235,-0.689 0.251,-0.667L0.311,-0.724C0.296,-0.751 0.273,-0.766 0.235,-0.766C0.189,-0.766 0.147,-0.744 0.118,-0.706C0.078,-0.653 0.074,-0.583 0.074,-0.475L0.036,-0.437L0.036,-0.429L0.074,-0.429L0.074,-0.099C0.074,-0.019 0.061,-0.014 0.031,-0.008L0.031,0.002C0.049,0.001 0.07,-0 0.101,-0L0.136,-0C0.163,-0 0.192,0.001 0.211,0.002L0.211,-0.008ZM0.478,-0.008C0.448,-0.014 0.435,-0.019 0.435,-0.099L0.435,-0.429C0.465,-0.429 0.495,-0.429 0.525,-0.427L0.525,-0.477C0.525,-0.477 0.506,-0.475 0.481,-0.475L0.435,-0.475L0.435,-0.506C0.435,-0.581 0.406,-0.617 0.406,-0.662C0.406,-0.69 0.417,-0.718 0.448,-0.718C0.479,-0.718 0.502,-0.689 0.518,-0.667L0.578,-0.724C0.563,-0.751 0.54,-0.766 0.502,-0.766C0.456,-0.766 0.414,-0.744 0.385,-0.706C0.345,-0.653 0.341,-0.583 0.341,-0.475L0.303,-0.437L0.303,-0.429L0.341,-0.429L0.341,-0.099C0.341,-0.019 0.328,-0.014 0.298,-0.008L0.298,0.002C0.316,0.001 0.337,-0 0.368,-0L0.403,-0C0.43,-0 0.459,0.001 0.478,0.002L0.478,-0.008Z" style="fill-rule:nonzero;"/>
        </g>
        <g transform="matrix(64,0,0,64,583.25,99.3081)">
            <path d="M0.803,-0.008C0.773,-0.014 0.76,-0.019 0.76,-0.099L0.76,-0.309C0.76,-0.449 0.682,-0.48 0.61,-0.48C0.562,-0.48 0.502,-0.466 0.439,-0.419C0.411,-0.467 0.362,-0.48 0.314,-0.48C0.266,-0.48 0.215,-0.467 0.166,-0.431L0.166,-0.48C0.132,-0.464 0.085,-0.454 0.041,-0.453L0.041,-0.443C0.071,-0.435 0.072,-0.42 0.072,-0.371L0.072,-0.099C0.072,-0.019 0.059,-0.014 0.029,-0.008L0.029,0.002C0.051,0.001 0.082,-0 0.119,-0C0.156,-0 0.187,0.001 0.209,0.002L0.209,-0.008C0.179,-0.014 0.166,-0.019 0.166,-0.099L0.166,-0.406C0.199,-0.433 0.235,-0.448 0.275,-0.448C0.33,-0.448 0.368,-0.42 0.368,-0.309L0.368,-0.099C0.368,-0.019 0.355,-0.014 0.325,-0.008L0.325,0.002C0.347,0.001 0.378,-0 0.415,-0C0.452,-0 0.483,0.001 0.505,0.002L0.505,-0.008C0.475,-0.014 0.462,-0.019 0.462,-0.099L0.462,-0.312C0.462,-0.349 0.457,-0.378 0.447,-0.401C0.49,-0.433 0.531,-0.448 0.57,-0.448C0.627,-0.448 0.666,-0.417 0.666,-0.307L0.666,-0.099C0.666,-0.019 0.653,-0.014 0.623,-0.008L0.623,0.002C0.645,0.001 0.676,-0 0.713,-0C0.75,-0 0.781,0.001 0.803,0.002L0.803,-0.008Z" style="fill-rule:nonzero;"/>
        </g>
        <g transform="matrix(64,0,0,64,635.858,99.3081)">
            <path d="M0.446,-0.05C0.436,-0.042 0.429,-0.04 0.421,-0.04C0.401,-0.04 0.394,-0.053 0.394,-0.097L0.394,-0.307C0.394,-0.436 0.331,-0.48 0.234,-0.48C0.139,-0.48 0.059,-0.438 0.043,-0.331L0.129,-0.331C0.13,-0.417 0.167,-0.457 0.224,-0.457C0.275,-0.457 0.3,-0.425 0.3,-0.348L0.3,-0.204C0.272,-0.221 0.233,-0.23 0.194,-0.23C0.099,-0.23 0.024,-0.178 0.024,-0.102C0.024,-0.036 0.08,0.01 0.161,0.01C0.214,0.01 0.263,-0.01 0.304,-0.045C0.308,-0.007 0.331,0.007 0.363,0.007C0.401,0.007 0.433,-0.012 0.451,-0.041L0.446,-0.05ZM0.208,-0.026C0.157,-0.026 0.126,-0.059 0.126,-0.113C0.126,-0.168 0.159,-0.205 0.22,-0.205C0.249,-0.205 0.28,-0.197 0.3,-0.182L0.3,-0.065C0.268,-0.036 0.236,-0.026 0.208,-0.026Z" style="fill-rule:nonzero;"/>
        </g>
        <g transform="matrix(64,0,0,64,665.426,99.3081)">
            <path d="M0.516,-0.008C0.486,-0.014 0.473,-0.019 0.473,-0.099L0.473,-0.317C0.473,-0.459 0.383,-0.48 0.316,-0.48C0.266,-0.48 0.216,-0.468 0.166,-0.431L0.166,-0.48C0.132,-0.464 0.085,-0.454 0.041,-0.453L0.041,-0.443C0.071,-0.435 0.072,-0.42 0.072,-0.371L0.072,-0.099C0.072,-0.019 0.059,-0.014 0.029,-0.008L0.029,0.002C0.051,0.001 0.082,-0 0.119,-0C0.156,-0 0.187,0.001 0.209,0.002L0.209,-0.008C0.179,-0.014 0.166,-0.019 0.166,-0.099L0.166,-0.405C0.194,-0.429 0.231,-0.448 0.276,-0.448C0.333,-0.448 0.379,-0.418 0.379,-0.314L0.379,-0.099C0.379,-0.019 0.366,-0.014 0.336,-0.008L0.336,0.002C0.358,0.001 0.389,-0 0.426,-0C0.463,-0 0.494,0.001 0.516,0.002L0.516,-0.008Z" style="fill-rule:nonzero;"/>
        </g>
        <g transform="matrix(64,0,0,64,715.666,99.3081)">
            <path d="M0.661,-0.023C0.602,-0.025 0.533,-0.075 0.47,-0.136C0.506,-0.193 0.529,-0.258 0.529,-0.311C0.529,-0.356 0.512,-0.402 0.484,-0.428C0.482,-0.413 0.461,-0.38 0.427,-0.38C0.422,-0.38 0.419,-0.381 0.419,-0.381L0.419,-0.376C0.46,-0.361 0.473,-0.32 0.473,-0.27C0.473,-0.229 0.464,-0.185 0.451,-0.155C0.363,-0.246 0.289,-0.355 0.262,-0.398C0.351,-0.46 0.385,-0.522 0.385,-0.588C0.385,-0.679 0.322,-0.715 0.259,-0.715C0.181,-0.715 0.104,-0.661 0.104,-0.548C0.104,-0.486 0.127,-0.43 0.168,-0.364C0.076,-0.309 0.021,-0.249 0.021,-0.169C0.021,-0.061 0.122,0.01 0.239,0.01C0.313,0.01 0.373,-0.019 0.417,-0.063C0.472,-0.019 0.527,0.002 0.585,0.002C0.62,0.002 0.648,-0.006 0.661,-0.015L0.661,-0.023ZM0.249,-0.419C0.197,-0.508 0.185,-0.55 0.185,-0.593C0.185,-0.662 0.216,-0.687 0.25,-0.687C0.287,-0.687 0.317,-0.657 0.317,-0.583C0.317,-0.521 0.296,-0.463 0.249,-0.419ZM0.4,-0.078C0.369,-0.051 0.328,-0.036 0.281,-0.036C0.183,-0.036 0.116,-0.103 0.116,-0.198C0.116,-0.257 0.142,-0.305 0.183,-0.342C0.238,-0.262 0.328,-0.141 0.4,-0.078Z" style="fill-rule:nonzero;"/>
        </g>
        <g transform="matrix(64,0,0,64,773.138,99.3081)">
            <path d="M0.594,-0.008C0.561,-0.017 0.549,-0.035 0.527,-0.105L0.374,-0.582C0.363,-0.618 0.356,-0.644 0.356,-0.662C0.356,-0.701 0.384,-0.712 0.417,-0.719L0.417,-0.727C0.397,-0.726 0.344,-0.725 0.3,-0.725C0.266,-0.725 0.191,-0.726 0.17,-0.727L0.17,-0.719C0.217,-0.709 0.244,-0.674 0.244,-0.624C0.244,-0.603 0.24,-0.58 0.23,-0.555L0.088,-0.182C0.038,-0.053 0.015,-0.023 -0.038,-0.008L-0.038,0.002C-0.019,0.001 0.001,-0 0.035,-0C0.072,-0 0.111,0.001 0.133,0.002L0.133,-0.008C0.102,-0.013 0.091,-0.032 0.091,-0.058C0.091,-0.086 0.103,-0.123 0.116,-0.157L0.152,-0.254C0.182,-0.255 0.212,-0.255 0.253,-0.255C0.29,-0.255 0.33,-0.255 0.367,-0.254L0.413,-0.112C0.422,-0.085 0.428,-0.063 0.428,-0.046C0.428,-0.025 0.417,-0.012 0.385,-0.008L0.385,0.002C0.407,0.001 0.459,-0 0.496,-0C0.53,-0 0.573,0.001 0.594,0.002L0.594,-0.008ZM0.269,-0.566L0.356,-0.29C0.319,-0.289 0.283,-0.29 0.253,-0.29C0.216,-0.29 0.191,-0.29 0.166,-0.291L0.269,-0.566Z" style="fill-rule:nonzero;"/>
        </g>
        <g transform="matrix(64,0,0,64,811.538,99.3081)">
            <path d="M0.322,-0.355C0.321,-0.387 0.32,-0.412 0.32,-0.429C0.32,-0.446 0.321,-0.456 0.323,-0.466C0.28,-0.47 0.24,-0.48 0.199,-0.48C0.11,-0.48 0.039,-0.433 0.039,-0.346C0.039,-0.195 0.255,-0.228 0.255,-0.094C0.255,-0.042 0.222,-0.012 0.171,-0.012C0.094,-0.012 0.06,-0.08 0.063,-0.152L0.053,-0.152C0.044,-0.112 0.047,-0.046 0.041,-0.013C0.099,-0.003 0.137,0.008 0.178,0.008C0.264,0.008 0.343,-0.042 0.343,-0.137C0.343,-0.297 0.12,-0.27 0.12,-0.386C0.12,-0.428 0.149,-0.46 0.2,-0.46C0.258,-0.46 0.297,-0.418 0.312,-0.355L0.322,-0.355Z" style="fill-rule:nonzero;"/>
        </g>
        <g transform="matrix(64,0,0,64,835.602,99.3081)">
            <path d="M0.322,-0.355C0.321,-0.387 0.32,-0.412 0.32,-0.429C0.32,-0.446 0.321,-0.456 0.323,-0.466C0.28,-0.47 0.24,-0.48 0.199,-0.48C0.11,-0.48 0.039,-0.433 0.039,-0.346C0.039,-0.195 0.255,-0.228 0.255,-0.094C0.255,-0.042 0.222,-0.012 0.171,-0.012C0.094,-0.012 0.06,-0.08 0.063,-0.152L0.053,-0.152C0.044,-0.112 0.047,-0.046 0.041,-0.013C0.099,-0.003 0.137,0.008 0.178,0.008C0.264,0.008 0.343,-0.042 0.343,-0.137C0.343,-0.297 0.12,-0.27 0.12,-0.386C0.12,-0.428 0.149,-0.46 0.2,-0.46C0.258,-0.46 0.297,-0.418 0.312,-0.355L0.322,-0.355Z" style="fill-rule:nonzero;"/>
        </g>
        <g transform="matrix(64,0,0,64,859.666,99.3081)">
            <path d="M0.521,-0.236C0.521,-0.379 0.409,-0.48 0.275,-0.48C0.142,-0.48 0.028,-0.381 0.028,-0.233C0.028,-0.087 0.138,0.006 0.273,0.006C0.415,0.006 0.521,-0.096 0.521,-0.236ZM0.273,-0.014C0.163,-0.014 0.139,-0.105 0.139,-0.234C0.139,-0.355 0.16,-0.46 0.275,-0.46C0.382,-0.46 0.41,-0.369 0.41,-0.233C0.41,-0.113 0.388,-0.014 0.273,-0.014Z" style="fill-rule:nonzero;"/>
        </g>
        <g transform="matrix(64,0,0,64,894.802,99.3081)">
            <path d="M0.434,-0.088C0.399,-0.05 0.356,-0.033 0.308,-0.033C0.204,-0.033 0.132,-0.115 0.132,-0.256C0.132,-0.365 0.175,-0.46 0.27,-0.46C0.333,-0.46 0.352,-0.418 0.355,-0.364L0.452,-0.364C0.438,-0.439 0.367,-0.48 0.277,-0.48C0.134,-0.48 0.028,-0.378 0.028,-0.234C0.028,-0.097 0.123,0.01 0.266,0.01C0.347,0.01 0.401,-0.025 0.441,-0.081L0.434,-0.088Z" style="fill-rule:nonzero;"/>
        </g>
        <g transform="matrix(64,0,0,64,924.754,99.3081)">
            <path d="M0.172,-0.583C0.172,-0.613 0.151,-0.634 0.122,-0.634C0.095,-0.634 0.074,-0.613 0.074,-0.583C0.074,-0.557 0.095,-0.536 0.122,-0.536C0.151,-0.536 0.172,-0.557 0.172,-0.583ZM0.209,-0.008C0.179,-0.014 0.166,-0.019 0.166,-0.099L0.166,-0.477C0.132,-0.461 0.085,-0.452 0.041,-0.451L0.041,-0.441C0.071,-0.433 0.072,-0.417 0.072,-0.369L0.072,-0.099C0.072,-0.019 0.059,-0.014 0.029,-0.008L0.029,0.002C0.051,0.001 0.082,-0 0.119,-0C0.156,-0 0.187,0.001 0.209,0.002L0.209,-0.008Z" style="fill-rule:nonzero;"/>
        </g>
        <g transform="matrix(64,0,0,64,939.73,99.3081)">
            <path d="M0.446,-0.05C0.436,-0.042 0.429,-0.04 0.421,-0.04C0.401,-0.04 0.394,-0.053 0.394,-0.097L0.394,-0.307C0.394,-0.436 0.331,-0.48 0.234,-0.48C0.139,-0.48 0.059,-0.438 0.043,-0.331L0.129,-0.331C0.13,-0.417 0.167,-0.457 0.224,-0.457C0.275,-0.457 0.3,-0.425 0.3,-0.348L0.3,-0.204C0.272,-0.221 0.233,-0.23 0.194,-0.23C0.099,-0.23 0.024,-0.178 0.024,-0.102C0.024,-0.036 0.08,0.01 0.161,0.01C0.214,0.01 0.263,-0.01 0.304,-0.045C0.308,-0.007 0.331,0.007 0.363,0.007C0.401,0.007 0.433,-0.012 0.451,-0.041L0.446,-0.05ZM0.208,-0.026C0.157,-0.026 0.126,-0.059 0.126,-0.113C0.126,-0.168 0.159,-0.205 0.22,-0.205C0.249,-0.205 0.28,-0.197 0.3,-0.182L0.3,-0.065C0.268,-0.036 0.236,-0.026 0.208,-0.026Z" style="fill-rule:nonzero;"/>
        </g>
        <g transform="matrix(64,0,0,64,969.042,99.3081)">
            <path d="M0.294,-0.084C0.278,-0.048 0.258,-0.033 0.225,-0.033C0.179,-0.033 0.16,-0.061 0.16,-0.132L0.16,-0.432L0.21,-0.432C0.254,-0.432 0.268,-0.425 0.268,-0.425C0.283,-0.458 0.292,-0.467 0.307,-0.49L0.299,-0.499C0.281,-0.475 0.258,-0.475 0.216,-0.475L0.16,-0.475C0.16,-0.525 0.166,-0.585 0.171,-0.618L0.156,-0.621C0.137,-0.544 0.092,-0.474 0.017,-0.449L0.017,-0.439C0.056,-0.433 0.066,-0.43 0.066,-0.396L0.066,-0.121C0.066,-0.02 0.12,0.008 0.183,0.008C0.242,0.008 0.28,-0.017 0.302,-0.078L0.294,-0.084Z" style="fill-rule:nonzero;"/>
        </g>
        <g transform="matrix(64,0,0,64,988.306,99.3081)">
            <path d="M0.44,-0.094C0.397,-0.053 0.357,-0.039 0.314,-0.039C0.207,-0.039 0.131,-0.126 0.131,-0.267C0.131,-0.283 0.132,-0.292 0.132,-0.292L0.445,-0.292C0.445,-0.42 0.351,-0.48 0.256,-0.48C0.133,-0.48 0.029,-0.38 0.029,-0.236C0.029,-0.096 0.126,0.01 0.266,0.01C0.346,0.01 0.403,-0.024 0.447,-0.085L0.44,-0.094ZM0.135,-0.318C0.147,-0.397 0.189,-0.46 0.252,-0.46C0.306,-0.46 0.341,-0.413 0.343,-0.318L0.135,-0.318Z" style="fill-rule:nonzero;"/>
        </g>
        <g transform="matrix(64,0,0,64,1018.58,99.3081)">
            <path d="M0.322,-0.355C0.321,-0.387 0.32,-0.412 0.32,-0.429C0.32,-0.446 0.321,-0.456 0.323,-0.466C0.28,-0.47 0.24,-0.48 0.199,-0.48C0.11,-0.48 0.039,-0.433 0.039,-0.346C0.039,-0.195 0.255,-0.228 0.255,-0.094C0.255,-0.042 0.222,-0.012 0.171,-0.012C0.094,-0.012 0.06,-0.08 0.063,-0.152L0.053,-0.152C0.044,-0.112 0.047,-0.046 0.041,-0.013C0.099,-0.003 0.137,0.008 0.178,0.008C0.264,0.008 0.343,-0.042 0.343,-0.137C0.343,-0.297 0.12,-0.27 0.12,-0.386C0.12,-0.428 0.149,-0.46 0.2,-0.46C0.258,-0.46 0.297,-0.418 0.312,-0.355L0.322,-0.355Z" style="fill-rule:nonzero;"/>
        </g>
    </g>
    <g id="scales">
        <path d="M141.606,79.045L138.346,82.305L135.086,79.045L136.173,168.153L138.346,173.586L140.519,168.153L141.606,79.045Z"/>
        <path d="M103.572,100.778C111.28,100.778 116.579,98.39 121.866,95.962C126.635,93.771 131.394,91.541 138.346,91.541L138.346,87.195C130.638,87.195 125.34,89.583 120.052,92.011C115.283,94.202 110.525,96.432 103.572,96.432L103.572,100.778Z"/>
        <path d="M173.12,96.432C166.168,96.432 161.409,94.202 156.64,92.011C151.352,89.583 146.054,87.195 138.346,87.195L138.346,91.541C145.298,91.541 150.057,93.771 154.826,95.962C160.114,98.39 165.412,100.778 173.12,100.778L173.12,96.432Z"/>
        <path d="M124.219,140.986C124.219,145.784 114.968,151.852 103.572,151.852C92.177,151.852 82.925,145.784 82.925,140.986L124.219,140.986Z"/>
        <path d="M103.572,83.391C108.37,83.391 112.266,87.287 112.266,92.085C112.266,96.883 108.37,100.778 103.572,100.778C98.774,100.778 94.879,96.883 94.879,92.085C94.879,87.287 98.774,83.391 103.572,83.391ZM103.572,87.738C105.971,87.738 107.919,89.686 107.919,92.085C107.919,94.484 105.971,96.432 103.572,96.432C101.173,96.432 99.226,94.484 99.226,92.085C99.226,89.686 101.173,87.738 103.572,87.738Z"/>
        <path d="M87.645,140.986L82.925,140.986L103.572,102.952L124.219,140.986L119.5,140.986L103.572,109.472L87.645,140.986Z"/>
        <g>
            <path d="M60.594,125.283L60.594,121.476C60.594,121.476 67.573,118.304 67.573,118.304C67.573,118.304 64.4,125.283 64.4,125.283L60.594,125.283Z"/>
            <path d="M55.269,125.283L51.463,125.283C51.463,125.283 48.291,118.304 48.291,118.304C48.291,118.304 55.269,121.476 55.269,121.476L55.269,125.283Z"/>
            <path d="M61.232,136.265L60.69,132.407C60.69,132.407 67.311,128.198 67.311,128.198C67.311,128.198 65.09,135.723 65.09,135.723L61.232,136.265Z"/>
            <path d="M56.067,136.991L52.209,137.533C52.209,137.533 48,130.912 48,130.912C48,130.912 55.525,133.133 55.525,133.133L56.067,136.991Z"/>
            <path d="M61.48,114.42L61.997,110.739C61.997,110.739 69.177,108.62 69.177,108.62C69.177,108.62 65.161,114.938 65.161,114.938L61.48,114.42Z"/>
            <path d="M56.099,113.664L52.418,113.147C52.418,113.147 50.299,105.967 50.299,105.967C50.299,105.967 56.617,109.983 56.617,109.983L56.099,113.664Z"/>
            <path d="M63.877,103.605L64.877,100.117C64.877,100.117 72.104,99.044 72.104,99.044C72.104,99.044 67.364,104.604 67.364,104.604L63.877,103.605Z"/>
            <path d="M58.549,102.077L55.062,101.077C55.062,101.077 53.989,93.85 53.989,93.85C53.989,93.85 59.549,98.59 59.549,98.59L58.549,102.077Z"/>
            <path d="M63.417,146.931L62.319,143.1C62.319,143.1 68.427,137.894 68.427,137.894C68.427,137.894 67.248,145.833 67.248,145.833L63.417,146.931Z"/>
            <path d="M58.508,148.339L54.677,149.437C54.677,149.437 49.471,143.33 49.471,143.33C49.471,143.33 57.409,144.508 57.409,144.508L58.508,148.339Z"/>
            <path d="M67.034,157.165L65.377,153.443C65.377,153.443 70.82,147.303 70.82,147.303C70.82,147.303 70.757,155.508 70.757,155.508L67.034,157.165Z"/>
            <path d="M62.468,159.198L58.746,160.856C58.746,160.856 52.606,155.412 52.606,155.412C52.606,155.412 60.811,155.476 60.811,155.476L62.468,159.198Z"/>
            <path d="M67.755,93.142L69.194,89.91C69.194,89.91 76.32,89.854 76.32,89.854C76.32,89.854 70.988,94.582 70.988,94.582L67.755,93.142Z"/>
            <path d="M62.593,90.844L59.36,89.405C59.36,89.405 59.305,82.279 59.305,82.279C59.305,82.279 64.032,87.611 64.032,87.611L62.593,90.844Z"/>
            <path d="M72.967,84.086L74.795,81.161C74.795,81.161 81.681,82.074 81.681,82.074C81.681,82.074 75.892,85.914 75.892,85.914C75.892,85.914 72.967,84.086 72.967,84.086Z"/>
            <path d="M68.083,81.034L65.158,79.206C65.158,79.206 66.071,72.32 66.071,72.32C66.071,72.32 69.911,78.109 69.911,78.109C69.911,78.109 68.083,81.034 68.083,81.034Z"/>
            <path d="M72.186,166.062L69.98,162.531C69.98,162.531 74.615,155.543 74.615,155.543C74.615,155.543 75.718,163.855 75.718,163.855L72.186,166.062Z"/>
            <path d="M68.039,168.653L64.508,170.86C64.508,170.86 57.52,166.225 57.52,166.225C57.52,166.225 65.833,165.122 65.833,165.122L68.039,168.653Z"/>
            <path d="M78.391,175.703L75.66,172.443C75.66,172.443 79.362,164.719 79.362,164.719C79.362,164.719 81.652,172.972 81.652,172.972L78.391,175.703Z"/>
            <path d="M74.725,178.773L71.465,181.504C71.465,181.504 63.741,177.802 63.741,177.802C63.741,177.802 71.994,175.513 71.994,175.513L74.725,178.773Z"/>
            <path d="M79.482,75.386L81.641,72.812C81.641,72.812 88.16,74.626 88.16,74.626C88.16,74.626 82.055,77.545 82.055,77.545L79.482,75.386Z"/>
            <path d="M74.986,71.614L72.412,69.454C72.412,69.454 74.227,62.936 74.227,62.936C74.227,62.936 77.146,69.04 77.146,69.04L74.986,71.614Z"/>
            <path d="M85.98,183.686L82.753,180.781C82.753,180.781 85.391,172.443 85.391,172.443C85.391,172.443 88.886,180.459 88.886,180.459L85.98,183.686Z"/>
            <path d="M82.854,187.159L79.948,190.386C79.948,190.386 71.61,187.748 71.61,187.748C71.61,187.748 79.627,184.253 79.627,184.253L82.854,187.159Z"/>
            <path d="M87.144,67.688L89.574,65.499C89.574,65.499 95.612,68.132 95.612,68.132C95.612,68.132 89.332,70.118 89.332,70.118L87.144,67.688Z"/>
            <path d="M83.144,63.246L80.956,60.816C80.956,60.816 83.588,54.778 83.588,54.778C83.588,54.778 85.575,61.058 85.575,61.058L83.144,63.246Z"/>
            <path d="M94.565,190.486L90.891,188.008C90.891,188.008 92.372,179.207 92.372,179.207C92.372,179.207 97.043,186.812 97.043,186.812C97.043,186.812 94.565,190.486 94.565,190.486Z"/>
            <path d="M92.013,194.27L89.534,197.944C89.534,197.944 80.733,196.462 80.733,196.462C80.733,196.462 88.339,191.792 88.339,191.792C88.339,191.792 92.013,194.27 92.013,194.27Z"/>
            <path d="M95.801,61.142L98.438,59.363C98.438,59.363 103.898,62.715 103.898,62.715C103.898,62.715 97.58,63.779 97.58,63.779L95.801,61.142Z"/>
            <path d="M92.398,56.097L90.619,53.459C90.619,53.459 93.972,48 93.972,48C93.972,48 95.036,54.318 95.036,54.318L92.398,56.097Z"/>
            <path d="M104.022,196.022L99.959,194.04C99.959,194.04 100.206,184.939 100.206,184.939C100.206,184.939 106.004,191.958 106.004,191.958L104.022,196.022Z"/>
            <path d="M102.069,200.027L100.087,204.09C100.087,204.09 90.986,203.843 90.986,203.843C90.986,203.843 98.006,198.045 98.006,198.045L102.069,200.027Z"/>
            <path d="M114.168,200.184L109.784,198.759L108.741,189.533L115.593,195.799L114.168,200.184Z"/>
            <path d="M112.825,204.318L108.44,202.893L102.174,209.745L111.4,208.702L112.825,204.318Z"/>
            <path d="M101.461,54.353L103.077,49.951C103.077,49.951 112.56,49.063 112.56,49.063C112.56,49.063 105.899,55.87 105.899,55.87L101.461,54.353Z"/>
        </g>
        <g>
            <path d="M216.014,125.283L216.014,121.476C216.014,121.476 209.035,118.304 209.035,118.304C209.035,118.304 212.208,125.283 212.208,125.283L216.014,125.283Z"/>
            <path d="M221.339,125.283L225.145,125.283C225.145,125.283 228.317,118.304 228.317,118.304C228.317,118.304 221.339,121.476 221.339,121.476L221.339,125.283Z"/>
            <path d="M215.376,136.265L215.918,132.407C215.918,132.407 209.297,128.198 209.297,128.198C209.297,128.198 211.518,135.723 211.518,135.723L215.376,136.265Z"/>
            <path d="M220.541,136.991L224.399,137.533C224.399,137.533 228.608,130.912 228.608,130.912C228.608,130.912 221.083,133.133 221.083,133.133L220.541,136.991Z"/>
            <path d="M215.128,114.42L214.611,110.739C214.611,110.739 207.431,108.62 207.431,108.62C207.431,108.62 211.447,114.938 211.447,114.938L215.128,114.42Z"/>
            <path d="M220.509,113.664L224.19,113.147C224.19,113.147 226.309,105.967 226.309,105.967C226.309,105.967 219.991,109.983 219.991,109.983L220.509,113.664Z"/>
            <path d="M212.731,103.605L211.731,100.117C211.731,100.117 204.504,99.044 204.504,99.044C204.504,99.044 209.244,104.604 209.244,104.604L212.731,103.605Z"/>
            <path d="M218.059,102.077L221.546,101.077C221.546,101.077 222.619,93.85 222.619,93.85C222.619,93.85 217.059,98.59 217.059,98.59L218.059,102.077Z"/>
            <path d="M213.191,146.931L214.289,143.1C214.289,143.1 208.181,137.894 208.181,137.894C208.181,137.894 209.36,145.833 209.36,145.833L213.191,146.931Z"/>
            <path d="M218.1,148.339L221.931,149.437C221.931,149.437 227.137,143.33 227.137,143.33C227.137,143.33 219.199,144.508 219.199,144.508L218.1,148.339Z"/>
            <path d="M209.574,157.165L211.231,153.443C211.231,153.443 205.788,147.303 205.788,147.303C205.788,147.303 205.851,155.508 205.851,155.508L209.574,157.165Z"/>
            <path d="M214.14,159.198L217.862,160.856C217.862,160.856 224.002,155.412 224.002,155.412C224.002,155.412 215.797,155.476 215.797,155.476L214.14,159.198Z"/>
            <path d="M208.853,93.142L207.414,89.91C207.414,89.91 200.288,89.854 200.288,89.854C200.288,89.854 205.62,94.582 205.62,94.582L208.853,93.142Z"/>
            <path d="M214.015,90.844L217.248,89.405C217.248,89.405 217.303,82.279 217.303,82.279C217.303,82.279 212.576,87.611 212.576,87.611L214.015,90.844Z"/>
            <path d="M203.641,84.086L201.813,81.161C201.813,81.161 194.927,82.074 194.927,82.074C194.927,82.074 200.716,85.914 200.716,85.914C200.716,85.914 203.641,84.086 203.641,84.086Z"/>
            <path d="M208.525,81.034L211.45,79.206C211.45,79.206 210.537,72.32 210.537,72.32C210.537,72.32 206.697,78.109 206.697,78.109C206.697,78.109 208.525,81.034 208.525,81.034Z"/>
            <path d="M204.422,166.062L206.628,162.531C206.628,162.531 201.993,155.543 201.993,155.543C201.993,155.543 200.89,163.855 200.89,163.855L204.422,166.062Z"/>
            <path d="M208.569,168.653L212.1,170.86C212.1,170.86 219.088,166.225 219.088,166.225C219.088,166.225 210.775,165.122 210.775,165.122L208.569,168.653Z"/>
            <path d="M198.217,175.703L200.948,172.443C200.948,172.443 197.246,164.719 197.246,164.719C197.246,164.719 194.956,172.972 194.956,172.972L198.217,175.703Z"/>
            <path d="M201.883,178.773L205.143,181.504C205.143,181.504 212.867,177.802 212.867,177.802C212.867,177.802 204.614,175.513 204.614,175.513L201.883,178.773Z"/>
            <path d="M197.126,75.386L194.967,72.812C194.967,72.812 188.448,74.626 188.448,74.626C188.448,74.626 194.553,77.545 194.553,77.545L197.126,75.386Z"/>
            <path d="M201.622,71.614L204.196,69.454C204.196,69.454 202.381,62.936 202.381,62.936C202.381,62.936 199.462,69.04 199.462,69.04L201.622,71.614Z"/>
            <path d="M190.628,183.686L193.855,180.781C193.855,180.781 191.217,172.443 191.217,172.443C191.217,172.443 187.722,180.459 187.722,180.459L190.628,183.686Z"/>
            <path d="M193.754,187.159L196.66,190.386C196.66,190.386 204.998,187.748 204.998,187.748C204.998,187.748 196.981,184.253 196.981,184.253L193.754,187.159Z"/>
            <path d="M189.464,67.688L187.034,65.499C187.034,65.499 180.996,68.132 180.996,68.132C180.996,68.132 187.276,70.118 187.276,70.118L189.464,67.688Z"/>
            <path d="M193.464,63.246L195.652,60.816C195.652,60.816 193.02,54.778 193.02,54.778C193.02,54.778 191.033,61.058 191.033,61.058L193.464,63.246Z"/>
            <path d="M182.043,190.486L185.717,188.008C185.717,188.008 184.236,179.207 184.236,179.207C184.236,179.207 179.565,186.812 179.565,186.812C179.565,186.812 182.043,190.486 182.043,190.486Z"/>
            <path d="M184.595,194.27L187.074,197.944C187.074,197.944 195.875,196.462 195.875,196.462C195.875,196.462 188.269,191.792 188.269,191.792C188.269,191.792 184.595,194.27 184.595,194.27Z"/>
            <path d="M180.807,61.142L178.17,59.363C178.17,59.363 172.71,62.715 172.71,62.715C172.71,62.715 179.028,63.779 179.028,63.779L180.807,61.142Z"/>
            <path d="M184.21,56.097L185.989,53.459C185.989,53.459 182.636,48 182.636,48C182.636,48 181.572,54.318 181.572,54.318L184.21,56.097Z"/>
            <path d="M172.586,196.022L176.649,194.04C176.649,194.04 176.402,184.939 176.402,184.939C176.402,184.939 170.604,191.958 170.604,191.958L172.586,196.022Z"/>
            <path d="M174.539,200.027L176.521,204.09C176.521,204.09 185.622,203.843 185.622,203.843C185.622,203.843 178.602,198.045 178.602,198.045L174.539,200.027Z"/>
            <path d="M162.44,200.184L166.825,198.759L167.867,189.533L161.015,195.799L162.44,200.184Z"/>
            <path d="M163.783,204.318L168.168,202.893L174.434,209.745L165.208,208.702L163.783,204.318Z"/>
            <path d="M175.147,54.353L173.531,49.951C173.531,49.951 164.048,49.063 164.048,49.063C164.048,49.063 170.709,55.87 170.709,55.87L175.147,54.353Z"/>
        </g>
        <path d="M173.12,83.391C177.918,83.391 181.813,87.287 181.813,92.085C181.813,96.883 177.918,100.778 173.12,100.778C168.322,100.778 164.427,96.883 164.427,92.085C164.427,87.287 168.322,83.391 173.12,83.391ZM173.12,87.738C175.519,87.738 177.467,89.686 177.467,92.085C177.467,94.484 175.519,96.432 173.12,96.432C170.721,96.432 168.773,94.484 168.773,92.085C168.773,89.686 170.721,87.738 173.12,87.738Z"/>
        <path d="M193.767,140.986C193.767,145.784 184.515,151.852 173.12,151.852C161.725,151.852 152.473,145.784 152.473,140.986L193.767,140.986Z"/>
        <path d="M157.192,140.986L152.473,140.986L173.12,102.952L193.767,140.986L189.048,140.986L173.12,109.472L157.192,140.986Z"/>
        <path d="M138.346,75.785L132.913,70.351L138.346,64.918L143.78,70.351L138.346,75.785Z"/>
        <g>
            <path d="M140.129,205.781L149.363,203.652L153.046,195.78L144.282,198.571L140.129,205.781Z"/>
            <path d="M136.563,205.781L127.231,203.652L123.547,195.78L132.311,198.571L136.563,205.781Z"/>
            <path d="M138.346,205.781L134.753,196.946L138.346,182.139L141.939,196.946L138.346,205.781Z"/>
            <path d="M135.672,208.455L126.986,211.595L120.519,209.389L126.875,207.076L135.672,208.455Z"/>
            <path d="M141.02,208.455L149.707,211.595L156.173,209.389L149.818,207.076L141.02,208.455Z"/>
            <path d="M137.455,210.238L135.934,214.908L131.26,216.821L133.021,212.486L137.455,210.238Z"/>
            <path d="M139.237,210.238L140.758,214.908L145.433,216.821L143.672,212.486L139.237,210.238Z"/>
        </g>
    </g>
    <path d="M1039.32,116.417C1037.56,116.116 1037.17,115.557 1037.17,111.429L1037.17,87.005C1037.9,86.747 1038.81,86.618 1039.71,86.618C1043.8,86.618 1046.07,89.499 1046.07,94.444C1046.07,98.529 1044.53,101.582 1040.91,101.582C1040.18,101.582 1039.11,101.453 1038.29,101.023L1038.03,101.453C1039.02,102.141 1040.36,102.442 1041.95,102.442C1047.58,102.442 1050.93,98.529 1050.93,93.971C1050.93,89.327 1047.49,85.457 1039.84,85.457C1038.72,85.457 1036.91,85.543 1034.77,85.543C1033.26,85.543 1031.41,85.5 1030.46,85.457L1030.46,85.887C1032.27,86.188 1032.7,86.747 1032.7,90.875L1032.7,111.429C1032.7,115.557 1032.36,116.116 1030.55,116.417L1030.55,116.847C1031.5,116.804 1033.35,116.761 1034.94,116.761C1036.49,116.761 1038.42,116.804 1039.32,116.847L1039.32,116.417Z" style="fill-rule:nonzero;"/>
    <path d="M1071.57,111.73C1071.57,115.256 1070.54,115.342 1064.43,115.342C1062.84,115.342 1061.04,115.299 1060.13,115.127L1060.13,90.875C1060.13,86.747 1060.48,86.188 1062.29,85.887L1062.29,85.457C1061.34,85.5 1059.4,85.543 1057.9,85.543C1056.31,85.543 1054.46,85.5 1053.51,85.457L1053.51,85.887C1055.28,86.188 1055.66,86.747 1055.66,90.875L1055.66,111.429C1055.66,115.299 1055.36,116.073 1053.34,116.417L1053.34,116.847C1054.29,116.804 1058.63,116.761 1062.33,116.761L1073.38,116.761C1076.39,116.761 1084.39,116.761 1088,116.89C1088,114.568 1088.17,112.633 1088.21,110.096L1087.78,110.096C1086.97,114.869 1085.16,115.342 1080.35,115.342C1078.75,115.342 1076.95,115.299 1076.05,115.127L1076.05,90.875C1076.05,86.747 1076.39,86.188 1078.19,85.887L1078.19,85.457C1077.25,85.5 1075.31,85.543 1073.81,85.543C1072.22,85.543 1070.37,85.5 1069.42,85.457L1069.42,85.887C1071.19,86.188 1071.57,86.747 1071.57,90.875L1071.57,111.73Z" style="fill-rule:nonzero;"/>
    <path d="M1116.12,108.591C1114.75,112.848 1110.79,115.987 1106.06,115.987C1100.34,115.987 1094.32,111.343 1094.32,101.152C1094.32,91.434 1099.78,86.446 1106.23,86.446C1110.96,86.446 1114.83,89.155 1115.78,94.057L1116.21,94.057C1116.16,93.326 1116.12,92.423 1116.12,91.09C1116.12,89.757 1116.16,88.037 1116.25,86.833C1113.76,86.317 1109.84,85.285 1105.89,85.285C1094.66,85.285 1089.2,93.412 1089.2,101.152C1089.2,109.408 1095.35,117.191 1105.8,117.191C1109.37,117.191 1113.11,116.288 1116.25,114.826C1116.25,112.762 1116.38,110.268 1116.55,108.677L1116.12,108.591Z" style="fill-rule:nonzero;"/>
    <g transform="matrix(1,0,0,1,9.79078,26.255)">
        <g transform="matrix(34,0,0,34,250.501,172.259)">
            <path d="M0.594,-0.008C0.559,-0.017 0.547,-0.041 0.52,-0.125L0.323,-0.742L0.302,-0.742L0.103,-0.222C0.04,-0.057 0.02,-0.025 -0.038,-0.008L-0.038,0.002C-0.018,0.001 0.001,-0 0.035,-0C0.072,-0 0.111,0.001 0.133,0.002L0.133,-0.008C0.102,-0.013 0.091,-0.032 0.091,-0.058C0.091,-0.089 0.105,-0.128 0.131,-0.198L0.152,-0.254C0.183,-0.255 0.213,-0.255 0.255,-0.255C0.293,-0.255 0.33,-0.255 0.368,-0.254L0.401,-0.15C0.419,-0.095 0.428,-0.065 0.428,-0.046C0.428,-0.025 0.417,-0.012 0.385,-0.008L0.385,0.002C0.407,0.001 0.459,-0 0.496,-0C0.53,-0 0.573,0.001 0.594,0.002L0.594,-0.008ZM0.255,-0.29C0.217,-0.29 0.192,-0.29 0.166,-0.291L0.269,-0.566L0.356,-0.291C0.319,-0.29 0.284,-0.29 0.255,-0.29Z" style="fill-rule:nonzero;"/>
        </g>
        <g transform="matrix(34,0,0,34,277.701,172.259)">
            <path d="M0.38,-0.008C0.334,-0.015 0.33,-0.028 0.33,-0.147L0.33,-0.684C0.488,-0.683 0.521,-0.681 0.524,-0.604L0.535,-0.604C0.537,-0.627 0.548,-0.71 0.557,-0.739C0.506,-0.719 0.459,-0.717 0.269,-0.717C0.068,-0.717 0.042,-0.737 0.024,-0.743C0.021,-0.693 0.012,-0.646 0.006,-0.598L0.017,-0.598C0.036,-0.661 0.06,-0.683 0.186,-0.684L0.226,-0.684L0.226,-0.147C0.226,-0.028 0.222,-0.015 0.176,-0.008L0.176,0.002C0.198,0.001 0.241,-0 0.278,-0C0.314,-0 0.359,0.001 0.38,0.002L0.38,-0.008Z" style="fill-rule:nonzero;"/>
        </g>
        <g transform="matrix(34,0,0,34,304.833,172.259)">
            <path d="M0.38,-0.008C0.334,-0.015 0.33,-0.028 0.33,-0.147L0.33,-0.684C0.488,-0.683 0.521,-0.681 0.524,-0.604L0.535,-0.604C0.537,-0.627 0.548,-0.71 0.557,-0.739C0.506,-0.719 0.459,-0.717 0.269,-0.717C0.068,-0.717 0.042,-0.737 0.024,-0.743C0.021,-0.693 0.012,-0.646 0.006,-0.598L0.017,-0.598C0.036,-0.661 0.06,-0.683 0.186,-0.684L0.226,-0.684L0.226,-0.147C0.226,-0.028 0.222,-0.015 0.176,-0.008L0.176,0.002C0.198,0.001 0.241,-0 0.278,-0C0.314,-0 0.359,0.001 0.38,0.002L0.38,-0.008Z" style="fill-rule:nonzero;"/>
        </g>
        <g transform="matrix(34,0,0,34,330.605,172.259)">
            <path d="M0.765,-0.361C0.765,-0.577 0.597,-0.732 0.4,-0.732C0.194,-0.732 0.034,-0.563 0.034,-0.358C0.034,-0.155 0.191,0.01 0.398,0.01C0.599,0.01 0.765,-0.146 0.765,-0.361ZM0.399,-0.017C0.249,-0.017 0.154,-0.123 0.154,-0.358C0.154,-0.601 0.255,-0.705 0.398,-0.705C0.542,-0.705 0.646,-0.599 0.646,-0.357C0.646,-0.125 0.55,-0.017 0.399,-0.017Z" style="fill-rule:nonzero;"/>
        </g>
        <g transform="matrix(34,0,0,34,365.965,172.259)">
            <path d="M0.581,-0.008C0.51,-0.032 0.393,-0.279 0.355,-0.34C0.469,-0.372 0.52,-0.442 0.52,-0.53C0.52,-0.644 0.435,-0.728 0.27,-0.728C0.245,-0.728 0.197,-0.726 0.155,-0.726C0.114,-0.726 0.076,-0.726 0.048,-0.728L0.048,-0.718C0.095,-0.71 0.097,-0.687 0.097,-0.577L0.097,-0.148C0.097,-0.028 0.093,-0.015 0.047,-0.008L0.047,0.002C0.069,0.001 0.113,-0 0.149,-0C0.185,-0 0.23,0.001 0.251,0.002L0.251,-0.008C0.205,-0.015 0.201,-0.028 0.201,-0.147L0.201,-0.324L0.247,-0.324C0.272,-0.289 0.294,-0.242 0.31,-0.213C0.366,-0.107 0.396,-0.053 0.43,-0.026C0.464,0.001 0.504,0.004 0.533,0.004C0.571,0.004 0.581,-0.001 0.581,-0.001L0.581,-0.008ZM0.201,-0.348L0.201,-0.692C0.221,-0.698 0.24,-0.701 0.26,-0.701C0.359,-0.701 0.406,-0.63 0.406,-0.514C0.406,-0.409 0.367,-0.348 0.248,-0.348L0.201,-0.348Z" style="fill-rule:nonzero;"/>
        </g>
        <g transform="matrix(34,0,0,34,393.845,172.259)">
            <path d="M0.679,0.022C0.676,-0.099 0.676,-0.224 0.676,-0.459C0.676,-0.675 0.686,-0.701 0.738,-0.718L0.738,-0.728C0.717,-0.727 0.691,-0.726 0.657,-0.726C0.62,-0.726 0.59,-0.727 0.568,-0.728L0.568,-0.718C0.636,-0.697 0.64,-0.67 0.64,-0.243L0.64,-0.163C0.469,-0.346 0.279,-0.552 0.108,-0.742L0.096,-0.742C0.098,-0.593 0.098,-0.449 0.098,-0.268C0.098,-0.054 0.089,-0.025 0.038,-0.008L0.038,0.002C0.059,0.001 0.083,-0 0.117,-0C0.154,-0 0.184,0.001 0.206,0.002L0.206,-0.008C0.136,-0.029 0.134,-0.062 0.134,-0.479L0.134,-0.558C0.312,-0.371 0.505,-0.161 0.67,0.022L0.679,0.022Z" style="fill-rule:nonzero;"/>
        </g>
        <g transform="matrix(34,0,0,34,428.355,172.259)">
            <path d="M0.479,-0.164C0.447,-0.04 0.403,-0.033 0.29,-0.033C0.247,-0.033 0.219,-0.034 0.202,-0.038L0.202,-0.36L0.27,-0.36C0.348,-0.36 0.387,-0.356 0.402,-0.279L0.412,-0.279C0.411,-0.308 0.409,-0.335 0.409,-0.376C0.409,-0.416 0.411,-0.443 0.412,-0.473L0.402,-0.473C0.385,-0.402 0.357,-0.392 0.27,-0.392L0.202,-0.392L0.202,-0.688C0.215,-0.691 0.232,-0.693 0.293,-0.693C0.406,-0.693 0.447,-0.686 0.471,-0.574L0.481,-0.574C0.483,-0.605 0.484,-0.641 0.484,-0.675C0.484,-0.708 0.483,-0.728 0.483,-0.728C0.423,-0.726 0.302,-0.726 0.165,-0.726C0.111,-0.726 0.064,-0.727 0.043,-0.728L0.043,-0.718C0.093,-0.709 0.098,-0.698 0.098,-0.579L0.098,-0.146C0.098,-0.036 0.096,-0.017 0.044,-0.008L0.044,0.002C0.062,0.001 0.112,-0 0.154,-0L0.251,-0C0.347,-0 0.41,0.001 0.484,0.003C0.484,-0.053 0.488,-0.088 0.489,-0.164L0.479,-0.164Z" style="fill-rule:nonzero;"/>
        </g>
        <g transform="matrix(34,0,0,34,454.467,172.259)">
            <path d="M0.405,-0.008C0.363,-0.015 0.355,-0.028 0.355,-0.124L0.355,-0.268L0.485,-0.527C0.562,-0.681 0.573,-0.703 0.621,-0.718L0.621,-0.728C0.6,-0.727 0.578,-0.726 0.543,-0.726C0.507,-0.726 0.478,-0.727 0.456,-0.728L0.456,-0.718C0.489,-0.712 0.499,-0.696 0.499,-0.672C0.499,-0.644 0.486,-0.616 0.451,-0.545L0.332,-0.303L0.18,-0.613C0.163,-0.648 0.157,-0.667 0.157,-0.681C0.157,-0.705 0.173,-0.713 0.202,-0.718L0.202,-0.728C0.18,-0.727 0.131,-0.726 0.093,-0.726C0.055,-0.726 0,-0.727 -0.021,-0.728L-0.021,-0.718C0.009,-0.713 0.024,-0.692 0.06,-0.621L0.251,-0.242L0.251,-0.124C0.251,-0.028 0.242,-0.015 0.201,-0.008L0.201,0.002C0.223,0.001 0.266,-0 0.302,-0C0.338,-0 0.383,0.001 0.405,0.002L0.405,-0.008Z" style="fill-rule:nonzero;"/>
        </g>
        <g transform="matrix(34,0,0,34,482.789,172.259)">
            <path d="M0.418,-0.571C0.417,-0.6 0.417,-0.629 0.417,-0.645C0.417,-0.676 0.418,-0.707 0.42,-0.732C0.409,-0.727 0.396,-0.726 0.385,-0.726C0.342,-0.726 0.308,-0.742 0.255,-0.742C0.135,-0.742 0.053,-0.66 0.053,-0.546C0.053,-0.324 0.362,-0.342 0.362,-0.148C0.362,-0.069 0.31,-0.018 0.226,-0.018C0.141,-0.018 0.086,-0.07 0.074,-0.152C0.072,-0.165 0.07,-0.181 0.07,-0.195L0.06,-0.195C0.051,-0.171 0.049,-0.147 0.049,-0.125C0.049,-0.095 0.053,-0.064 0.053,-0.035C0.053,-0.02 0.052,-0.005 0.052,-0.005C0.062,-0.008 0.069,-0.008 0.08,-0.008C0.125,-0.008 0.162,0.01 0.224,0.01C0.364,0.01 0.446,-0.082 0.446,-0.205C0.446,-0.443 0.136,-0.416 0.136,-0.602C0.136,-0.677 0.187,-0.715 0.257,-0.715C0.327,-0.715 0.385,-0.676 0.407,-0.571L0.418,-0.571Z" style="fill-rule:nonzero;"/>
        </g>
        <g transform="matrix(34,0,0,34,524.133,172.259)">
            <path d="M0.594,-0.008C0.559,-0.017 0.547,-0.041 0.52,-0.125L0.323,-0.742L0.302,-0.742L0.103,-0.222C0.04,-0.057 0.02,-0.025 -0.038,-0.008L-0.038,0.002C-0.018,0.001 0.001,-0 0.035,-0C0.072,-0 0.111,0.001 0.133,0.002L0.133,-0.008C0.102,-0.013 0.091,-0.032 0.091,-0.058C0.091,-0.089 0.105,-0.128 0.131,-0.198L0.152,-0.254C0.183,-0.255 0.213,-0.255 0.255,-0.255C0.293,-0.255 0.33,-0.255 0.368,-0.254L0.401,-0.15C0.419,-0.095 0.428,-0.065 0.428,-0.046C0.428,-0.025 0.417,-0.012 0.385,-0.008L0.385,0.002C0.407,0.001 0.459,-0 0.496,-0C0.53,-0 0.573,0.001 0.594,0.002L0.594,-0.008ZM0.255,-0.29C0.217,-0.29 0.192,-0.29 0.166,-0.291L0.269,-0.566L0.356,-0.291C0.319,-0.29 0.284,-0.29 0.255,-0.29Z" style="fill-rule:nonzero;"/>
        </g>
        <g transform="matrix(34,0,0,34,552.693,172.259)">
            <path d="M0.679,0.022C0.676,-0.099 0.676,-0.224 0.676,-0.459C0.676,-0.675 0.686,-0.701 0.738,-0.718L0.738,-0.728C0.717,-0.727 0.691,-0.726 0.657,-0.726C0.62,-0.726 0.59,-0.727 0.568,-0.728L0.568,-0.718C0.636,-0.697 0.64,-0.67 0.64,-0.243L0.64,-0.163C0.469,-0.346 0.279,-0.552 0.108,-0.742L0.096,-0.742C0.098,-0.593 0.098,-0.449 0.098,-0.268C0.098,-0.054 0.089,-0.025 0.038,-0.008L0.038,0.002C0.059,0.001 0.083,-0 0.117,-0C0.154,-0 0.184,0.001 0.206,0.002L0.206,-0.008C0.136,-0.029 0.134,-0.062 0.134,-0.479L0.134,-0.558C0.312,-0.371 0.505,-0.161 0.67,0.022L0.679,0.022Z" style="fill-rule:nonzero;"/>
        </g>
        <g transform="matrix(34,0,0,34,587.203,172.259)">
            <path d="M0.043,0.002C0.065,0.001 0.119,-0 0.154,-0C0.215,-0 0.303,0.003 0.34,0.003C0.612,0.003 0.738,-0.163 0.738,-0.358C0.738,-0.54 0.629,-0.727 0.292,-0.727C0.267,-0.727 0.195,-0.726 0.155,-0.726C0.114,-0.726 0.065,-0.727 0.043,-0.728L0.043,-0.718C0.097,-0.708 0.103,-0.697 0.103,-0.563L0.103,-0.162C0.103,-0.028 0.1,-0.017 0.043,-0.008L0.043,0.002ZM0.207,-0.69C0.234,-0.698 0.275,-0.7 0.304,-0.7C0.457,-0.7 0.62,-0.646 0.62,-0.356C0.62,-0.116 0.508,-0.024 0.329,-0.024C0.297,-0.024 0.241,-0.027 0.207,-0.035L0.207,-0.69Z" style="fill-rule:nonzero;"/>
        </g>
        <g transform="matrix(34,0,0,34,638.305,172.259)">
            <path d="M0.659,-0.19C0.627,-0.091 0.535,-0.018 0.425,-0.018C0.292,-0.018 0.152,-0.126 0.152,-0.363C0.152,-0.589 0.279,-0.705 0.429,-0.705C0.539,-0.705 0.629,-0.642 0.651,-0.528L0.661,-0.528C0.66,-0.545 0.659,-0.566 0.659,-0.597C0.659,-0.628 0.66,-0.668 0.662,-0.696C0.604,-0.708 0.513,-0.732 0.421,-0.732C0.16,-0.732 0.033,-0.543 0.033,-0.363C0.033,-0.171 0.176,0.01 0.419,0.01C0.502,0.01 0.589,-0.011 0.662,-0.045C0.662,-0.093 0.665,-0.151 0.669,-0.188L0.659,-0.19Z" style="fill-rule:nonzero;"/>
        </g>
        <g transform="matrix(34,0,0,34,670.197,172.259)">
            <path d="M0.765,-0.361C0.765,-0.577 0.597,-0.732 0.4,-0.732C0.194,-0.732 0.034,-0.563 0.034,-0.358C0.034,-0.155 0.191,0.01 0.398,0.01C0.599,0.01 0.765,-0.146 0.765,-0.361ZM0.399,-0.017C0.249,-0.017 0.154,-0.123 0.154,-0.358C0.154,-0.601 0.255,-0.705 0.398,-0.705C0.542,-0.705 0.646,-0.599 0.646,-0.357C0.646,-0.125 0.55,-0.017 0.399,-0.017Z" style="fill-rule:nonzero;"/>
        </g>
        <g transform="matrix(34,0,0,34,705.557,172.259)">
            <path d="M0.564,-0.274C0.564,-0.104 0.507,-0.022 0.364,-0.022C0.239,-0.022 0.19,-0.084 0.19,-0.273L0.19,-0.572C0.19,-0.696 0.194,-0.711 0.243,-0.718L0.243,-0.728C0.222,-0.727 0.173,-0.726 0.137,-0.726C0.101,-0.726 0.058,-0.727 0.036,-0.728L0.036,-0.718C0.083,-0.71 0.086,-0.696 0.086,-0.571L0.086,-0.265C0.086,-0.065 0.183,0.013 0.35,0.013C0.5,0.013 0.6,-0.05 0.6,-0.273L0.6,-0.468C0.6,-0.688 0.6,-0.699 0.662,-0.717L0.662,-0.727C0.641,-0.726 0.615,-0.725 0.58,-0.725C0.544,-0.725 0.511,-0.726 0.489,-0.727L0.489,-0.717C0.557,-0.698 0.564,-0.689 0.564,-0.476L0.564,-0.274Z" style="fill-rule:nonzero;"/>
        </g>
        <g transform="matrix(34,0,0,34,736.939,172.259)">
            <path d="M0.679,0.022C0.676,-0.099 0.676,-0.224 0.676,-0.459C0.676,-0.675 0.686,-0.701 0.738,-0.718L0.738,-0.728C0.717,-0.727 0.691,-0.726 0.657,-0.726C0.62,-0.726 0.59,-0.727 0.568,-0.728L0.568,-0.718C0.636,-0.697 0.64,-0.67 0.64,-0.243L0.64,-0.163C0.469,-0.346 0.279,-0.552 0.108,-0.742L0.096,-0.742C0.098,-0.593 0.098,-0.449 0.098,-0.268C0.098,-0.054 0.089,-0.025 0.038,-0.008L0.038,0.002C0.059,0.001 0.083,-0 0.117,-0C0.154,-0 0.184,0.001 0.206,0.002L0.206,-0.008C0.136,-0.029 0.134,-0.062 0.134,-0.479L0.134,-0.558C0.312,-0.371 0.505,-0.161 0.67,0.022L0.679,0.022Z" style="fill-rule:nonzero;"/>
        </g>
        <g transform="matrix(34,0,0,34,771.449,172.259)">
            <path d="M0.418,-0.571C0.417,-0.6 0.417,-0.629 0.417,-0.645C0.417,-0.676 0.418,-0.707 0.42,-0.732C0.409,-0.727 0.396,-0.726 0.385,-0.726C0.342,-0.726 0.308,-0.742 0.255,-0.742C0.135,-0.742 0.053,-0.66 0.053,-0.546C0.053,-0.324 0.362,-0.342 0.362,-0.148C0.362,-0.069 0.31,-0.018 0.226,-0.018C0.141,-0.018 0.086,-0.07 0.074,-0.152C0.072,-0.165 0.07,-0.181 0.07,-0.195L0.06,-0.195C0.051,-0.171 0.049,-0.147 0.049,-0.125C0.049,-0.095 0.053,-0.064 0.053,-0.035C0.053,-0.02 0.052,-0.005 0.052,-0.005C0.062,-0.008 0.069,-0.008 0.08,-0.008C0.125,-0.008 0.162,0.01 0.224,0.01C0.364,0.01 0.446,-0.082 0.446,-0.205C0.446,-0.443 0.136,-0.416 0.136,-0.602C0.136,-0.677 0.187,-0.715 0.257,-0.715C0.327,-0.715 0.385,-0.676 0.407,-0.571L0.418,-0.571Z" style="fill-rule:nonzero;"/>
        </g>
        <g transform="matrix(34,0,0,34,796.133,172.259)">
            <path d="M0.479,-0.164C0.447,-0.04 0.403,-0.033 0.29,-0.033C0.247,-0.033 0.219,-0.034 0.202,-0.038L0.202,-0.36L0.27,-0.36C0.348,-0.36 0.387,-0.356 0.402,-0.279L0.412,-0.279C0.411,-0.308 0.409,-0.335 0.409,-0.376C0.409,-0.416 0.411,-0.443 0.412,-0.473L0.402,-0.473C0.385,-0.402 0.357,-0.392 0.27,-0.392L0.202,-0.392L0.202,-0.688C0.215,-0.691 0.232,-0.693 0.293,-0.693C0.406,-0.693 0.447,-0.686 0.471,-0.574L0.481,-0.574C0.483,-0.605 0.484,-0.641 0.484,-0.675C0.484,-0.708 0.483,-0.728 0.483,-0.728C0.423,-0.726 0.302,-0.726 0.165,-0.726C0.111,-0.726 0.064,-0.727 0.043,-0.728L0.043,-0.718C0.093,-0.709 0.098,-0.698 0.098,-0.579L0.098,-0.146C0.098,-0.036 0.096,-0.017 0.044,-0.008L0.044,0.002C0.062,0.001 0.112,-0 0.154,-0L0.251,-0C0.347,-0 0.41,0.001 0.484,0.003C0.484,-0.053 0.488,-0.088 0.489,-0.164L0.479,-0.164Z" style="fill-rule:nonzero;"/>
        </g>
        <g transform="matrix(34,0,0,34,822.245,172.259)">
            <path d="M0.475,-0.155C0.455,-0.046 0.421,-0.033 0.298,-0.033C0.266,-0.033 0.223,-0.034 0.202,-0.038L0.202,-0.602C0.202,-0.698 0.21,-0.711 0.252,-0.718L0.252,-0.728C0.23,-0.727 0.185,-0.726 0.149,-0.726C0.113,-0.726 0.07,-0.727 0.048,-0.728L0.048,-0.718C0.089,-0.711 0.098,-0.698 0.098,-0.602L0.098,-0.124C0.098,-0.034 0.091,-0.016 0.044,-0.008L0.044,0.002C0.066,0.001 0.147,-0 0.203,-0C0.31,-0 0.396,-0 0.48,0.003C0.48,-0.051 0.484,-0.096 0.485,-0.155L0.475,-0.155Z" style="fill-rule:nonzero;"/>
        </g>
        <g transform="matrix(34,0,0,34,846.555,172.259)">
            <path d="M0.765,-0.361C0.765,-0.577 0.597,-0.732 0.4,-0.732C0.194,-0.732 0.034,-0.563 0.034,-0.358C0.034,-0.155 0.191,0.01 0.398,0.01C0.599,0.01 0.765,-0.146 0.765,-0.361ZM0.399,-0.017C0.249,-0.017 0.154,-0.123 0.154,-0.358C0.154,-0.601 0.255,-0.705 0.398,-0.705C0.542,-0.705 0.646,-0.599 0.646,-0.357C0.646,-0.125 0.55,-0.017 0.399,-0.017Z" style="fill-rule:nonzero;"/>
        </g>
        <g transform="matrix(34,0,0,34,881.915,172.259)">
            <path d="M0.581,-0.008C0.51,-0.032 0.393,-0.279 0.355,-0.34C0.469,-0.372 0.52,-0.442 0.52,-0.53C0.52,-0.644 0.435,-0.728 0.27,-0.728C0.245,-0.728 0.197,-0.726 0.155,-0.726C0.114,-0.726 0.076,-0.726 0.048,-0.728L0.048,-0.718C0.095,-0.71 0.097,-0.687 0.097,-0.577L0.097,-0.148C0.097,-0.028 0.093,-0.015 0.047,-0.008L0.047,0.002C0.069,0.001 0.113,-0 0.149,-0C0.185,-0 0.23,0.001 0.251,0.002L0.251,-0.008C0.205,-0.015 0.201,-0.028 0.201,-0.147L0.201,-0.324L0.247,-0.324C0.272,-0.289 0.294,-0.242 0.31,-0.213C0.366,-0.107 0.396,-0.053 0.43,-0.026C0.464,0.001 0.504,0.004 0.533,0.004C0.571,0.004 0.581,-0.001 0.581,-0.001L0.581,-0.008ZM0.201,-0.348L0.201,-0.692C0.221,-0.698 0.24,-0.701 0.26,-0.701C0.359,-0.701 0.406,-0.63 0.406,-0.514C0.406,-0.409 0.367,-0.348 0.248,-0.348L0.201,-0.348Z" style="fill-rule:nonzero;"/>
        </g>
        <g transform="matrix(34,0,0,34,909.795,172.259)">
            <path d="M0.418,-0.571C0.417,-0.6 0.417,-0.629 0.417,-0.645C0.417,-0.676 0.418,-0.707 0.42,-0.732C0.409,-0.727 0.396,-0.726 0.385,-0.726C0.342,-0.726 0.308,-0.742 0.255,-0.742C0.135,-0.742 0.053,-0.66 0.053,-0.546C0.053,-0.324 0.362,-0.342 0.362,-0.148C0.362,-0.069 0.31,-0.018 0.226,-0.018C0.141,-0.018 0.086,-0.07 0.074,-0.152C0.072,-0.165 0.07,-0.181 0.07,-0.195L0.06,-0.195C0.051,-0.171 0.049,-0.147 0.049,-0.125C0.049,-0.095 0.053,-0.064 0.053,-0.035C0.053,-0.02 0.052,-0.005 0.052,-0.005C0.062,-0.008 0.069,-0.008 0.08,-0.008C0.125,-0.008 0.162,0.01 0.224,0.01C0.364,0.01 0.446,-0.082 0.446,-0.205C0.446,-0.443 0.136,-0.416 0.136,-0.602C0.136,-0.677 0.187,-0.715 0.257,-0.715C0.327,-0.715 0.385,-0.676 0.407,-0.571L0.418,-0.571Z" style="fill-rule:nonzero;"/>
        </g>
        <g transform="matrix(34,0,0,34,951.139,172.259)">
            <path d="M0.594,-0.008C0.559,-0.017 0.547,-0.041 0.52,-0.125L0.323,-0.742L0.302,-0.742L0.103,-0.222C0.04,-0.057 0.02,-0.025 -0.038,-0.008L-0.038,0.002C-0.018,0.001 0.001,-0 0.035,-0C0.072,-0 0.111,0.001 0.133,0.002L0.133,-0.008C0.102,-0.013 0.091,-0.032 0.091,-0.058C0.091,-0.089 0.105,-0.128 0.131,-0.198L0.152,-0.254C0.183,-0.255 0.213,-0.255 0.255,-0.255C0.293,-0.255 0.33,-0.255 0.368,-0.254L0.401,-0.15C0.419,-0.095 0.428,-0.065 0.428,-0.046C0.428,-0.025 0.417,-0.012 0.385,-0.008L0.385,0.002C0.407,0.001 0.459,-0 0.496,-0C0.53,-0 0.573,0.001 0.594,0.002L0.594,-0.008ZM0.255,-0.29C0.217,-0.29 0.192,-0.29 0.166,-0.291L0.269,-0.566L0.356,-0.291C0.319,-0.29 0.284,-0.29 0.255,-0.29Z" style="fill-rule:nonzero;"/>
        </g>
        <g transform="matrix(34,0,0,34,978.679,172.259)">
            <path d="M0.38,-0.008C0.334,-0.015 0.33,-0.028 0.33,-0.147L0.33,-0.684C0.488,-0.683 0.521,-0.681 0.524,-0.604L0.535,-0.604C0.537,-0.627 0.548,-0.71 0.557,-0.739C0.506,-0.719 0.459,-0.717 0.269,-0.717C0.068,-0.717 0.042,-0.737 0.024,-0.743C0.021,-0.693 0.012,-0.646 0.006,-0.598L0.017,-0.598C0.036,-0.661 0.06,-0.683 0.186,-0.684L0.226,-0.684L0.226,-0.147C0.226,-0.028 0.222,-0.015 0.176,-0.008L0.176,0.002C0.198,0.001 0.241,-0 0.278,-0C0.314,-0 0.359,0.001 0.38,0.002L0.38,-0.008Z" style="fill-rule:nonzero;"/>
        </g>
        <g transform="matrix(34,0,0,34,1022.47,172.259)">
            <path d="M0.475,-0.155C0.455,-0.046 0.421,-0.033 0.298,-0.033C0.266,-0.033 0.223,-0.034 0.202,-0.038L0.202,-0.602C0.202,-0.698 0.21,-0.711 0.252,-0.718L0.252,-0.728C0.23,-0.727 0.185,-0.726 0.149,-0.726C0.113,-0.726 0.07,-0.727 0.048,-0.728L0.048,-0.718C0.089,-0.711 0.098,-0.698 0.098,-0.602L0.098,-0.124C0.098,-0.034 0.091,-0.016 0.044,-0.008L0.044,0.002C0.066,0.001 0.147,-0 0.203,-0C0.31,-0 0.396,-0 0.48,0.003C0.48,-0.051 0.484,-0.096 0.485,-0.155L0.475,-0.155Z" style="fill-rule:nonzero;"/>
        </g>
        <g transform="matrix(34,0,0,34,1048.38,172.259)">
            <path d="M0.594,-0.008C0.559,-0.017 0.547,-0.041 0.52,-0.125L0.323,-0.742L0.302,-0.742L0.103,-0.222C0.04,-0.057 0.02,-0.025 -0.038,-0.008L-0.038,0.002C-0.018,0.001 0.001,-0 0.035,-0C0.072,-0 0.111,0.001 0.133,0.002L0.133,-0.008C0.102,-0.013 0.091,-0.032 0.091,-0.058C0.091,-0.089 0.105,-0.128 0.131,-0.198L0.152,-0.254C0.183,-0.255 0.213,-0.255 0.255,-0.255C0.293,-0.255 0.33,-0.255 0.368,-0.254L0.401,-0.15C0.419,-0.095 0.428,-0.065 0.428,-0.046C0.428,-0.025 0.417,-0.012 0.385,-0.008L0.385,0.002C0.407,0.001 0.459,-0 0.496,-0C0.53,-0 0.573,0.001 0.594,0.002L0.594,-0.008ZM0.255,-0.29C0.217,-0.29 0.192,-0.29 0.166,-0.291L0.269,-0.566L0.356,-0.291C0.319,-0.29 0.284,-0.29 0.255,-0.29Z" style="fill-rule:nonzero;"/>
        </g>
        <g transform="matrix(34,0,0,34,1073.54,172.259)">
            <path d="M0.658,0.022L0.855,-0.512C0.92,-0.688 0.939,-0.701 0.993,-0.718L0.993,-0.728C0.974,-0.727 0.948,-0.726 0.914,-0.726C0.877,-0.726 0.829,-0.727 0.807,-0.728L0.807,-0.718C0.841,-0.712 0.854,-0.694 0.854,-0.665C0.854,-0.634 0.846,-0.593 0.823,-0.531L0.683,-0.146L0.511,-0.613C0.5,-0.644 0.496,-0.664 0.496,-0.678C0.496,-0.7 0.508,-0.713 0.543,-0.718L0.543,-0.728C0.521,-0.727 0.465,-0.726 0.428,-0.726C0.394,-0.726 0.341,-0.727 0.32,-0.728L0.32,-0.718C0.351,-0.707 0.37,-0.692 0.397,-0.621L0.466,-0.437L0.356,-0.143L0.183,-0.613C0.172,-0.644 0.168,-0.664 0.168,-0.678C0.168,-0.7 0.18,-0.713 0.215,-0.718L0.215,-0.728C0.193,-0.727 0.137,-0.726 0.1,-0.726C0.066,-0.726 0.013,-0.727 -0.008,-0.728L-0.008,-0.718C0.023,-0.707 0.042,-0.692 0.069,-0.621L0.312,0.022L0.33,0.022L0.485,-0.387L0.64,0.022L0.658,0.022Z" style="fill-rule:nonzero;"/>
        </g>
    </g>
    <path id="rule" d="M259.499,145.499L1116.5,145.499C1116.78,145.499 1117,145.275 1117,145C1117,144.725 1116.78,144.501 1116.5,144.501L259.499,144.501C259.224,144.501 259,144.725 259,145C259,145.275 259.224,145.499 259.499,145.499Z"/>
</svg>
