<?xml version="1.0" encoding="UTF-8" standalone="no"?>
<!DOCTYPE svg PUBLIC "-//W3C//DTD SVG 1.1//EN" "http://www.w3.org/Graphics/SVG/1.1/DTD/svg11.dtd">
<svg width="100%" height="100%" viewBox="0 0 954 428" version="1.1" xmlns="http://www.w3.org/2000/svg" xmlns:xlink="http://www.w3.org/1999/xlink" xml:space="preserve" xmlns:serif="http://www.serif.com/" style="fill-rule:evenodd;clip-rule:evenodd;stroke-linejoin:round;stroke-miterlimit:2;">
    <g transform="matrix(1,0,0,1,0,-1440)">
        <g id="vertical-full-black" serif:id="vertical full black" transform="matrix(0.795,0,0,1.79002,0,962.054)">
            <rect x="0" y="267.006" width="1200" height="239.104" style="fill:white;"/>
            <g id="scales" transform="matrix(0.811026,0,0,0.77185,436.025,58.331)">
                <g transform="matrix(2.02247,0,0,0.786525,-648.202,264.647)">
                    <path d="M423,80L420.5,83L418,80L418.833,162L420.5,167L422.167,162L423,80Z"/>
                </g>
                <g transform="matrix(1.68539,0,0,0.786525,-505.618,267.793)">
                    <path d="M388,96C395.093,96 399.969,93.802 404.835,91.568C409.223,89.552 413.602,87.5 420,87.5L420,83.5C412.907,83.5 408.031,85.698 403.165,87.932C398.777,89.948 394.398,92 388,92L388,96Z"/>
                </g>
                <g transform="matrix(-1.68539,0,0,0.786525,910.112,267.793)">
                    <path d="M388,92C394.398,92 398.777,89.948 403.165,87.932C408.031,85.698 412.907,83.5 420,83.5L420,87.5C413.602,87.5 409.223,89.552 404.835,91.568C399.969,93.802 395.093,96 388,96L388,92Z"/>
                </g>
                <g transform="matrix(1.68539,0,0,0.786525,-505.618,270.152)">
                    <path d="M407,130C407,134.415 398.486,140 388,140C377.514,140 369,134.415 369,130L407,130Z"/>
                </g>
                <g transform="matrix(1.68539,0,0,0.786525,-1523.56,267.006)">
                    <path d="M991.98,81C996.395,81 999.98,84.585 999.98,89C999.98,93.415 996.395,97 991.98,97C987.564,97 983.98,93.415 983.98,89C983.98,84.585 987.564,81 991.98,81ZM991.98,85C994.187,85 995.98,86.792 995.98,89C995.98,91.208 994.187,93 991.98,93C989.772,93 987.98,91.208 987.98,89C987.98,86.792 989.772,85 991.98,85Z"/>
                </g>
                <g transform="matrix(1.68539,0,0,0.786525,-505.618,264.647)">
                    <path d="M373.343,137L369,137L388,102L407,137L402.657,137L388,108L373.343,137Z"/>
                </g>
                <g transform="matrix(1.68539,0,0,0.786525,-505.618,267.006)">
                    <g transform="matrix(1,0,0,1,-603.98,0)">
                        <path d="M952.43,119.55L952.43,116.047C952.43,116.047 958.852,113.128 958.852,113.128C958.852,113.128 955.933,119.55 955.933,119.55L952.43,119.55Z"/>
                    </g>
                    <g transform="matrix(1,0,0,1,-603.98,0)">
                        <path d="M947.53,119.55L944.027,119.55C944.027,119.55 941.108,113.128 941.108,113.128C941.108,113.128 947.53,116.047 947.53,116.047L947.53,119.55Z"/>
                    </g>
                    <g transform="matrix(1,0,0,1,-603.98,0)">
                        <path d="M953.017,129.656L952.518,126.106C952.518,126.106 958.611,122.233 958.611,122.233C958.611,122.233 956.567,129.157 956.567,129.157L953.017,129.656Z"/>
                    </g>
                    <g transform="matrix(1,0,0,1,-603.98,0)">
                        <path d="M948.264,130.324L944.714,130.823C944.714,130.823 940.84,124.73 940.84,124.73C940.84,124.73 947.765,126.774 947.765,126.774L948.264,130.324Z"/>
                    </g>
                    <g transform="matrix(1,0,0,1,-603.98,0)">
                        <path d="M953.245,109.554L953.721,106.167C953.721,106.167 960.328,104.217 960.328,104.217C960.328,104.217 956.633,110.03 956.633,110.03L953.245,109.554Z"/>
                    </g>
                    <g transform="matrix(1,0,0,1,-603.98,0)">
                        <path d="M948.294,108.858L944.906,108.382C944.906,108.382 942.956,101.775 942.956,101.775C942.956,101.775 948.77,105.471 948.77,105.471L948.294,108.858Z"/>
                    </g>
                    <g transform="matrix(1,0,0,1,-603.98,0)">
                        <path d="M955.451,99.601L956.371,96.392C956.371,96.392 963.021,95.404 963.021,95.404C963.021,95.404 958.66,100.521 958.66,100.521L955.451,99.601Z"/>
                    </g>
                    <g transform="matrix(1,0,0,1,-603.98,0)">
                        <path d="M950.548,98.195L947.339,97.275C947.339,97.275 946.352,90.625 946.352,90.625C946.352,90.625 951.468,94.986 951.468,94.986L950.548,98.195Z"/>
                    </g>
                    <g transform="matrix(1,0,0,1,-603.98,0)">
                        <path d="M955.028,139.471L954.017,135.946C954.017,135.946 959.638,131.155 959.638,131.155C959.638,131.155 958.553,138.46 958.553,138.46L955.028,139.471Z"/>
                    </g>
                    <g transform="matrix(1,0,0,1,-603.98,0)">
                        <path d="M950.51,140.767L946.985,141.778C946.985,141.778 942.194,136.157 942.194,136.157C942.194,136.157 949.499,137.242 949.499,137.242L950.51,140.767Z"/>
                    </g>
                    <g transform="matrix(1,0,0,1,-603.98,0)">
                        <path d="M958.356,148.889L956.831,145.464C956.831,145.464 961.84,139.813 961.84,139.813C961.84,139.813 961.782,147.364 961.782,147.364L958.356,148.889Z"/>
                    </g>
                    <g transform="matrix(1,0,0,1,-603.98,0)">
                        <path d="M954.154,150.76L950.729,152.285C950.729,152.285 945.079,147.276 945.079,147.276C945.079,147.276 952.629,147.335 952.629,147.335L954.154,150.76Z"/>
                    </g>
                    <g transform="matrix(1,0,0,1,-603.98,0)">
                        <path d="M959.02,89.973L960.344,86.998C960.344,86.998 966.902,86.948 966.902,86.948C966.902,86.948 961.994,91.298 961.994,91.298L959.02,89.973Z"/>
                    </g>
                    <g transform="matrix(1,0,0,1,-603.98,0)">
                        <path d="M954.269,87.858L951.295,86.534C951.295,86.534 951.244,79.976 951.244,79.976C951.244,79.976 955.594,84.883 955.594,84.883L954.269,87.858Z"/>
                    </g>
                    <g transform="matrix(1,0,0,1,-603.98,0)">
                        <path d="M963.816,81.639L965.498,78.947C965.498,78.947 971.835,79.788 971.835,79.788C971.835,79.788 966.508,83.321 966.508,83.321C966.508,83.321 963.816,81.639 963.816,81.639Z"/>
                    </g>
                    <g transform="matrix(1,0,0,1,-603.98,0)">
                        <path d="M959.321,78.83L956.629,77.148C956.63,77.148 957.47,70.812 957.47,70.812C957.47,70.812 961.003,76.139 961.003,76.139C961.003,76.139 959.321,78.83 959.321,78.83Z"/>
                    </g>
                    <g transform="matrix(1,0,0,1,-603.98,0)">
                        <path d="M963.098,157.076L961.067,153.827C961.067,153.827 965.332,147.396 965.332,147.396C965.332,147.396 966.347,155.046 966.347,155.046L963.098,157.076Z"/>
                    </g>
                    <g transform="matrix(1,0,0,1,-603.98,0)">
                        <path d="M959.281,159.461L956.032,161.491C956.032,161.491 949.601,157.226 949.601,157.226C949.601,157.226 957.251,156.211 957.251,156.211L959.281,159.461Z"/>
                    </g>
                    <g transform="matrix(1,0,0,1,-603.98,0)">
                        <path d="M968.807,165.948L966.294,162.948C966.294,162.948 969.701,155.84 969.701,155.84C969.701,155.84 971.808,163.435 971.808,163.435L968.807,165.948Z"/>
                    </g>
                    <g transform="matrix(1,0,0,1,-603.98,0)">
                        <path d="M965.434,168.774L962.433,171.287C962.433,171.287 955.326,167.88 955.326,167.88C955.326,167.88 962.921,165.773 962.921,165.773L965.434,168.774Z"/>
                    </g>
                    <g transform="matrix(1,0,0,1,-603.98,0)">
                        <path d="M969.811,73.633L971.798,71.264C971.798,71.264 977.797,72.934 977.797,72.934C977.797,72.934 972.179,75.62 972.179,75.62L969.811,73.633Z"/>
                    </g>
                    <g transform="matrix(1,0,0,1,-603.98,0)">
                        <path d="M965.674,70.162L963.306,68.175C963.306,68.175 964.975,62.176 964.975,62.176C964.975,62.176 967.661,67.793 967.661,67.793L965.674,70.162Z"/>
                    </g>
                    <g transform="matrix(1,0,0,1,-603.98,0)">
                        <path d="M975.791,173.295L972.822,170.621C972.822,170.621 975.249,162.948 975.249,162.948C975.249,162.948 978.465,170.325 978.465,170.325L975.791,173.295Z"/>
                    </g>
                    <g transform="matrix(1,0,0,1,-603.98,0)">
                        <path d="M972.914,176.49L970.24,179.46C970.24,179.46 962.567,177.032 962.567,177.032C962.567,177.032 969.944,173.816 969.944,173.816L972.914,176.49Z"/>
                    </g>
                    <g transform="matrix(1,0,0,1,-603.98,0)">
                        <path d="M976.862,66.549L979.098,64.535C979.098,64.535 984.654,66.957 984.654,66.957C984.654,66.957 978.875,68.786 978.875,68.786L976.862,66.549Z"/>
                    </g>
                    <g transform="matrix(1,0,0,1,-603.98,0)">
                        <path d="M973.181,62.462L971.167,60.225C971.167,60.225 973.59,54.669 973.59,54.669C973.59,54.669 975.418,60.448 975.418,60.448L973.181,62.462Z"/>
                    </g>
                    <g transform="matrix(1,0,0,1,-603.98,0)">
                        <path d="M983.691,179.552L980.31,177.271C980.31,177.271 981.673,169.172 981.673,169.172C981.673,169.172 985.971,176.171 985.971,176.171C985.971,176.171 983.691,179.552 983.691,179.552Z"/>
                    </g>
                    <g transform="matrix(1,0,0,1,-603.98,0)">
                        <path d="M981.342,183.034L979.062,186.415C979.062,186.415 970.963,185.051 970.963,185.051C970.963,185.051 977.961,180.753 977.961,180.753C977.961,180.753 981.342,183.034 981.342,183.034Z"/>
                    </g>
                    <g transform="matrix(1,0,0,1,-603.98,0)">
                        <path d="M984.828,60.525L987.255,58.888C987.255,58.888 992.279,61.973 992.279,61.973C992.279,61.973 986.465,62.952 986.465,62.952L984.828,60.525Z"/>
                    </g>
                    <g transform="matrix(1,0,0,1,-603.98,0)">
                        <path d="M981.697,55.883L980.06,53.456C980.06,53.456 983.145,48.432 983.145,48.432C983.145,48.432 984.124,54.246 984.124,54.246L981.697,55.883Z"/>
                    </g>
                    <g transform="matrix(1,0,0,1,-603.98,0)">
                        <path d="M992.394,184.646L988.655,182.822C988.655,182.822 988.882,174.447 988.882,174.447C988.882,174.447 994.218,180.907 994.218,180.907L992.394,184.646Z"/>
                    </g>
                    <g transform="matrix(1,0,0,1,-603.98,0)">
                        <path d="M990.597,188.331L988.773,192.071C988.773,192.071 980.397,191.843 980.397,191.843C980.397,191.843 986.857,186.508 986.857,186.508L990.597,188.331Z"/>
                    </g>
                    <g transform="matrix(-0.45399,-0.891007,0.891007,-0.45399,448.365,552.134)">
                        <path d="M347,120L350,117L358,120L350,123L347,120Z"/>
                    </g>
                    <g transform="matrix(-0.891007,0.45399,0.45399,0.891007,651.215,-72.1752)">
                        <path d="M347,120L350,117L358,120L350,123L347,120Z"/>
                    </g>
                    <g transform="matrix(1,0,0,1,-603.98,0)">
                        <path d="M990.037,54.278L991.524,50.227C991.524,50.227 1000.25,49.41 1000.25,49.41C1000.25,49.41 994.12,55.674 994.12,55.674L990.037,54.278Z"/>
                    </g>
                </g>
                <g transform="matrix(-1.68539,0,0,0.786525,909.982,267.006)">
                    <g transform="matrix(1,0,0,1,-603.98,0)">
                        <path d="M952.43,119.55L952.43,116.047C952.43,116.047 958.852,113.128 958.852,113.128C958.852,113.128 955.933,119.55 955.933,119.55L952.43,119.55Z"/>
                    </g>
                    <g transform="matrix(1,0,0,1,-603.98,0)">
                        <path d="M947.53,119.55L944.027,119.55C944.027,119.55 941.108,113.128 941.108,113.128C941.108,113.128 947.53,116.047 947.53,116.047L947.53,119.55Z"/>
                    </g>
                    <g transform="matrix(1,0,0,1,-603.98,0)">
                        <path d="M953.017,129.656L952.518,126.106C952.518,126.106 958.611,122.233 958.611,122.233C958.611,122.233 956.567,129.157 956.567,129.157L953.017,129.656Z"/>
                    </g>
                    <g transform="matrix(1,0,0,1,-603.98,0)">
                        <path d="M948.264,130.324L944.714,130.823C944.714,130.823 940.84,124.73 940.84,124.73C940.84,124.73 947.765,126.774 947.765,126.774L948.264,130.324Z"/>
                    </g>
                    <g transform="matrix(1,0,0,1,-603.98,0)">
                        <path d="M953.245,109.554L953.721,106.167C953.721,106.167 960.328,104.217 960.328,104.217C960.328,104.217 956.633,110.03 956.633,110.03L953.245,109.554Z"/>
                    </g>
                    <g transform="matrix(1,0,0,1,-603.98,0)">
                        <path d="M948.294,108.858L944.906,108.382C944.906,108.382 942.956,101.775 942.956,101.775C942.956,101.775 948.77,105.471 948.77,105.471L948.294,108.858Z"/>
                    </g>
                    <g transform="matrix(1,0,0,1,-603.98,0)">
                        <path d="M955.451,99.601L956.371,96.392C956.371,96.392 963.021,95.404 963.021,95.404C963.021,95.404 958.66,100.521 958.66,100.521L955.451,99.601Z"/>
                    </g>
                    <g transform="matrix(1,0,0,1,-603.98,0)">
                        <path d="M950.548,98.195L947.339,97.275C947.339,97.275 946.352,90.625 946.352,90.625C946.352,90.625 951.468,94.986 951.468,94.986L950.548,98.195Z"/>
                    </g>
                    <g transform="matrix(1,0,0,1,-603.98,0)">
                        <path d="M955.028,139.471L954.017,135.946C954.017,135.946 959.638,131.155 959.638,131.155C959.638,131.155 958.553,138.46 958.553,138.46L955.028,139.471Z"/>
                    </g>
                    <g transform="matrix(1,0,0,1,-603.98,0)">
                        <path d="M950.51,140.767L946.985,141.778C946.985,141.778 942.194,136.157 942.194,136.157C942.194,136.157 949.499,137.242 949.499,137.242L950.51,140.767Z"/>
                    </g>
                    <g transform="matrix(1,0,0,1,-603.98,0)">
                        <path d="M958.356,148.889L956.831,145.464C956.831,145.464 961.84,139.813 961.84,139.813C961.84,139.813 961.782,147.364 961.782,147.364L958.356,148.889Z"/>
                    </g>
                    <g transform="matrix(1,0,0,1,-603.98,0)">
                        <path d="M954.154,150.76L950.729,152.285C950.729,152.285 945.079,147.276 945.079,147.276C945.079,147.276 952.629,147.335 952.629,147.335L954.154,150.76Z"/>
                    </g>
                    <g transform="matrix(1,0,0,1,-603.98,0)">
                        <path d="M959.02,89.973L960.344,86.998C960.344,86.998 966.902,86.948 966.902,86.948C966.902,86.948 961.994,91.298 961.994,91.298L959.02,89.973Z"/>
                    </g>
                    <g transform="matrix(1,0,0,1,-603.98,0)">
                        <path d="M954.269,87.858L951.295,86.534C951.295,86.534 951.244,79.976 951.244,79.976C951.244,79.976 955.594,84.883 955.594,84.883L954.269,87.858Z"/>
                    </g>
                    <g transform="matrix(1,0,0,1,-603.98,0)">
                        <path d="M963.816,81.639L965.498,78.947C965.498,78.947 971.835,79.788 971.835,79.788C971.835,79.788 966.508,83.321 966.508,83.321C966.508,83.321 963.816,81.639 963.816,81.639Z"/>
                    </g>
                    <g transform="matrix(1,0,0,1,-603.98,0)">
                        <path d="M959.321,78.83L956.629,77.148C956.63,77.148 957.47,70.812 957.47,70.812C957.47,70.812 961.003,76.139 961.003,76.139C961.003,76.139 959.321,78.83 959.321,78.83Z"/>
                    </g>
                    <g transform="matrix(1,0,0,1,-603.98,0)">
                        <path d="M963.098,157.076L961.067,153.827C961.067,153.827 965.332,147.396 965.332,147.396C965.332,147.396 966.347,155.046 966.347,155.046L963.098,157.076Z"/>
                    </g>
                    <g transform="matrix(1,0,0,1,-603.98,0)">
                        <path d="M959.281,159.461L956.032,161.491C956.032,161.491 949.601,157.226 949.601,157.226C949.601,157.226 957.251,156.211 957.251,156.211L959.281,159.461Z"/>
                    </g>
                    <g transform="matrix(1,0,0,1,-603.98,0)">
                        <path d="M968.807,165.948L966.294,162.948C966.294,162.948 969.701,155.84 969.701,155.84C969.701,155.84 971.808,163.435 971.808,163.435L968.807,165.948Z"/>
                    </g>
                    <g transform="matrix(1,0,0,1,-603.98,0)">
                        <path d="M965.434,168.774L962.433,171.287C962.433,171.287 955.326,167.88 955.326,167.88C955.326,167.88 962.921,165.773 962.921,165.773L965.434,168.774Z"/>
                    </g>
                    <g transform="matrix(1,0,0,1,-603.98,0)">
                        <path d="M969.811,73.633L971.798,71.264C971.798,71.264 977.797,72.934 977.797,72.934C977.797,72.934 972.179,75.62 972.179,75.62L969.811,73.633Z"/>
                    </g>
                    <g transform="matrix(1,0,0,1,-603.98,0)">
                        <path d="M965.674,70.162L963.306,68.175C963.306,68.175 964.975,62.176 964.975,62.176C964.975,62.176 967.661,67.793 967.661,67.793L965.674,70.162Z"/>
                    </g>
                    <g transform="matrix(1,0,0,1,-603.98,0)">
                        <path d="M975.791,173.295L972.822,170.621C972.822,170.621 975.249,162.948 975.249,162.948C975.249,162.948 978.465,170.325 978.465,170.325L975.791,173.295Z"/>
                    </g>
                    <g transform="matrix(1,0,0,1,-603.98,0)">
                        <path d="M972.914,176.49L970.24,179.46C970.24,179.46 962.567,177.032 962.567,177.032C962.567,177.032 969.944,173.816 969.944,173.816L972.914,176.49Z"/>
                    </g>
                    <g transform="matrix(1,0,0,1,-603.98,0)">
                        <path d="M976.862,66.549L979.098,64.535C979.098,64.535 984.654,66.957 984.654,66.957C984.654,66.957 978.875,68.786 978.875,68.786L976.862,66.549Z"/>
                    </g>
                    <g transform="matrix(1,0,0,1,-603.98,0)">
                        <path d="M973.181,62.462L971.167,60.225C971.167,60.225 973.59,54.669 973.59,54.669C973.59,54.669 975.418,60.448 975.418,60.448L973.181,62.462Z"/>
                    </g>
                    <g transform="matrix(1,0,0,1,-603.98,0)">
                        <path d="M983.691,179.552L980.31,177.271C980.31,177.271 981.673,169.172 981.673,169.172C981.673,169.172 985.971,176.171 985.971,176.171C985.971,176.171 983.691,179.552 983.691,179.552Z"/>
                    </g>
                    <g transform="matrix(1,0,0,1,-603.98,0)">
                        <path d="M981.342,183.034L979.062,186.415C979.062,186.415 970.963,185.051 970.963,185.051C970.963,185.051 977.961,180.753 977.961,180.753C977.961,180.753 981.342,183.034 981.342,183.034Z"/>
                    </g>
                    <g transform="matrix(1,0,0,1,-603.98,0)">
                        <path d="M984.828,60.525L987.255,58.888C987.255,58.888 992.279,61.973 992.279,61.973C992.279,61.973 986.465,62.952 986.465,62.952L984.828,60.525Z"/>
                    </g>
                    <g transform="matrix(1,0,0,1,-603.98,0)">
                        <path d="M981.697,55.883L980.06,53.456C980.06,53.456 983.145,48.432 983.145,48.432C983.145,48.432 984.124,54.246 984.124,54.246L981.697,55.883Z"/>
                    </g>
                    <g transform="matrix(1,0,0,1,-603.98,0)">
                        <path d="M992.394,184.646L988.655,182.822C988.655,182.822 988.882,174.447 988.882,174.447C988.882,174.447 994.218,180.907 994.218,180.907L992.394,184.646Z"/>
                    </g>
                    <g transform="matrix(1,0,0,1,-603.98,0)">
                        <path d="M990.597,188.331L988.773,192.071C988.773,192.071 980.397,191.843 980.397,191.843C980.397,191.843 986.857,186.508 986.857,186.508L990.597,188.331Z"/>
                    </g>
                    <g transform="matrix(-0.45399,-0.891007,0.891007,-0.45399,448.365,552.134)">
                        <path d="M347,120L350,117L358,120L350,123L347,120Z"/>
                    </g>
                    <g transform="matrix(-0.891007,0.45399,0.45399,0.891007,651.215,-72.1752)">
                        <path d="M347,120L350,117L358,120L350,123L347,120Z"/>
                    </g>
                    <g transform="matrix(1,0,0,1,-603.98,0)">
                        <path d="M990.037,54.278L991.524,50.227C991.524,50.227 1000.25,49.41 1000.25,49.41C1000.25,49.41 994.12,55.674 994.12,55.674L990.037,54.278Z"/>
                    </g>
                </g>
                <g transform="matrix(1.68539,0,0,0.786525,-1523.56,267.006)">
                    <path d="M1055.98,81C1060.39,81 1063.98,84.585 1063.98,89C1063.98,93.415 1060.39,97 1055.98,97C1051.56,97 1047.98,93.415 1047.98,89C1047.98,84.585 1051.56,81 1055.98,81ZM1055.98,85C1058.19,85 1059.98,86.792 1059.98,89C1059.98,91.208 1058.19,93 1055.98,93C1053.77,93 1051.98,91.208 1051.98,89C1051.98,86.792 1053.77,85 1055.98,85Z"/>
                </g>
                <g transform="matrix(1.68539,0,0,0.786525,-397.753,270.152)">
                    <path d="M407,130C407,134.415 398.486,140 388,140C377.514,140 369,134.415 369,130L407,130Z"/>
                </g>
                <g transform="matrix(1.68539,0,0,0.786525,-397.753,264.647)">
                    <path d="M373.343,137L369,137L388,102L407,137L402.657,137L388,108L373.343,137Z"/>
                </g>
                <g transform="matrix(2.10674,0,0,0.983156,-682.584,273.102)">
                    <path d="M420,53L416,49L420,45L424,49L420,53Z"/>
                </g>
                <g transform="matrix(1.38244,0,0,0.645146,-406.032,277.923)">
                    <g transform="matrix(1.12275,-1.12276,-0.950022,-0.950022,170.553,720.867)">
                        <path d="M344.323,121.195L350,117L355.773,119.474L350,123L344.323,121.195Z"/>
                    </g>
                    <g transform="matrix(-1.12275,-1.12276,0.950022,-0.950022,709.343,720.867)">
                        <path d="M344.273,121.254L350,117L355.773,119.474L350,123L344.273,121.254Z"/>
                    </g>
                    <g transform="matrix(1.6412e-16,-2.07637,1.34353,6.65233e-16,278.78,934.953)">
                        <path d="M344.744,120L349.518,117L357.518,120L349.518,123L344.744,120Z"/>
                    </g>
                    <g transform="matrix(-1.29775,-0.347733,0.347731,-1.29775,838.576,501.92)">
                        <path d="M342.606,123.789L348.934,119.379L354.626,119.76L350,123L342.606,123.789Z"/>
                    </g>
                    <g transform="matrix(1.29775,-0.347733,-0.347731,-1.29775,42.5951,501.92)">
                        <path d="M341.769,124.013L348.097,119.604L353.789,119.985L349.163,123.224L341.769,124.013Z"/>
                    </g>
                    <g transform="matrix(-0.935643,0.785097,-0.863607,-1.02921,865.581,80.9108)">
                        <path d="M342.921,122.424L346.748,120.253L351.167,121.538L347.369,123.366L342.921,122.424Z"/>
                    </g>
                    <g transform="matrix(0.935643,0.785097,0.863607,-1.02921,14.4257,80.9108)">
                        <path d="M342.921,122.424L346.748,120.253L351.167,121.538L347.369,123.366L342.921,122.424Z"/>
                    </g>
                </g>
            </g>
            <g transform="matrix(1.25786,0,0,0.558653,-300.379,377.461)">
                <g transform="matrix(64,0,0,64,284.818,99.3081)">
                    <path d="M0.034,0.199C0.166,0.166 0.2,0.096 0.2,-0.018L0.2,-0.602C0.2,-0.698 0.212,-0.71 0.254,-0.718L0.254,-0.728C0.233,-0.727 0.183,-0.726 0.147,-0.726C0.111,-0.726 0.061,-0.727 0.039,-0.728L0.039,-0.718C0.081,-0.711 0.096,-0.698 0.096,-0.602L0.096,0.029C0.096,0.144 0.09,0.167 0.031,0.19L0.034,0.199Z" style="fill-rule:nonzero;"/>
                </g>
                <g transform="matrix(64,0,0,64,301.714,99.3081)">
                    <path d="M0.44,-0.094C0.397,-0.053 0.357,-0.039 0.314,-0.039C0.207,-0.039 0.131,-0.126 0.131,-0.267C0.131,-0.283 0.132,-0.292 0.132,-0.292L0.445,-0.292C0.445,-0.42 0.351,-0.48 0.256,-0.48C0.133,-0.48 0.029,-0.38 0.029,-0.236C0.029,-0.096 0.126,0.01 0.266,0.01C0.346,0.01 0.403,-0.024 0.447,-0.085L0.44,-0.094ZM0.135,-0.318C0.147,-0.397 0.189,-0.46 0.252,-0.46C0.306,-0.46 0.341,-0.413 0.343,-0.318L0.135,-0.318Z" style="fill-rule:nonzero;"/>
                </g>
                <g transform="matrix(64,0,0,64,331.986,99.3081)">
                    <path d="M0.211,-0.008C0.181,-0.014 0.168,-0.019 0.168,-0.099L0.168,-0.429C0.198,-0.429 0.228,-0.429 0.258,-0.427L0.258,-0.477C0.258,-0.477 0.239,-0.475 0.214,-0.475L0.168,-0.475L0.168,-0.506C0.168,-0.581 0.139,-0.617 0.139,-0.662C0.139,-0.69 0.15,-0.718 0.181,-0.718C0.212,-0.718 0.235,-0.689 0.251,-0.667L0.311,-0.724C0.296,-0.751 0.273,-0.766 0.235,-0.766C0.189,-0.766 0.147,-0.744 0.118,-0.706C0.078,-0.653 0.074,-0.583 0.074,-0.475L0.036,-0.437L0.036,-0.429L0.074,-0.429L0.074,-0.099C0.074,-0.019 0.061,-0.014 0.031,-0.008L0.031,0.002C0.049,0.001 0.07,-0 0.101,-0L0.136,-0C0.163,-0 0.192,0.001 0.211,0.002L0.211,-0.008ZM0.478,-0.008C0.448,-0.014 0.435,-0.019 0.435,-0.099L0.435,-0.429C0.465,-0.429 0.495,-0.429 0.525,-0.427L0.525,-0.477C0.525,-0.477 0.506,-0.475 0.481,-0.475L0.435,-0.475L0.435,-0.506C0.435,-0.581 0.406,-0.617 0.406,-0.662C0.406,-0.69 0.417,-0.718 0.448,-0.718C0.479,-0.718 0.502,-0.689 0.518,-0.667L0.578,-0.724C0.563,-0.751 0.54,-0.766 0.502,-0.766C0.456,-0.766 0.414,-0.744 0.385,-0.706C0.345,-0.653 0.341,-0.583 0.341,-0.475L0.303,-0.437L0.303,-0.429L0.341,-0.429L0.341,-0.099C0.341,-0.019 0.328,-0.014 0.298,-0.008L0.298,0.002C0.316,0.001 0.337,-0 0.368,-0L0.403,-0C0.43,-0 0.459,0.001 0.478,0.002L0.478,-0.008Z" style="fill-rule:nonzero;"/>
                </g>
                <g transform="matrix(64,0,0,64,366.162,99.3081)">
                    <path d="M0.209,-0.008C0.179,-0.014 0.166,-0.019 0.166,-0.099L0.166,-0.388C0.19,-0.415 0.209,-0.423 0.227,-0.423C0.251,-0.423 0.267,-0.409 0.267,-0.368L0.359,-0.368C0.359,-0.446 0.331,-0.48 0.281,-0.48C0.235,-0.48 0.202,-0.45 0.166,-0.416L0.166,-0.48C0.132,-0.464 0.085,-0.454 0.041,-0.453L0.041,-0.443C0.071,-0.435 0.072,-0.42 0.072,-0.371L0.072,-0.099C0.072,-0.019 0.059,-0.014 0.029,-0.008L0.029,0.002C0.051,0.001 0.082,-0 0.119,-0C0.156,-0 0.187,0.001 0.209,0.002L0.209,-0.008Z" style="fill-rule:nonzero;"/>
                </g>
                <g transform="matrix(64,0,0,64,389.01,99.3081)">
                    <path d="M0.44,-0.094C0.397,-0.053 0.357,-0.039 0.314,-0.039C0.207,-0.039 0.131,-0.126 0.131,-0.267C0.131,-0.283 0.132,-0.292 0.132,-0.292L0.445,-0.292C0.445,-0.42 0.351,-0.48 0.256,-0.48C0.133,-0.48 0.029,-0.38 0.029,-0.236C0.029,-0.096 0.126,0.01 0.266,0.01C0.346,0.01 0.403,-0.024 0.447,-0.085L0.44,-0.094ZM0.135,-0.318C0.147,-0.397 0.189,-0.46 0.252,-0.46C0.306,-0.46 0.341,-0.413 0.343,-0.318L0.135,-0.318Z" style="fill-rule:nonzero;"/>
                </g>
                <g transform="matrix(64,0,0,64,418.578,99.3081)">
                    <path d="M0.261,0.216C0.234,0.211 0.219,0.2 0.219,0.17C0.219,0.145 0.23,0.118 0.269,0.023L0.412,-0.326C0.454,-0.428 0.471,-0.454 0.509,-0.466L0.509,-0.476C0.497,-0.476 0.477,-0.475 0.439,-0.475C0.4,-0.475 0.366,-0.476 0.35,-0.476L0.35,-0.466C0.38,-0.459 0.394,-0.45 0.394,-0.414C0.394,-0.387 0.386,-0.36 0.328,-0.218L0.285,-0.112L0.192,-0.326C0.179,-0.356 0.153,-0.408 0.153,-0.434C0.153,-0.452 0.165,-0.461 0.192,-0.466L0.192,-0.476C0.178,-0.476 0.115,-0.475 0.078,-0.475C0.041,-0.475 0.005,-0.476 -0.009,-0.476L-0.009,-0.466C0.016,-0.459 0.033,-0.446 0.049,-0.409L0.233,0.019C0.16,0.185 0.137,0.208 0.085,0.216L0.085,0.226C0.106,0.225 0.128,0.225 0.13,0.225C0.251,0.225 0.223,0.226 0.261,0.226L0.261,0.216Z" style="fill-rule:nonzero;"/>
                </g>
                <g transform="matrix(64,0,0,64,466.578,99.3081)">
                    <path d="M0.696,-0.008C0.65,-0.015 0.646,-0.028 0.646,-0.146L0.646,-0.579C0.646,-0.697 0.65,-0.71 0.696,-0.718L0.696,-0.728C0.675,-0.726 0.629,-0.726 0.594,-0.726C0.557,-0.726 0.514,-0.727 0.492,-0.728L0.492,-0.718C0.538,-0.71 0.542,-0.698 0.542,-0.579L0.542,-0.408C0.481,-0.407 0.419,-0.407 0.358,-0.407C0.305,-0.407 0.253,-0.407 0.201,-0.408L0.201,-0.579C0.201,-0.697 0.205,-0.71 0.251,-0.718L0.251,-0.728C0.23,-0.727 0.185,-0.726 0.149,-0.726C0.112,-0.726 0.069,-0.727 0.047,-0.728L0.047,-0.718C0.093,-0.71 0.097,-0.698 0.097,-0.579L0.097,-0.146C0.097,-0.028 0.093,-0.015 0.047,-0.008L0.047,0.002C0.069,0.001 0.113,-0 0.149,-0C0.185,-0 0.23,0.001 0.251,0.002L0.251,-0.008C0.205,-0.015 0.201,-0.028 0.201,-0.144L0.201,-0.371C0.255,-0.372 0.31,-0.372 0.365,-0.372C0.424,-0.372 0.483,-0.372 0.542,-0.371L0.542,-0.164C0.542,-0.029 0.54,-0.016 0.492,-0.008L0.492,0.002C0.514,0.001 0.557,-0 0.594,-0C0.63,-0 0.675,0.001 0.696,0.002L0.696,-0.008Z" style="fill-rule:nonzero;"/>
                </g>
                <g transform="matrix(64,0,0,64,514.194,99.3081)">
                    <path d="M0.521,-0.236C0.521,-0.379 0.409,-0.48 0.275,-0.48C0.142,-0.48 0.028,-0.381 0.028,-0.233C0.028,-0.087 0.138,0.006 0.273,0.006C0.415,0.006 0.521,-0.096 0.521,-0.236ZM0.273,-0.014C0.163,-0.014 0.139,-0.105 0.139,-0.234C0.139,-0.355 0.16,-0.46 0.275,-0.46C0.382,-0.46 0.41,-0.369 0.41,-0.233C0.41,-0.113 0.388,-0.014 0.273,-0.014Z" style="fill-rule:nonzero;"/>
                </g>
                <g transform="matrix(64,0,0,64,549.074,99.3081)">
                    <path d="M0.211,-0.008C0.181,-0.014 0.168,-0.019 0.168,-0.099L0.168,-0.429C0.198,-0.429 0.228,-0.429 0.258,-0.427L0.258,-0.477C0.258,-0.477 0.239,-0.475 0.214,-0.475L0.168,-0.475L0.168,-0.506C0.168,-0.581 0.139,-0.617 0.139,-0.662C0.139,-0.69 0.15,-0.718 0.181,-0.718C0.212,-0.718 0.235,-0.689 0.251,-0.667L0.311,-0.724C0.296,-0.751 0.273,-0.766 0.235,-0.766C0.189,-0.766 0.147,-0.744 0.118,-0.706C0.078,-0.653 0.074,-0.583 0.074,-0.475L0.036,-0.437L0.036,-0.429L0.074,-0.429L0.074,-0.099C0.074,-0.019 0.061,-0.014 0.031,-0.008L0.031,0.002C0.049,0.001 0.07,-0 0.101,-0L0.136,-0C0.163,-0 0.192,0.001 0.211,0.002L0.211,-0.008ZM0.478,-0.008C0.448,-0.014 0.435,-0.019 0.435,-0.099L0.435,-0.429C0.465,-0.429 0.495,-0.429 0.525,-0.427L0.525,-0.477C0.525,-0.477 0.506,-0.475 0.481,-0.475L0.435,-0.475L0.435,-0.506C0.435,-0.581 0.406,-0.617 0.406,-0.662C0.406,-0.69 0.417,-0.718 0.448,-0.718C0.479,-0.718 0.502,-0.689 0.518,-0.667L0.578,-0.724C0.563,-0.751 0.54,-0.766 0.502,-0.766C0.456,-0.766 0.414,-0.744 0.385,-0.706C0.345,-0.653 0.341,-0.583 0.341,-0.475L0.303,-0.437L0.303,-0.429L0.341,-0.429L0.341,-0.099C0.341,-0.019 0.328,-0.014 0.298,-0.008L0.298,0.002C0.316,0.001 0.337,-0 0.368,-0L0.403,-0C0.43,-0 0.459,0.001 0.478,0.002L0.478,-0.008Z" style="fill-rule:nonzero;"/>
                </g>
                <g transform="matrix(64,0,0,64,583.25,99.3081)">
                    <path d="M0.803,-0.008C0.773,-0.014 0.76,-0.019 0.76,-0.099L0.76,-0.309C0.76,-0.449 0.682,-0.48 0.61,-0.48C0.562,-0.48 0.502,-0.466 0.439,-0.419C0.411,-0.467 0.362,-0.48 0.314,-0.48C0.266,-0.48 0.215,-0.467 0.166,-0.431L0.166,-0.48C0.132,-0.464 0.085,-0.454 0.041,-0.453L0.041,-0.443C0.071,-0.435 0.072,-0.42 0.072,-0.371L0.072,-0.099C0.072,-0.019 0.059,-0.014 0.029,-0.008L0.029,0.002C0.051,0.001 0.082,-0 0.119,-0C0.156,-0 0.187,0.001 0.209,0.002L0.209,-0.008C0.179,-0.014 0.166,-0.019 0.166,-0.099L0.166,-0.406C0.199,-0.433 0.235,-0.448 0.275,-0.448C0.33,-0.448 0.368,-0.42 0.368,-0.309L0.368,-0.099C0.368,-0.019 0.355,-0.014 0.325,-0.008L0.325,0.002C0.347,0.001 0.378,-0 0.415,-0C0.452,-0 0.483,0.001 0.505,0.002L0.505,-0.008C0.475,-0.014 0.462,-0.019 0.462,-0.099L0.462,-0.312C0.462,-0.349 0.457,-0.378 0.447,-0.401C0.49,-0.433 0.531,-0.448 0.57,-0.448C0.627,-0.448 0.666,-0.417 0.666,-0.307L0.666,-0.099C0.666,-0.019 0.653,-0.014 0.623,-0.008L0.623,0.002C0.645,0.001 0.676,-0 0.713,-0C0.75,-0 0.781,0.001 0.803,0.002L0.803,-0.008Z" style="fill-rule:nonzero;"/>
                </g>
                <g transform="matrix(64,0,0,64,635.858,99.3081)">
                    <path d="M0.446,-0.05C0.436,-0.042 0.429,-0.04 0.421,-0.04C0.401,-0.04 0.394,-0.053 0.394,-0.097L0.394,-0.307C0.394,-0.436 0.331,-0.48 0.234,-0.48C0.139,-0.48 0.059,-0.438 0.043,-0.331L0.129,-0.331C0.13,-0.417 0.167,-0.457 0.224,-0.457C0.275,-0.457 0.3,-0.425 0.3,-0.348L0.3,-0.204C0.272,-0.221 0.233,-0.23 0.194,-0.23C0.099,-0.23 0.024,-0.178 0.024,-0.102C0.024,-0.036 0.08,0.01 0.161,0.01C0.214,0.01 0.263,-0.01 0.304,-0.045C0.308,-0.007 0.331,0.007 0.363,0.007C0.401,0.007 0.433,-0.012 0.451,-0.041L0.446,-0.05ZM0.208,-0.026C0.157,-0.026 0.126,-0.059 0.126,-0.113C0.126,-0.168 0.159,-0.205 0.22,-0.205C0.249,-0.205 0.28,-0.197 0.3,-0.182L0.3,-0.065C0.268,-0.036 0.236,-0.026 0.208,-0.026Z" style="fill-rule:nonzero;"/>
                </g>
                <g transform="matrix(64,0,0,64,665.426,99.3081)">
                    <path d="M0.516,-0.008C0.486,-0.014 0.473,-0.019 0.473,-0.099L0.473,-0.317C0.473,-0.459 0.383,-0.48 0.316,-0.48C0.266,-0.48 0.216,-0.468 0.166,-0.431L0.166,-0.48C0.132,-0.464 0.085,-0.454 0.041,-0.453L0.041,-0.443C0.071,-0.435 0.072,-0.42 0.072,-0.371L0.072,-0.099C0.072,-0.019 0.059,-0.014 0.029,-0.008L0.029,0.002C0.051,0.001 0.082,-0 0.119,-0C0.156,-0 0.187,0.001 0.209,0.002L0.209,-0.008C0.179,-0.014 0.166,-0.019 0.166,-0.099L0.166,-0.405C0.194,-0.429 0.231,-0.448 0.276,-0.448C0.333,-0.448 0.379,-0.418 0.379,-0.314L0.379,-0.099C0.379,-0.019 0.366,-0.014 0.336,-0.008L0.336,0.002C0.358,0.001 0.389,-0 0.426,-0C0.463,-0 0.494,0.001 0.516,0.002L0.516,-0.008Z" style="fill-rule:nonzero;"/>
                </g>
                <g transform="matrix(64,0,0,64,715.666,99.3081)">
                    <path d="M0.661,-0.023C0.602,-0.025 0.533,-0.075 0.47,-0.136C0.506,-0.193 0.529,-0.258 0.529,-0.311C0.529,-0.356 0.512,-0.402 0.484,-0.428C0.482,-0.413 0.461,-0.38 0.427,-0.38C0.422,-0.38 0.419,-0.381 0.419,-0.381L0.419,-0.376C0.46,-0.361 0.473,-0.32 0.473,-0.27C0.473,-0.229 0.464,-0.185 0.451,-0.155C0.363,-0.246 0.289,-0.355 0.262,-0.398C0.351,-0.46 0.385,-0.522 0.385,-0.588C0.385,-0.679 0.322,-0.715 0.259,-0.715C0.181,-0.715 0.104,-0.661 0.104,-0.548C0.104,-0.486 0.127,-0.43 0.168,-0.364C0.076,-0.309 0.021,-0.249 0.021,-0.169C0.021,-0.061 0.122,0.01 0.239,0.01C0.313,0.01 0.373,-0.019 0.417,-0.063C0.472,-0.019 0.527,0.002 0.585,0.002C0.62,0.002 0.648,-0.006 0.661,-0.015L0.661,-0.023ZM0.249,-0.419C0.197,-0.508 0.185,-0.55 0.185,-0.593C0.185,-0.662 0.216,-0.687 0.25,-0.687C0.287,-0.687 0.317,-0.657 0.317,-0.583C0.317,-0.521 0.296,-0.463 0.249,-0.419ZM0.4,-0.078C0.369,-0.051 0.328,-0.036 0.281,-0.036C0.183,-0.036 0.116,-0.103 0.116,-0.198C0.116,-0.257 0.142,-0.305 0.183,-0.342C0.238,-0.262 0.328,-0.141 0.4,-0.078Z" style="fill-rule:nonzero;"/>
                </g>
                <g transform="matrix(64,0,0,64,773.138,99.3081)">
                    <path d="M0.594,-0.008C0.561,-0.017 0.549,-0.035 0.527,-0.105L0.374,-0.582C0.363,-0.618 0.356,-0.644 0.356,-0.662C0.356,-0.701 0.384,-0.712 0.417,-0.719L0.417,-0.727C0.397,-0.726 0.344,-0.725 0.3,-0.725C0.266,-0.725 0.191,-0.726 0.17,-0.727L0.17,-0.719C0.217,-0.709 0.244,-0.674 0.244,-0.624C0.244,-0.603 0.24,-0.58 0.23,-0.555L0.088,-0.182C0.038,-0.053 0.015,-0.023 -0.038,-0.008L-0.038,0.002C-0.019,0.001 0.001,-0 0.035,-0C0.072,-0 0.111,0.001 0.133,0.002L0.133,-0.008C0.102,-0.013 0.091,-0.032 0.091,-0.058C0.091,-0.086 0.103,-0.123 0.116,-0.157L0.152,-0.254C0.182,-0.255 0.212,-0.255 0.253,-0.255C0.29,-0.255 0.33,-0.255 0.367,-0.254L0.413,-0.112C0.422,-0.085 0.428,-0.063 0.428,-0.046C0.428,-0.025 0.417,-0.012 0.385,-0.008L0.385,0.002C0.407,0.001 0.459,-0 0.496,-0C0.53,-0 0.573,0.001 0.594,0.002L0.594,-0.008ZM0.269,-0.566L0.356,-0.29C0.319,-0.289 0.283,-0.29 0.253,-0.29C0.216,-0.29 0.191,-0.29 0.166,-0.291L0.269,-0.566Z" style="fill-rule:nonzero;"/>
                </g>
                <g transform="matrix(64,0,0,64,811.538,99.3081)">
                    <path d="M0.322,-0.355C0.321,-0.387 0.32,-0.412 0.32,-0.429C0.32,-0.446 0.321,-0.456 0.323,-0.466C0.28,-0.47 0.24,-0.48 0.199,-0.48C0.11,-0.48 0.039,-0.433 0.039,-0.346C0.039,-0.195 0.255,-0.228 0.255,-0.094C0.255,-0.042 0.222,-0.012 0.171,-0.012C0.094,-0.012 0.06,-0.08 0.063,-0.152L0.053,-0.152C0.044,-0.112 0.047,-0.046 0.041,-0.013C0.099,-0.003 0.137,0.008 0.178,0.008C0.264,0.008 0.343,-0.042 0.343,-0.137C0.343,-0.297 0.12,-0.27 0.12,-0.386C0.12,-0.428 0.149,-0.46 0.2,-0.46C0.258,-0.46 0.297,-0.418 0.312,-0.355L0.322,-0.355Z" style="fill-rule:nonzero;"/>
                </g>
                <g transform="matrix(64,0,0,64,835.602,99.3081)">
                    <path d="M0.322,-0.355C0.321,-0.387 0.32,-0.412 0.32,-0.429C0.32,-0.446 0.321,-0.456 0.323,-0.466C0.28,-0.47 0.24,-0.48 0.199,-0.48C0.11,-0.48 0.039,-0.433 0.039,-0.346C0.039,-0.195 0.255,-0.228 0.255,-0.094C0.255,-0.042 0.222,-0.012 0.171,-0.012C0.094,-0.012 0.06,-0.08 0.063,-0.152L0.053,-0.152C0.044,-0.112 0.047,-0.046 0.041,-0.013C0.099,-0.003 0.137,0.008 0.178,0.008C0.264,0.008 0.343,-0.042 0.343,-0.137C0.343,-0.297 0.12,-0.27 0.12,-0.386C0.12,-0.428 0.149,-0.46 0.2,-0.46C0.258,-0.46 0.297,-0.418 0.312,-0.355L0.322,-0.355Z" style="fill-rule:nonzero;"/>
                </g>
                <g transform="matrix(64,0,0,64,859.666,99.3081)">
                    <path d="M0.521,-0.236C0.521,-0.379 0.409,-0.48 0.275,-0.48C0.142,-0.48 0.028,-0.381 0.028,-0.233C0.028,-0.087 0.138,0.006 0.273,0.006C0.415,0.006 0.521,-0.096 0.521,-0.236ZM0.273,-0.014C0.163,-0.014 0.139,-0.105 0.139,-0.234C0.139,-0.355 0.16,-0.46 0.275,-0.46C0.382,-0.46 0.41,-0.369 0.41,-0.233C0.41,-0.113 0.388,-0.014 0.273,-0.014Z" style="fill-rule:nonzero;"/>
                </g>
                <g transform="matrix(64,0,0,64,894.802,99.3081)">
                    <path d="M0.434,-0.088C0.399,-0.05 0.356,-0.033 0.308,-0.033C0.204,-0.033 0.132,-0.115 0.132,-0.256C0.132,-0.365 0.175,-0.46 0.27,-0.46C0.333,-0.46 0.352,-0.418 0.355,-0.364L0.452,-0.364C0.438,-0.439 0.367,-0.48 0.277,-0.48C0.134,-0.48 0.028,-0.378 0.028,-0.234C0.028,-0.097 0.123,0.01 0.266,0.01C0.347,0.01 0.401,-0.025 0.441,-0.081L0.434,-0.088Z" style="fill-rule:nonzero;"/>
                </g>
                <g transform="matrix(64,0,0,64,924.754,99.3081)">
                    <path d="M0.172,-0.583C0.172,-0.613 0.151,-0.634 0.122,-0.634C0.095,-0.634 0.074,-0.613 0.074,-0.583C0.074,-0.557 0.095,-0.536 0.122,-0.536C0.151,-0.536 0.172,-0.557 0.172,-0.583ZM0.209,-0.008C0.179,-0.014 0.166,-0.019 0.166,-0.099L0.166,-0.477C0.132,-0.461 0.085,-0.452 0.041,-0.451L0.041,-0.441C0.071,-0.433 0.072,-0.417 0.072,-0.369L0.072,-0.099C0.072,-0.019 0.059,-0.014 0.029,-0.008L0.029,0.002C0.051,0.001 0.082,-0 0.119,-0C0.156,-0 0.187,0.001 0.209,0.002L0.209,-0.008Z" style="fill-rule:nonzero;"/>
                </g>
                <g transform="matrix(64,0,0,64,939.73,99.3081)">
                    <path d="M0.446,-0.05C0.436,-0.042 0.429,-0.04 0.421,-0.04C0.401,-0.04 0.394,-0.053 0.394,-0.097L0.394,-0.307C0.394,-0.436 0.331,-0.48 0.234,-0.48C0.139,-0.48 0.059,-0.438 0.043,-0.331L0.129,-0.331C0.13,-0.417 0.167,-0.457 0.224,-0.457C0.275,-0.457 0.3,-0.425 0.3,-0.348L0.3,-0.204C0.272,-0.221 0.233,-0.23 0.194,-0.23C0.099,-0.23 0.024,-0.178 0.024,-0.102C0.024,-0.036 0.08,0.01 0.161,0.01C0.214,0.01 0.263,-0.01 0.304,-0.045C0.308,-0.007 0.331,0.007 0.363,0.007C0.401,0.007 0.433,-0.012 0.451,-0.041L0.446,-0.05ZM0.208,-0.026C0.157,-0.026 0.126,-0.059 0.126,-0.113C0.126,-0.168 0.159,-0.205 0.22,-0.205C0.249,-0.205 0.28,-0.197 0.3,-0.182L0.3,-0.065C0.268,-0.036 0.236,-0.026 0.208,-0.026Z" style="fill-rule:nonzero;"/>
                </g>
                <g transform="matrix(64,0,0,64,969.042,99.3081)">
                    <path d="M0.294,-0.084C0.278,-0.048 0.258,-0.033 0.225,-0.033C0.179,-0.033 0.16,-0.061 0.16,-0.132L0.16,-0.432L0.21,-0.432C0.254,-0.432 0.268,-0.425 0.268,-0.425C0.283,-0.458 0.292,-0.467 0.307,-0.49L0.299,-0.499C0.281,-0.475 0.258,-0.475 0.216,-0.475L0.16,-0.475C0.16,-0.525 0.166,-0.585 0.171,-0.618L0.156,-0.621C0.137,-0.544 0.092,-0.474 0.017,-0.449L0.017,-0.439C0.056,-0.433 0.066,-0.43 0.066,-0.396L0.066,-0.121C0.066,-0.02 0.12,0.008 0.183,0.008C0.242,0.008 0.28,-0.017 0.302,-0.078L0.294,-0.084Z" style="fill-rule:nonzero;"/>
                </g>
                <g transform="matrix(64,0,0,64,988.306,99.3081)">
                    <path d="M0.44,-0.094C0.397,-0.053 0.357,-0.039 0.314,-0.039C0.207,-0.039 0.131,-0.126 0.131,-0.267C0.131,-0.283 0.132,-0.292 0.132,-0.292L0.445,-0.292C0.445,-0.42 0.351,-0.48 0.256,-0.48C0.133,-0.48 0.029,-0.38 0.029,-0.236C0.029,-0.096 0.126,0.01 0.266,0.01C0.346,0.01 0.403,-0.024 0.447,-0.085L0.44,-0.094ZM0.135,-0.318C0.147,-0.397 0.189,-0.46 0.252,-0.46C0.306,-0.46 0.341,-0.413 0.343,-0.318L0.135,-0.318Z" style="fill-rule:nonzero;"/>
                </g>
                <g transform="matrix(64,0,0,64,1018.58,99.3081)">
                    <path d="M0.322,-0.355C0.321,-0.387 0.32,-0.412 0.32,-0.429C0.32,-0.446 0.321,-0.456 0.323,-0.466C0.28,-0.47 0.24,-0.48 0.199,-0.48C0.11,-0.48 0.039,-0.433 0.039,-0.346C0.039,-0.195 0.255,-0.228 0.255,-0.094C0.255,-0.042 0.222,-0.012 0.171,-0.012C0.094,-0.012 0.06,-0.08 0.063,-0.152L0.053,-0.152C0.044,-0.112 0.047,-0.046 0.041,-0.013C0.099,-0.003 0.137,0.008 0.178,0.008C0.264,0.008 0.343,-0.042 0.343,-0.137C0.343,-0.297 0.12,-0.27 0.12,-0.386C0.12,-0.428 0.149,-0.46 0.2,-0.46C0.258,-0.46 0.297,-0.418 0.312,-0.355L0.322,-0.355Z" style="fill-rule:nonzero;"/>
                </g>
            </g>
            <g transform="matrix(1.25786,0,0,0.558653,-91.2075,417.722)">
                <g transform="matrix(43,0,0,43,890.04,28.2401)">
                    <path d="M0.251,-0.008C0.21,-0.015 0.201,-0.028 0.201,-0.124L0.201,-0.692C0.218,-0.698 0.239,-0.701 0.26,-0.701C0.355,-0.701 0.408,-0.634 0.408,-0.519C0.408,-0.424 0.372,-0.353 0.288,-0.353C0.271,-0.353 0.246,-0.356 0.227,-0.366L0.221,-0.356C0.244,-0.34 0.275,-0.333 0.312,-0.333C0.443,-0.333 0.521,-0.424 0.521,-0.53C0.521,-0.638 0.441,-0.728 0.263,-0.728C0.237,-0.728 0.195,-0.726 0.145,-0.726C0.11,-0.726 0.067,-0.727 0.045,-0.728L0.045,-0.718C0.087,-0.711 0.097,-0.698 0.097,-0.602L0.097,-0.124C0.097,-0.028 0.089,-0.015 0.047,-0.008L0.047,0.002C0.069,0.001 0.112,-0 0.149,-0C0.185,-0 0.23,0.001 0.251,0.002L0.251,-0.008Z" style="fill-rule:nonzero;"/>
                </g>
                <g transform="matrix(43,0,0,43,912.959,28.2401)">
                    <path d="M0.468,-0.117C0.468,-0.035 0.444,-0.033 0.302,-0.033C0.265,-0.033 0.223,-0.034 0.202,-0.038L0.202,-0.602C0.202,-0.698 0.21,-0.711 0.252,-0.718L0.252,-0.728C0.23,-0.727 0.185,-0.726 0.15,-0.726C0.113,-0.726 0.07,-0.727 0.048,-0.728L0.048,-0.718C0.089,-0.711 0.098,-0.698 0.098,-0.602L0.098,-0.124C0.098,-0.034 0.091,-0.016 0.044,-0.008L0.044,0.002C0.066,0.001 0.167,-0 0.253,-0L0.51,-0C0.58,-0 0.766,-0 0.85,0.003C0.85,-0.051 0.854,-0.096 0.855,-0.155L0.845,-0.155C0.826,-0.044 0.784,-0.033 0.672,-0.033C0.635,-0.033 0.593,-0.034 0.572,-0.038L0.572,-0.602C0.572,-0.698 0.58,-0.711 0.622,-0.718L0.622,-0.728C0.6,-0.727 0.555,-0.726 0.52,-0.726C0.483,-0.726 0.44,-0.727 0.418,-0.728L0.418,-0.718C0.459,-0.711 0.468,-0.698 0.468,-0.602L0.468,-0.117Z" style="fill-rule:nonzero;"/>
                </g>
                <g transform="matrix(43,0,0,43,949.294,28.2401)">
                    <path d="M0.659,-0.19C0.627,-0.091 0.535,-0.018 0.425,-0.018C0.292,-0.018 0.152,-0.126 0.152,-0.363C0.152,-0.589 0.279,-0.705 0.429,-0.705C0.539,-0.705 0.629,-0.642 0.651,-0.528L0.661,-0.528C0.66,-0.545 0.659,-0.566 0.659,-0.597C0.659,-0.628 0.66,-0.668 0.662,-0.696C0.604,-0.708 0.513,-0.732 0.421,-0.732C0.16,-0.732 0.033,-0.543 0.033,-0.363C0.033,-0.171 0.176,0.01 0.419,0.01C0.502,0.01 0.589,-0.011 0.662,-0.045C0.662,-0.093 0.665,-0.151 0.669,-0.188L0.659,-0.19Z" style="fill-rule:nonzero;"/>
                </g>
            </g>
            <g transform="matrix(1.25786,0,0,0.558653,-253.093,382.644)">
                <g transform="matrix(34,0,0,34,250.501,172.259)">
                    <path d="M0.594,-0.008C0.559,-0.017 0.547,-0.041 0.52,-0.125L0.323,-0.742L0.302,-0.742L0.103,-0.222C0.04,-0.057 0.02,-0.025 -0.038,-0.008L-0.038,0.002C-0.018,0.001 0.001,-0 0.035,-0C0.072,-0 0.111,0.001 0.133,0.002L0.133,-0.008C0.102,-0.013 0.091,-0.032 0.091,-0.058C0.091,-0.089 0.105,-0.128 0.131,-0.198L0.152,-0.254C0.183,-0.255 0.213,-0.255 0.255,-0.255C0.293,-0.255 0.33,-0.255 0.368,-0.254L0.401,-0.15C0.419,-0.095 0.428,-0.065 0.428,-0.046C0.428,-0.025 0.417,-0.012 0.385,-0.008L0.385,0.002C0.407,0.001 0.459,-0 0.496,-0C0.53,-0 0.573,0.001 0.594,0.002L0.594,-0.008ZM0.255,-0.29C0.217,-0.29 0.192,-0.29 0.166,-0.291L0.269,-0.566L0.356,-0.291C0.319,-0.29 0.284,-0.29 0.255,-0.29Z" style="fill-rule:nonzero;"/>
                </g>
                <g transform="matrix(34,0,0,34,277.701,172.259)">
                    <path d="M0.38,-0.008C0.334,-0.015 0.33,-0.028 0.33,-0.147L0.33,-0.684C0.488,-0.683 0.521,-0.681 0.524,-0.604L0.535,-0.604C0.537,-0.627 0.548,-0.71 0.557,-0.739C0.506,-0.719 0.459,-0.717 0.269,-0.717C0.068,-0.717 0.042,-0.737 0.024,-0.743C0.021,-0.693 0.012,-0.646 0.006,-0.598L0.017,-0.598C0.036,-0.661 0.06,-0.683 0.186,-0.684L0.226,-0.684L0.226,-0.147C0.226,-0.028 0.222,-0.015 0.176,-0.008L0.176,0.002C0.198,0.001 0.241,-0 0.278,-0C0.314,-0 0.359,0.001 0.38,0.002L0.38,-0.008Z" style="fill-rule:nonzero;"/>
                </g>
                <g transform="matrix(34,0,0,34,304.833,172.259)">
                    <path d="M0.38,-0.008C0.334,-0.015 0.33,-0.028 0.33,-0.147L0.33,-0.684C0.488,-0.683 0.521,-0.681 0.524,-0.604L0.535,-0.604C0.537,-0.627 0.548,-0.71 0.557,-0.739C0.506,-0.719 0.459,-0.717 0.269,-0.717C0.068,-0.717 0.042,-0.737 0.024,-0.743C0.021,-0.693 0.012,-0.646 0.006,-0.598L0.017,-0.598C0.036,-0.661 0.06,-0.683 0.186,-0.684L0.226,-0.684L0.226,-0.147C0.226,-0.028 0.222,-0.015 0.176,-0.008L0.176,0.002C0.198,0.001 0.241,-0 0.278,-0C0.314,-0 0.359,0.001 0.38,0.002L0.38,-0.008Z" style="fill-rule:nonzero;"/>
                </g>
                <g transform="matrix(34,0,0,34,330.605,172.259)">
                    <path d="M0.765,-0.361C0.765,-0.577 0.597,-0.732 0.4,-0.732C0.194,-0.732 0.034,-0.563 0.034,-0.358C0.034,-0.155 0.191,0.01 0.398,0.01C0.599,0.01 0.765,-0.146 0.765,-0.361ZM0.399,-0.017C0.249,-0.017 0.154,-0.123 0.154,-0.358C0.154,-0.601 0.255,-0.705 0.398,-0.705C0.542,-0.705 0.646,-0.599 0.646,-0.357C0.646,-0.125 0.55,-0.017 0.399,-0.017Z" style="fill-rule:nonzero;"/>
                </g>
                <g transform="matrix(34,0,0,34,365.965,172.259)">
                    <path d="M0.581,-0.008C0.51,-0.032 0.393,-0.279 0.355,-0.34C0.469,-0.372 0.52,-0.442 0.52,-0.53C0.52,-0.644 0.435,-0.728 0.27,-0.728C0.245,-0.728 0.197,-0.726 0.155,-0.726C0.114,-0.726 0.076,-0.726 0.048,-0.728L0.048,-0.718C0.095,-0.71 0.097,-0.687 0.097,-0.577L0.097,-0.148C0.097,-0.028 0.093,-0.015 0.047,-0.008L0.047,0.002C0.069,0.001 0.113,-0 0.149,-0C0.185,-0 0.23,0.001 0.251,0.002L0.251,-0.008C0.205,-0.015 0.201,-0.028 0.201,-0.147L0.201,-0.324L0.247,-0.324C0.272,-0.289 0.294,-0.242 0.31,-0.213C0.366,-0.107 0.396,-0.053 0.43,-0.026C0.464,0.001 0.504,0.004 0.533,0.004C0.571,0.004 0.581,-0.001 0.581,-0.001L0.581,-0.008ZM0.201,-0.348L0.201,-0.692C0.221,-0.698 0.24,-0.701 0.26,-0.701C0.359,-0.701 0.406,-0.63 0.406,-0.514C0.406,-0.409 0.367,-0.348 0.248,-0.348L0.201,-0.348Z" style="fill-rule:nonzero;"/>
                </g>
                <g transform="matrix(34,0,0,34,393.845,172.259)">
                    <path d="M0.679,0.022C0.676,-0.099 0.676,-0.224 0.676,-0.459C0.676,-0.675 0.686,-0.701 0.738,-0.718L0.738,-0.728C0.717,-0.727 0.691,-0.726 0.657,-0.726C0.62,-0.726 0.59,-0.727 0.568,-0.728L0.568,-0.718C0.636,-0.697 0.64,-0.67 0.64,-0.243L0.64,-0.163C0.469,-0.346 0.279,-0.552 0.108,-0.742L0.096,-0.742C0.098,-0.593 0.098,-0.449 0.098,-0.268C0.098,-0.054 0.089,-0.025 0.038,-0.008L0.038,0.002C0.059,0.001 0.083,-0 0.117,-0C0.154,-0 0.184,0.001 0.206,0.002L0.206,-0.008C0.136,-0.029 0.134,-0.062 0.134,-0.479L0.134,-0.558C0.312,-0.371 0.505,-0.161 0.67,0.022L0.679,0.022Z" style="fill-rule:nonzero;"/>
                </g>
                <g transform="matrix(34,0,0,34,428.355,172.259)">
                    <path d="M0.479,-0.164C0.447,-0.04 0.403,-0.033 0.29,-0.033C0.247,-0.033 0.219,-0.034 0.202,-0.038L0.202,-0.36L0.27,-0.36C0.348,-0.36 0.387,-0.356 0.402,-0.279L0.412,-0.279C0.411,-0.308 0.409,-0.335 0.409,-0.376C0.409,-0.416 0.411,-0.443 0.412,-0.473L0.402,-0.473C0.385,-0.402 0.357,-0.392 0.27,-0.392L0.202,-0.392L0.202,-0.688C0.215,-0.691 0.232,-0.693 0.293,-0.693C0.406,-0.693 0.447,-0.686 0.471,-0.574L0.481,-0.574C0.483,-0.605 0.484,-0.641 0.484,-0.675C0.484,-0.708 0.483,-0.728 0.483,-0.728C0.423,-0.726 0.302,-0.726 0.165,-0.726C0.111,-0.726 0.064,-0.727 0.043,-0.728L0.043,-0.718C0.093,-0.709 0.098,-0.698 0.098,-0.579L0.098,-0.146C0.098,-0.036 0.096,-0.017 0.044,-0.008L0.044,0.002C0.062,0.001 0.112,-0 0.154,-0L0.251,-0C0.347,-0 0.41,0.001 0.484,0.003C0.484,-0.053 0.488,-0.088 0.489,-0.164L0.479,-0.164Z" style="fill-rule:nonzero;"/>
                </g>
                <g transform="matrix(34,0,0,34,454.467,172.259)">
                    <path d="M0.405,-0.008C0.363,-0.015 0.355,-0.028 0.355,-0.124L0.355,-0.268L0.485,-0.527C0.562,-0.681 0.573,-0.703 0.621,-0.718L0.621,-0.728C0.6,-0.727 0.578,-0.726 0.543,-0.726C0.507,-0.726 0.478,-0.727 0.456,-0.728L0.456,-0.718C0.489,-0.712 0.499,-0.696 0.499,-0.672C0.499,-0.644 0.486,-0.616 0.451,-0.545L0.332,-0.303L0.18,-0.613C0.163,-0.648 0.157,-0.667 0.157,-0.681C0.157,-0.705 0.173,-0.713 0.202,-0.718L0.202,-0.728C0.18,-0.727 0.131,-0.726 0.093,-0.726C0.055,-0.726 0,-0.727 -0.021,-0.728L-0.021,-0.718C0.009,-0.713 0.024,-0.692 0.06,-0.621L0.251,-0.242L0.251,-0.124C0.251,-0.028 0.242,-0.015 0.201,-0.008L0.201,0.002C0.223,0.001 0.266,-0 0.302,-0C0.338,-0 0.383,0.001 0.405,0.002L0.405,-0.008Z" style="fill-rule:nonzero;"/>
                </g>
                <g transform="matrix(34,0,0,34,482.789,172.259)">
                    <path d="M0.418,-0.571C0.417,-0.6 0.417,-0.629 0.417,-0.645C0.417,-0.676 0.418,-0.707 0.42,-0.732C0.409,-0.727 0.396,-0.726 0.385,-0.726C0.342,-0.726 0.308,-0.742 0.255,-0.742C0.135,-0.742 0.053,-0.66 0.053,-0.546C0.053,-0.324 0.362,-0.342 0.362,-0.148C0.362,-0.069 0.31,-0.018 0.226,-0.018C0.141,-0.018 0.086,-0.07 0.074,-0.152C0.072,-0.165 0.07,-0.181 0.07,-0.195L0.06,-0.195C0.051,-0.171 0.049,-0.147 0.049,-0.125C0.049,-0.095 0.053,-0.064 0.053,-0.035C0.053,-0.02 0.052,-0.005 0.052,-0.005C0.062,-0.008 0.069,-0.008 0.08,-0.008C0.125,-0.008 0.162,0.01 0.224,0.01C0.364,0.01 0.446,-0.082 0.446,-0.205C0.446,-0.443 0.136,-0.416 0.136,-0.602C0.136,-0.677 0.187,-0.715 0.257,-0.715C0.327,-0.715 0.385,-0.676 0.407,-0.571L0.418,-0.571Z" style="fill-rule:nonzero;"/>
                </g>
                <g transform="matrix(34,0,0,34,524.133,172.259)">
                    <path d="M0.594,-0.008C0.559,-0.017 0.547,-0.041 0.52,-0.125L0.323,-0.742L0.302,-0.742L0.103,-0.222C0.04,-0.057 0.02,-0.025 -0.038,-0.008L-0.038,0.002C-0.018,0.001 0.001,-0 0.035,-0C0.072,-0 0.111,0.001 0.133,0.002L0.133,-0.008C0.102,-0.013 0.091,-0.032 0.091,-0.058C0.091,-0.089 0.105,-0.128 0.131,-0.198L0.152,-0.254C0.183,-0.255 0.213,-0.255 0.255,-0.255C0.293,-0.255 0.33,-0.255 0.368,-0.254L0.401,-0.15C0.419,-0.095 0.428,-0.065 0.428,-0.046C0.428,-0.025 0.417,-0.012 0.385,-0.008L0.385,0.002C0.407,0.001 0.459,-0 0.496,-0C0.53,-0 0.573,0.001 0.594,0.002L0.594,-0.008ZM0.255,-0.29C0.217,-0.29 0.192,-0.29 0.166,-0.291L0.269,-0.566L0.356,-0.291C0.319,-0.29 0.284,-0.29 0.255,-0.29Z" style="fill-rule:nonzero;"/>
                </g>
                <g transform="matrix(34,0,0,34,552.693,172.259)">
                    <path d="M0.679,0.022C0.676,-0.099 0.676,-0.224 0.676,-0.459C0.676,-0.675 0.686,-0.701 0.738,-0.718L0.738,-0.728C0.717,-0.727 0.691,-0.726 0.657,-0.726C0.62,-0.726 0.59,-0.727 0.568,-0.728L0.568,-0.718C0.636,-0.697 0.64,-0.67 0.64,-0.243L0.64,-0.163C0.469,-0.346 0.279,-0.552 0.108,-0.742L0.096,-0.742C0.098,-0.593 0.098,-0.449 0.098,-0.268C0.098,-0.054 0.089,-0.025 0.038,-0.008L0.038,0.002C0.059,0.001 0.083,-0 0.117,-0C0.154,-0 0.184,0.001 0.206,0.002L0.206,-0.008C0.136,-0.029 0.134,-0.062 0.134,-0.479L0.134,-0.558C0.312,-0.371 0.505,-0.161 0.67,0.022L0.679,0.022Z" style="fill-rule:nonzero;"/>
                </g>
                <g transform="matrix(34,0,0,34,587.203,172.259)">
                    <path d="M0.043,0.002C0.065,0.001 0.119,-0 0.154,-0C0.215,-0 0.303,0.003 0.34,0.003C0.612,0.003 0.738,-0.163 0.738,-0.358C0.738,-0.54 0.629,-0.727 0.292,-0.727C0.267,-0.727 0.195,-0.726 0.155,-0.726C0.114,-0.726 0.065,-0.727 0.043,-0.728L0.043,-0.718C0.097,-0.708 0.103,-0.697 0.103,-0.563L0.103,-0.162C0.103,-0.028 0.1,-0.017 0.043,-0.008L0.043,0.002ZM0.207,-0.69C0.234,-0.698 0.275,-0.7 0.304,-0.7C0.457,-0.7 0.62,-0.646 0.62,-0.356C0.62,-0.116 0.508,-0.024 0.329,-0.024C0.297,-0.024 0.241,-0.027 0.207,-0.035L0.207,-0.69Z" style="fill-rule:nonzero;"/>
                </g>
                <g transform="matrix(34,0,0,34,638.305,172.259)">
                    <path d="M0.659,-0.19C0.627,-0.091 0.535,-0.018 0.425,-0.018C0.292,-0.018 0.152,-0.126 0.152,-0.363C0.152,-0.589 0.279,-0.705 0.429,-0.705C0.539,-0.705 0.629,-0.642 0.651,-0.528L0.661,-0.528C0.66,-0.545 0.659,-0.566 0.659,-0.597C0.659,-0.628 0.66,-0.668 0.662,-0.696C0.604,-0.708 0.513,-0.732 0.421,-0.732C0.16,-0.732 0.033,-0.543 0.033,-0.363C0.033,-0.171 0.176,0.01 0.419,0.01C0.502,0.01 0.589,-0.011 0.662,-0.045C0.662,-0.093 0.665,-0.151 0.669,-0.188L0.659,-0.19Z" style="fill-rule:nonzero;"/>
                </g>
                <g transform="matrix(34,0,0,34,670.197,172.259)">
                    <path d="M0.765,-0.361C0.765,-0.577 0.597,-0.732 0.4,-0.732C0.194,-0.732 0.034,-0.563 0.034,-0.358C0.034,-0.155 0.191,0.01 0.398,0.01C0.599,0.01 0.765,-0.146 0.765,-0.361ZM0.399,-0.017C0.249,-0.017 0.154,-0.123 0.154,-0.358C0.154,-0.601 0.255,-0.705 0.398,-0.705C0.542,-0.705 0.646,-0.599 0.646,-0.357C0.646,-0.125 0.55,-0.017 0.399,-0.017Z" style="fill-rule:nonzero;"/>
                </g>
                <g transform="matrix(34,0,0,34,705.557,172.259)">
                    <path d="M0.564,-0.274C0.564,-0.104 0.507,-0.022 0.364,-0.022C0.239,-0.022 0.19,-0.084 0.19,-0.273L0.19,-0.572C0.19,-0.696 0.194,-0.711 0.243,-0.718L0.243,-0.728C0.222,-0.727 0.173,-0.726 0.137,-0.726C0.101,-0.726 0.058,-0.727 0.036,-0.728L0.036,-0.718C0.083,-0.71 0.086,-0.696 0.086,-0.571L0.086,-0.265C0.086,-0.065 0.183,0.013 0.35,0.013C0.5,0.013 0.6,-0.05 0.6,-0.273L0.6,-0.468C0.6,-0.688 0.6,-0.699 0.662,-0.717L0.662,-0.727C0.641,-0.726 0.615,-0.725 0.58,-0.725C0.544,-0.725 0.511,-0.726 0.489,-0.727L0.489,-0.717C0.557,-0.698 0.564,-0.689 0.564,-0.476L0.564,-0.274Z" style="fill-rule:nonzero;"/>
                </g>
                <g transform="matrix(34,0,0,34,736.939,172.259)">
                    <path d="M0.679,0.022C0.676,-0.099 0.676,-0.224 0.676,-0.459C0.676,-0.675 0.686,-0.701 0.738,-0.718L0.738,-0.728C0.717,-0.727 0.691,-0.726 0.657,-0.726C0.62,-0.726 0.59,-0.727 0.568,-0.728L0.568,-0.718C0.636,-0.697 0.64,-0.67 0.64,-0.243L0.64,-0.163C0.469,-0.346 0.279,-0.552 0.108,-0.742L0.096,-0.742C0.098,-0.593 0.098,-0.449 0.098,-0.268C0.098,-0.054 0.089,-0.025 0.038,-0.008L0.038,0.002C0.059,0.001 0.083,-0 0.117,-0C0.154,-0 0.184,0.001 0.206,0.002L0.206,-0.008C0.136,-0.029 0.134,-0.062 0.134,-0.479L0.134,-0.558C0.312,-0.371 0.505,-0.161 0.67,0.022L0.679,0.022Z" style="fill-rule:nonzero;"/>
                </g>
                <g transform="matrix(34,0,0,34,771.449,172.259)">
                    <path d="M0.418,-0.571C0.417,-0.6 0.417,-0.629 0.417,-0.645C0.417,-0.676 0.418,-0.707 0.42,-0.732C0.409,-0.727 0.396,-0.726 0.385,-0.726C0.342,-0.726 0.308,-0.742 0.255,-0.742C0.135,-0.742 0.053,-0.66 0.053,-0.546C0.053,-0.324 0.362,-0.342 0.362,-0.148C0.362,-0.069 0.31,-0.018 0.226,-0.018C0.141,-0.018 0.086,-0.07 0.074,-0.152C0.072,-0.165 0.07,-0.181 0.07,-0.195L0.06,-0.195C0.051,-0.171 0.049,-0.147 0.049,-0.125C0.049,-0.095 0.053,-0.064 0.053,-0.035C0.053,-0.02 0.052,-0.005 0.052,-0.005C0.062,-0.008 0.069,-0.008 0.08,-0.008C0.125,-0.008 0.162,0.01 0.224,0.01C0.364,0.01 0.446,-0.082 0.446,-0.205C0.446,-0.443 0.136,-0.416 0.136,-0.602C0.136,-0.677 0.187,-0.715 0.257,-0.715C0.327,-0.715 0.385,-0.676 0.407,-0.571L0.418,-0.571Z" style="fill-rule:nonzero;"/>
                </g>
                <g transform="matrix(34,0,0,34,796.133,172.259)">
                    <path d="M0.479,-0.164C0.447,-0.04 0.403,-0.033 0.29,-0.033C0.247,-0.033 0.219,-0.034 0.202,-0.038L0.202,-0.36L0.27,-0.36C0.348,-0.36 0.387,-0.356 0.402,-0.279L0.412,-0.279C0.411,-0.308 0.409,-0.335 0.409,-0.376C0.409,-0.416 0.411,-0.443 0.412,-0.473L0.402,-0.473C0.385,-0.402 0.357,-0.392 0.27,-0.392L0.202,-0.392L0.202,-0.688C0.215,-0.691 0.232,-0.693 0.293,-0.693C0.406,-0.693 0.447,-0.686 0.471,-0.574L0.481,-0.574C0.483,-0.605 0.484,-0.641 0.484,-0.675C0.484,-0.708 0.483,-0.728 0.483,-0.728C0.423,-0.726 0.302,-0.726 0.165,-0.726C0.111,-0.726 0.064,-0.727 0.043,-0.728L0.043,-0.718C0.093,-0.709 0.098,-0.698 0.098,-0.579L0.098,-0.146C0.098,-0.036 0.096,-0.017 0.044,-0.008L0.044,0.002C0.062,0.001 0.112,-0 0.154,-0L0.251,-0C0.347,-0 0.41,0.001 0.484,0.003C0.484,-0.053 0.488,-0.088 0.489,-0.164L0.479,-0.164Z" style="fill-rule:nonzero;"/>
                </g>
                <g transform="matrix(34,0,0,34,822.245,172.259)">
                    <path d="M0.475,-0.155C0.455,-0.046 0.421,-0.033 0.298,-0.033C0.266,-0.033 0.223,-0.034 0.202,-0.038L0.202,-0.602C0.202,-0.698 0.21,-0.711 0.252,-0.718L0.252,-0.728C0.23,-0.727 0.185,-0.726 0.149,-0.726C0.113,-0.726 0.07,-0.727 0.048,-0.728L0.048,-0.718C0.089,-0.711 0.098,-0.698 0.098,-0.602L0.098,-0.124C0.098,-0.034 0.091,-0.016 0.044,-0.008L0.044,0.002C0.066,0.001 0.147,-0 0.203,-0C0.31,-0 0.396,-0 0.48,0.003C0.48,-0.051 0.484,-0.096 0.485,-0.155L0.475,-0.155Z" style="fill-rule:nonzero;"/>
                </g>
                <g transform="matrix(34,0,0,34,846.555,172.259)">
                    <path d="M0.765,-0.361C0.765,-0.577 0.597,-0.732 0.4,-0.732C0.194,-0.732 0.034,-0.563 0.034,-0.358C0.034,-0.155 0.191,0.01 0.398,0.01C0.599,0.01 0.765,-0.146 0.765,-0.361ZM0.399,-0.017C0.249,-0.017 0.154,-0.123 0.154,-0.358C0.154,-0.601 0.255,-0.705 0.398,-0.705C0.542,-0.705 0.646,-0.599 0.646,-0.357C0.646,-0.125 0.55,-0.017 0.399,-0.017Z" style="fill-rule:nonzero;"/>
                </g>
                <g transform="matrix(34,0,0,34,881.915,172.259)">
                    <path d="M0.581,-0.008C0.51,-0.032 0.393,-0.279 0.355,-0.34C0.469,-0.372 0.52,-0.442 0.52,-0.53C0.52,-0.644 0.435,-0.728 0.27,-0.728C0.245,-0.728 0.197,-0.726 0.155,-0.726C0.114,-0.726 0.076,-0.726 0.048,-0.728L0.048,-0.718C0.095,-0.71 0.097,-0.687 0.097,-0.577L0.097,-0.148C0.097,-0.028 0.093,-0.015 0.047,-0.008L0.047,0.002C0.069,0.001 0.113,-0 0.149,-0C0.185,-0 0.23,0.001 0.251,0.002L0.251,-0.008C0.205,-0.015 0.201,-0.028 0.201,-0.147L0.201,-0.324L0.247,-0.324C0.272,-0.289 0.294,-0.242 0.31,-0.213C0.366,-0.107 0.396,-0.053 0.43,-0.026C0.464,0.001 0.504,0.004 0.533,0.004C0.571,0.004 0.581,-0.001 0.581,-0.001L0.581,-0.008ZM0.201,-0.348L0.201,-0.692C0.221,-0.698 0.24,-0.701 0.26,-0.701C0.359,-0.701 0.406,-0.63 0.406,-0.514C0.406,-0.409 0.367,-0.348 0.248,-0.348L0.201,-0.348Z" style="fill-rule:nonzero;"/>
                </g>
                <g transform="matrix(34,0,0,34,909.795,172.259)">
                    <path d="M0.418,-0.571C0.417,-0.6 0.417,-0.629 0.417,-0.645C0.417,-0.676 0.418,-0.707 0.42,-0.732C0.409,-0.727 0.396,-0.726 0.385,-0.726C0.342,-0.726 0.308,-0.742 0.255,-0.742C0.135,-0.742 0.053,-0.66 0.053,-0.546C0.053,-0.324 0.362,-0.342 0.362,-0.148C0.362,-0.069 0.31,-0.018 0.226,-0.018C0.141,-0.018 0.086,-0.07 0.074,-0.152C0.072,-0.165 0.07,-0.181 0.07,-0.195L0.06,-0.195C0.051,-0.171 0.049,-0.147 0.049,-0.125C0.049,-0.095 0.053,-0.064 0.053,-0.035C0.053,-0.02 0.052,-0.005 0.052,-0.005C0.062,-0.008 0.069,-0.008 0.08,-0.008C0.125,-0.008 0.162,0.01 0.224,0.01C0.364,0.01 0.446,-0.082 0.446,-0.205C0.446,-0.443 0.136,-0.416 0.136,-0.602C0.136,-0.677 0.187,-0.715 0.257,-0.715C0.327,-0.715 0.385,-0.676 0.407,-0.571L0.418,-0.571Z" style="fill-rule:nonzero;"/>
                </g>
                <g transform="matrix(34,0,0,34,951.139,172.259)">
                    <path d="M0.594,-0.008C0.559,-0.017 0.547,-0.041 0.52,-0.125L0.323,-0.742L0.302,-0.742L0.103,-0.222C0.04,-0.057 0.02,-0.025 -0.038,-0.008L-0.038,0.002C-0.018,0.001 0.001,-0 0.035,-0C0.072,-0 0.111,0.001 0.133,0.002L0.133,-0.008C0.102,-0.013 0.091,-0.032 0.091,-0.058C0.091,-0.089 0.105,-0.128 0.131,-0.198L0.152,-0.254C0.183,-0.255 0.213,-0.255 0.255,-0.255C0.293,-0.255 0.33,-0.255 0.368,-0.254L0.401,-0.15C0.419,-0.095 0.428,-0.065 0.428,-0.046C0.428,-0.025 0.417,-0.012 0.385,-0.008L0.385,0.002C0.407,0.001 0.459,-0 0.496,-0C0.53,-0 0.573,0.001 0.594,0.002L0.594,-0.008ZM0.255,-0.29C0.217,-0.29 0.192,-0.29 0.166,-0.291L0.269,-0.566L0.356,-0.291C0.319,-0.29 0.284,-0.29 0.255,-0.29Z" style="fill-rule:nonzero;"/>
                </g>
                <g transform="matrix(34,0,0,34,978.679,172.259)">
                    <path d="M0.38,-0.008C0.334,-0.015 0.33,-0.028 0.33,-0.147L0.33,-0.684C0.488,-0.683 0.521,-0.681 0.524,-0.604L0.535,-0.604C0.537,-0.627 0.548,-0.71 0.557,-0.739C0.506,-0.719 0.459,-0.717 0.269,-0.717C0.068,-0.717 0.042,-0.737 0.024,-0.743C0.021,-0.693 0.012,-0.646 0.006,-0.598L0.017,-0.598C0.036,-0.661 0.06,-0.683 0.186,-0.684L0.226,-0.684L0.226,-0.147C0.226,-0.028 0.222,-0.015 0.176,-0.008L0.176,0.002C0.198,0.001 0.241,-0 0.278,-0C0.314,-0 0.359,0.001 0.38,0.002L0.38,-0.008Z" style="fill-rule:nonzero;"/>
                </g>
                <g transform="matrix(34,0,0,34,1022.47,172.259)">
                    <path d="M0.475,-0.155C0.455,-0.046 0.421,-0.033 0.298,-0.033C0.266,-0.033 0.223,-0.034 0.202,-0.038L0.202,-0.602C0.202,-0.698 0.21,-0.711 0.252,-0.718L0.252,-0.728C0.23,-0.727 0.185,-0.726 0.149,-0.726C0.113,-0.726 0.07,-0.727 0.048,-0.728L0.048,-0.718C0.089,-0.711 0.098,-0.698 0.098,-0.602L0.098,-0.124C0.098,-0.034 0.091,-0.016 0.044,-0.008L0.044,0.002C0.066,0.001 0.147,-0 0.203,-0C0.31,-0 0.396,-0 0.48,0.003C0.48,-0.051 0.484,-0.096 0.485,-0.155L0.475,-0.155Z" style="fill-rule:nonzero;"/>
                </g>
                <g transform="matrix(34,0,0,34,1048.38,172.259)">
                    <path d="M0.594,-0.008C0.559,-0.017 0.547,-0.041 0.52,-0.125L0.323,-0.742L0.302,-0.742L0.103,-0.222C0.04,-0.057 0.02,-0.025 -0.038,-0.008L-0.038,0.002C-0.018,0.001 0.001,-0 0.035,-0C0.072,-0 0.111,0.001 0.133,0.002L0.133,-0.008C0.102,-0.013 0.091,-0.032 0.091,-0.058C0.091,-0.089 0.105,-0.128 0.131,-0.198L0.152,-0.254C0.183,-0.255 0.213,-0.255 0.255,-0.255C0.293,-0.255 0.33,-0.255 0.368,-0.254L0.401,-0.15C0.419,-0.095 0.428,-0.065 0.428,-0.046C0.428,-0.025 0.417,-0.012 0.385,-0.008L0.385,0.002C0.407,0.001 0.459,-0 0.496,-0C0.53,-0 0.573,0.001 0.594,0.002L0.594,-0.008ZM0.255,-0.29C0.217,-0.29 0.192,-0.29 0.166,-0.291L0.269,-0.566L0.356,-0.291C0.319,-0.29 0.284,-0.29 0.255,-0.29Z" style="fill-rule:nonzero;"/>
                </g>
                <g transform="matrix(34,0,0,34,1073.54,172.259)">
                    <path d="M0.658,0.022L0.855,-0.512C0.92,-0.688 0.939,-0.701 0.993,-0.718L0.993,-0.728C0.974,-0.727 0.948,-0.726 0.914,-0.726C0.877,-0.726 0.829,-0.727 0.807,-0.728L0.807,-0.718C0.841,-0.712 0.854,-0.694 0.854,-0.665C0.854,-0.634 0.846,-0.593 0.823,-0.531L0.683,-0.146L0.511,-0.613C0.5,-0.644 0.496,-0.664 0.496,-0.678C0.496,-0.7 0.508,-0.713 0.543,-0.718L0.543,-0.728C0.521,-0.727 0.465,-0.726 0.428,-0.726C0.394,-0.726 0.341,-0.727 0.32,-0.728L0.32,-0.718C0.351,-0.707 0.37,-0.692 0.397,-0.621L0.466,-0.437L0.356,-0.143L0.183,-0.613C0.172,-0.644 0.168,-0.664 0.168,-0.678C0.168,-0.7 0.18,-0.713 0.215,-0.718L0.215,-0.728C0.193,-0.727 0.137,-0.726 0.1,-0.726C0.066,-0.726 0.013,-0.727 -0.008,-0.728L-0.008,-0.718C0.023,-0.707 0.042,-0.692 0.069,-0.621L0.312,0.022L0.33,0.022L0.485,-0.387L0.64,0.022L0.658,0.022Z" style="fill-rule:nonzero;"/>
                </g>
            </g>
            <g id="rule" transform="matrix(1.25527,0,0,0.557502,-3517.65,366.231)">
                <path d="M2850.9,149.456L3709.68,149.456C3709.95,149.456 3710.18,149.232 3710.18,148.956C3710.18,148.68 3709.95,148.456 3709.68,148.456L2850.9,148.456C2850.63,148.456 2850.4,148.68 2850.4,148.956C2850.4,149.232 2850.63,149.456 2850.9,149.456Z"/>
            </g>
        </g>
    </g>
</svg>
