<?xml version="1.0" encoding="UTF-8"?>
<svg width="48px" height="48px" viewBox="0 0 48 48" version="1.1" xmlns="http://www.w3.org/2000/svg" xmlns:xlink="http://www.w3.org/1999/xlink">
    <!-- Generator: Sketch 43.2 (39069) - http://www.bohemiancoding.com/sketch -->
    <title>workman</title>
    <desc>Created with Sketch.</desc>
    <defs></defs>
    <g id="Page-1" stroke="none" stroke-width="1" fill="none" fill-rule="evenodd">
        <g id="workman">
            <path d="M23.8250533,1.23560689 C23.9192089,1.14145131 24.0812152,1.14187541 24.1749467,1.23560689 L46.7643931,23.8250533 C46.8585487,23.9192089 46.8581246,24.0812152 46.7643931,24.1749467 L24.1749467,46.7643931 C24.0807911,46.8585487 23.9187848,46.8581246 23.8250533,46.7643931 L1.23560689,24.1749467 C1.14145131,24.0807911 1.14187541,23.9187848 1.23560689,23.8250533 L23.8250533,1.23560689 L23.8250533,1.23560689 Z" id="Rectangle" stroke="#666666" stroke-width="1.5"></path>
            <g id="Group" transform="translate(17.000000, 12.000000)" fill="#666666">
                <path d="M6.49879502,4.40473884 L7.58192752,13.6474695 L12.0457591,17.3092472 C12.0457591,17.3092472 10.7217865,15.446416 11.8422487,14.1529314 C12.9660692,12.8555699 17.9799995,15.163855 17.9799995,15.163855 L13.1420077,20.0018469 L8.08738935,20.0018469 L9.96481902,16.3914052 L5.12682718,12.4199194 L5.99333318,14.730602 L5.92112435,20.0018469 L4.76578301,20.0018469 L4.47694768,15.597108 L3.32160634,13.5030519 L2.67172684,20.0018469 L1.22755017,20.0018469 L1.37196784,10.6146985 L1.733012,9.67598369 L0,8.01518052 L4.18811234,3.82706818 C4.18811234,3.82706818 4.6258784,4.25154188 5.27124485,4.40473884 C5.9166113,4.55793581 6.49879502,4.40473884 6.49879502,4.40473884 Z M2.23847384,8.37622469 L2.96056217,6.71542152 L1.733012,7.87076285 L2.23847384,8.37622469 Z M4.98240951,11.5534134 L6.28216851,12.6365459 L5.63228901,9.02610419 L4.98240951,11.5534134 Z" id="Combined-Shape"></path>
                <circle id="Oval" cx="5.92112435" cy="1.9496385" r="1.9496385"></circle>
            </g>
        </g>
    </g>
</svg>