<?xml version="1.0" encoding="UTF-8"?>
<svg width="64px" height="64px" viewBox="0 0 64 64" version="1.1" xmlns="http://www.w3.org/2000/svg" xmlns:xlink="http://www.w3.org/1999/xlink">
    <!-- Generator: Sketch 43.2 (39069) - http://www.bohemiancoding.com/sketch -->
    <title>logo</title>
    <desc>Created with Sketch.</desc>
    <defs></defs>
    <g id="Page-1" stroke="none" stroke-width="1" fill="none" fill-rule="evenodd">
        <g id="logo">
            <path d="M30.5837102,1.41628981 C31.3659055,0.634094545 32.6392121,0.639212132 33.4162898,1.41628981 L62.5837102,30.5837102 C63.3659055,31.3659055 63.3607879,32.6392121 62.5837102,33.4162898 L33.4162898,62.5837102 C32.6340945,63.3659055 31.3607879,63.3607879 30.5837102,62.5837102 L1.41628981,33.4162898 C0.634094545,32.6340945 0.639212132,31.3607879 1.41628981,30.5837102 L30.5837102,1.41628981 Z" id="aa-logo-outer" fill="transparent"></path>
            <path d="M31.2916938,5.70830621 C31.6828805,5.31711949 32.322032,5.32203205 32.7083062,5.70830621 L58.2916938,31.2916938 C58.6828805,31.6828805 58.677968,32.322032 58.2916938,32.7083062 L32.7083062,58.2916938 C32.3171195,58.6828805 31.677968,58.677968 31.2916938,58.2916938 L5.70830621,32.7083062 C5.31711949,32.3171195 5.32203205,31.677968 5.70830621,31.2916938 L31.2916938,5.70830621 Z" id="aa-logo-inner" stroke="#999999" stroke-width="1.5" fill="transparent"></path>
            <path d="M31.9998022,16 L20,39.999887 L22.527553,39.999887 L25.9959456,33.0618899 L32.3529703,33.0618899 L35.8213629,39.999887 L38.3489159,39.999887 L34.8805233,33.0618899 L38.0030938,33.0618899 L41.4720515,39.999887 L43.9996045,39.999887 L31.9998022,16 Z M30.4379519,24.1777728 L31.9998022,21.0540353 L36.8735211,30.8021529 L33.7503855,30.8021529 L30.4379519,24.1777728 Z M29.1744579,26.7053555 L31.2228325,30.8021529 L27.1260833,30.8021529 L29.1744579,26.7053555 Z" id="aa-logo-a" fill="#999999"></path>
        </g>
    </g>
</svg>